ply
format ascii 1.0
element vertex 48
property float x 
property float y 
property float z 
end_header
-2.3707 -0.0497264 0.811971
-1.92537 -0.0304035 0.512619
-1.46672 -0.0150963 0.288425
-0.990296 -0.00705112 0.130076
-0.500002 -0.00341797 0.0334638
0 0 0
0.500286 -0.00191613 0.0302959
0.992423 -0.00394811 0.122804
1.46814 -0.00616319 0.2755
1.93213 -0.00231856 0.496804
2.36855 -0.00926697 0.772946
2.77182 -0.00961092 1.11115
3.13296 -0.0126804 1.50576
3.43411 -0.0137599 1.93707
3.67522 -0.0131794 2.40722
3.86149 -0.0171333 2.92729
3.9756 -0.0214715 3.44534
4.02061 -0.023047 3.97069
3.99593 -0.0232317 4.49836
3.90167 -0.0229533 5.01437
3.74121 -0.0212916 5.51314
3.51864 -0.016922 5.98097
3.2329 -0.011601 6.42294
2.89174 -0.00920722 6.81922
2.49833 -0.00590896 7.16978
1.58474 0.0206718 7.77521
1.26186 -0.00207883 7.90131
0.799944 -0.0323922 8.03305
0.307145 -0.0315037 8.11064
-0.191453 -0.0300143 8.12221
-0.689283 -0.0270901 8.06773
-1.1854 -0.0312131 7.9408
-1.65478 -0.0313732 7.75077
-2.09783 -0.0295951 7.50396
-2.50567 -0.0353511 7.20644
-2.88904 -0.0275784 6.84898
-3.2193 -0.0174854 6.4514
-3.49554 -0.0171995 6.02075
-3.70789 -0.0146356 5.58449
-3.8668 -0.0213984 5.12
-3.97113 -0.0224303 4.6305
-4.01118 -0.0359415 4.13898
-3.9876 -0.0532511 3.6352
-3.89558 -0.0681344 3.12225
-3.73291 -0.087368 2.61996
-3.49306 -0.101907 2.12068
-3.17571 -0.111826 1.64157
-2.79209 -0.0952558 1.19708
