ply
format ascii 1.0
element vertex 40
property float x 
property float y 
property float z 
end_header
-2.01656 0.0308534 -1.63758
-1.389 0.0297053 -1.9078
-0.752204 0.0279521 -2.07077
-0.108815 0.027468 -2.13542
0.522129 0.0308808 -2.10571
1.14299 0.032621 -1.98337
1.73865 0.0340651 -1.77098
2.30726 0.0333003 -1.46337
2.83049 0.0316215 -1.06974
3.30679 0.0283872 -0.57946
3.78885 0.00706127 0.138118
3.78504 0.0505507 0.125792
3.78426 0.106614 0.118324
3.7865 0.13745 0.116862
3.78626 0.145048 0.118408
2.33575 -0.353076 -3.30375
3.98907 -0.577575 3.24094
5.90423 -3.10171 33.9447
-3.55014 1.21857 -6.62496
5.44652 9.08411 83.2416
4.42852 2.52582 -27.9994
-3.36155 0.601808 5.43448
-3.29235 -0.384658 5.38445
-3.24329 -0.234691 5.3493
-3.15378 -0.76492 5.32456
-3.17071 -0.0595383 5.19694
-3.12651 -0.00111195 5.17235
-3.08332 0.0154599 5.16877
-3.03596 0.000398377 5.19055
-2.96284 -0.0107318 5.24567
-2.94223 -0.0405163 5.2457
-4.12615 0.0207736 3.33003
-4.25517 0.0232174 2.70319
-4.291 0.0233333 2.04922
-4.2295 0.0233372 1.41001
-4.07575 0.0238191 0.793981
-3.83192 0.0243155 0.205677
-3.5081 0.022551 -0.338424
-3.10369 0.0276297 -0.821225
-2.59526 0.0301094 -1.26983
