ply
format ascii 1.0
element vertex 48
property float x 
property float y 
property float z 
end_header
-2.37186 -0.0449273 0.809458
-1.92892 -0.0194529 0.511132
-1.46927 -0.0117595 0.288364
-0.993452 -0.002882 0.130366
-0.500537 -0.00271626 0.0335912
0 0 0
0.500285 -0.00191578 0.0302958
0.992423 -0.00394811 0.122804
1.46883 -0.00531525 0.275441
1.92632 -0.00413594 0.491075
2.3623 -0.00669638 0.769427
2.76423 -0.00866536 1.10445
3.12633 -0.0110765 1.49966
3.42938 -0.0109641 1.93347
3.67254 -0.0117318 2.40659
3.85338 -0.0111895 2.90999
3.97096 -0.0226184 3.426
4.02012 -0.0243894 3.94932
4.00159 -0.0237523 4.46981
3.91718 -0.0234758 4.97568
3.77106 -0.0163462 5.46592
3.56476 -0.0131717 5.93001
3.3049 -0.00431674 6.36911
2.9871 0.00502534 6.78491
2.60562 0.0167553 7.16343
2.15289 0.047942 7.54234
1.28192 -0.0541069 7.96248
0.801986 -0.0505665 8.08809
0.314016 -0.0575611 8.15066
-0.18203 -0.0437544 8.1568
-0.682208 -0.0445809 8.09662
-1.17268 -0.0477565 7.97313
-1.64504 -0.0528213 7.78096
-2.0921 -0.0451792 7.53582
-2.50202 -0.053894 7.23682
-2.90861 -0.0378522 6.84999
-3.23022 -0.0330004 6.45255
-3.49966 -0.0272759 6.02146
-3.71173 -0.0223446 5.58012
-3.86759 -0.0258928 5.12221
-3.96235 -0.0301203 4.66612
-4.00833 -0.0381877 4.15708
-3.98711 -0.056801 3.6476
-3.89567 -0.070128 3.12631
-3.73225 -0.0875459 2.61823
-3.48962 -0.0961258 2.11151
-3.17446 -0.108795 1.63787
-2.79155 -0.0836216 1.19087
