ply
format ascii 1.0
element vertex 47
property float x 
property float y 
property float z 
end_header
-2.49624 -0.0613194 -0.707129
-2.06474 -0.0647641 -1.03076
-1.60378 -0.0646358 -1.28557
-1.1165 -0.0641334 -1.4734
-0.617516 -0.064448 -1.59094
-0.10992 -0.0644415 -1.64029
0.398873 -0.0629346 -1.62149
0.912813 -0.0652386 -1.53067
1.4 -0.0654408 -1.3739
1.86059 -0.0635526 -1.15428
2.31641 -0.0667602 -0.855862
2.71932 -0.0664971 -0.497992
3.06968 -0.0704324 -0.0837844
3.36893 -0.072686 0.400351
3.67623 -0.0842681 1.14495
3.69953 -0.0846481 1.41994
3.672 -0.0514127 1.17315
3.67379 -0.0365264 1.16732
3.66257 -0.0590637 1.23887
3.65243 -0.082161 1.27379
3.63479 -0.0493015 1.29014
4.15732 -4.53446 37.0811
2.90514 -2.58773 2.9213
1.90311 -2.09387 -0.139651
-2.48199 0.272713 -5.56313
-3.82278 -0.571294 2.91874
3.14104 0.47004 -0.858292
-2.62251 0.307778 5.54459
-3.16686 0.0378556 4.50734
-3.10032 0.0404004 4.55233
-3.03766 0.0345802 4.59441
-3.01749 0.0254966 4.59765
-2.99126 0.0180613 4.60279
-2.9602 0.0219228 4.60393
-2.90727 0.00848852 4.63077
-2.8611 -0.00738166 4.65868
-2.86547 -0.0275736 4.6464
-3.22258 -0.0494269 4.15069
-3.53211 -0.0559516 3.54031
-3.6908 -0.0579642 3.03749
-3.77596 -0.0567053 2.53967
-3.79433 -0.0593305 2.03393
-3.74601 -0.0595756 1.53454
-3.62871 -0.0592689 1.03656
-3.44533 -0.0585293 0.554721
-3.19593 -0.0586686 0.102295
-2.87402 -0.0574102 -0.329926
