ply
format ascii 1.0
element vertex 36
property float x 
property float y 
property float z 
end_header
5.95435 9.41867 -153.662
-4094.46 -15226 223682
-8222.14 -13498.3 216266
-39467.5 26522.2 -734230
-5.77443 -4.26129 -10.1451
-3.55836 -5.29344 -5.65542
-2.41174 -1.98581 2.75865
-5.24553 -6.84135 -3.82256
8.56102 0.950122 3.7136
8.40678 1.32764 3.85879
-3.90361 -7.69885 -5.19881
7.14884 0.056183 13.271
7309.65 29877.4 -299327
-22598.8 -31638.2 731290
-1.6627 0.661978 22.2232
767487 -221277 -1.19666e+07
-1414.62 419.33 26197.5
0.646748 -1.4635 -0.507918
4.17166 3.08488 -14.6149
-5.45534 -4.63326 2.0848
-5.64321 -5.90299 3.33774
-0.203151 -0.0440558 -2.29413
69381.4 -138529 -1.0275e+07
-657.988 122.166 -25345.9
-0.806007 -0.0110004 -2.54279
-0.310391 -0.0100239 -2.63937
1.3236 0.00316559 -2.54439
1.31962 -0.00336322 -2.54616
-4.06467 -0.426803 -13.4646
25338.4 -3377.23 369365
1.06351 2.26062 21.5171
6849.44 6020 97449.5
-41974.5 -23190.5 -452747
35958 17438.5 349658
5221.42 -4168.78 629810
-6392.07 26119.2 722084
