ply
format ascii 1.0
element vertex 377
property float x
property float y
property float z
property uchar red
property uchar green
property uchar blue
end_header
-0.0915347 -0.227781 2.4337 108 0 0
-0.0795448 -0.231474 2.43212 150 0 2
-0.0795448 -0.231474 2.43212 150 0 2
-0.0711429 -0.233121 2.43302 240 233 215
-0.0722454 -0.22621 2.43326 131 1 0
-0.0749225 -0.205668 2.44011 98 0 1
-0.0629528 -0.218987 2.43578 132 0 3
-0.0629528 -0.218987 2.43578 132 0 3
-0.0610265 -0.215535 2.4369 248 245 252
-0.046499 -0.207163 2.43937 99 1 0
-0.0475076 -0.188934 2.44527 107 1 1
-0.0440484 -0.193236 2.44376 99 0 0
-0.0554209 -0.14788 2.45742 79 0 0
-0.0456589 -0.185033 2.44627 240 238 241
-0.0383718 -0.198092 2.44199 240 240 240
-0.0390574 -0.162788 2.45346 126 0 1
-0.0325985 -0.15819 2.45532 239 234 240
-0.0276053 -0.17067 2.45002 96 1 0
-0.0259716 -0.176958 2.44781 242 232 243
-0.0274549 -0.17075 2.44977 95 1 1
-0.0274549 -0.17075 2.44977 95 1 1
-0.0209346 -0.189507 2.44399 70 0 2
-0.0217597 -0.176044 2.44856 91 0 0
-0.0217516 -0.171488 2.44987 233 231 236
-0.0175725 -0.176443 2.44877 241 233 244
-0.0175725 -0.176443 2.44877 241 233 244
-0.017468 -0.176544 2.44861 239 225 242
-0.017468 -0.176544 2.44861 239 225 242
-0.0147614 -0.178997 2.44779 236 229 237
-0.0147614 -0.178997 2.44779 236 229 237
-0.00957304 -0.175121 2.44986 233 230 237
-0.00698058 -0.180158 2.44648 84 0 2
-0.00698058 -0.180158 2.44648 84 0 2
-0.00690324 -0.170535 2.44903 89 1 0
-0.00241275 -0.178825 2.44699 250 245 241
-0.00335086 -0.173319 2.44828 239 227 237
-0.00569302 -0.160227 2.45255 231 232 236
-0.00315754 -0.164791 2.4513 232 231 237
-0.0015064 -0.170071 2.44958 240 229 243
0.00469642 -0.168249 2.45052 80 0 0
-0.0282724 -0.0458105 2.44436 204 175 205
0.000176974 -0.127368 2.46571 231 221 230
0.0118113 -0.16442 2.45088 233 230 237
0.0118113 -0.16442 2.45088 233 230 237
0.00162845 -0.114719 2.46911 57 0 0
0.00162845 -0.114719 2.46911 57 0 0
0.0154089 -0.16531 2.45066 106 0 0
0.0101718 -0.141905 2.4593 237 223 236
0.0187808 -0.163899 2.45186 252 254 253
0.0190224 -0.16372 2.45131 254 255 253
0.0135866 -0.123252 2.46504 89 0 1
0.00618983 -0.0840778 2.48329 39 1 0
0.0181447 -0.133419 2.46127 238 222 232
-0.00481767 -0.0450047 2.44637 61 1 3
0.0203978 -0.121891 2.4662 230 225 232
0.02961 -0.150974 2.45471 231 225 229
0.0288589 -0.137516 2.46028 219 208 224
0.0288589 -0.137516 2.46028 219 208 224
0.0346927 -0.146577 2.45675 222 218 233
0.0255814 -0.112259 2.45248 88 0 0
0.0393501 -0.14355 2.45783 226 220 232
0.0423922 -0.148012 2.45862 254 255 255
0.0385328 -0.131671 2.46147 70 0 0
0.01505 -0.0338004 2.45483 188 173 192
0.01505 -0.0338004 2.45483 188 173 192
0.0446803 -0.137649 2.46005 238 218 229
0.044562 -0.12431 2.46381 76 2 3
0.048083 -0.138897 2.45773 68 0 0
0.0451787 -0.121233 2.46554 228 205 225
0.0451787 -0.121233 2.46554 228 205 225
0.0472025 -0.116102 2.46697 220 206 219
0.0495592 -0.117697 2.46655 221 207 220
0.0328259 -0.049744 2.48726 255 255 253
0.054404 -0.136925 2.4579 64 0 1
0.0607689 -0.136241 2.45841 255 255 255
0.0639592 -0.129322 2.46049 60 0 4
0.0660329 -0.13336 2.45929 245 244 240
0.0647101 -0.12434 2.46245 58 0 3
0.0642346 -0.120628 2.46372 213 206 222
0.0412621 -0.0327504 2.45956 90 2 1
0.0310796 0.0185135 2.39087 104 0 1
0.07517 -0.116334 2.46264 53 0 3
0.0350677 0.0136987 2.39129 111 0 0
0.0350677 0.0136987 2.39129 111 0 0
0.0386744 0.0145972 2.39333 246 235 233
0.0379721 0.0188488 2.39439 103 0 0
0.041757 0.0211179 2.39754 94 0 0
0.0849675 -0.102659 2.46922 205 197 212
0.0476973 0.00462887 2.39158 247 252 246
0.0844073 -0.096747 2.47122 71 0 0
0.0826034 -0.0884437 2.47485 40 0 0
0.0402842 0.0470779 2.41213 253 248 244
0.091752 -0.106393 2.46833 55 1 0
0.0808135 -0.0550746 2.4884 185 156 184
0.0894761 -0.0856019 2.47575 202 174 197
0.0401591 0.0794676 2.43134 249 250 245
0.0795194 -0.0390164 2.49637 181 139 185
0.0450454 0.0588175 2.42139 245 244 242
0.0467209 0.0522026 2.41764 118 0 0
0.0561524 0.0145516 2.40255 111 0 0
0.0501394 0.0442019 2.41555 244 243 241
0.0550828 0.0324578 2.41299 104 0 0
0.0550828 0.0324578 2.41299 104 0 0
0.041986 0.0915744 2.44031 250 232 230
0.0603213 0.0119557 2.40358 255 241 238
0.0603213 0.0119557 2.40358 255 241 238
0.0618515 0.00683988 2.40295 103 0 0
0.0959713 -0.0893191 2.47449 198 179 198
0.0461702 0.0775165 2.43341 120 0 0
0.0588387 0.0427388 2.42095 106 0 0
0.0989297 -0.0753677 2.47866 49 1 0
0.105617 -0.101048 2.46745 41 0 0
0.0695074 0.00568299 2.40412 249 250 245
0.0503786 0.0979184 2.4496 255 241 238
0.106982 -0.0880605 2.47213 49 0 0
0.107685 -0.0776273 2.47716 21 0 0
0.0738233 0.0302792 2.42387 103 0 0
0.0568387 0.107734 2.46064 255 240 240
0.0795643 0.00690912 2.41455 107 2 0
0.114984 -0.0896161 2.4714 177 159 175
0.110019 -0.0669476 2.48019 192 169 189
0.081453 0.0125717 2.41783 109 0 0
0.0747886 0.0494783 2.43656 100 0 0
0.078184 0.0346769 2.42775 249 246 241
0.0743851 0.0534279 2.43925 106 0 0
0.114793 -0.0778706 2.4766 184 166 188
0.0798919 0.0296738 2.42754 105 1 0
0.117709 -0.0858971 2.47217 196 171 193
0.0834353 0.0221303 2.42489 114 0 2
0.0692352 0.0961128 2.45804 247 247 245
0.120827 -0.0784874 2.47534 34 0 0
0.0862428 0.0283871 2.42793 248 245 240
0.0868113 0.0331968 2.43401 247 247 245
0.0813607 0.061402 2.44691 106 1 0
0.0931552 0.0103502 2.42374 108 0 0
0.0851742 0.0490368 2.44424 248 245 238
0.11831 -0.0527259 2.48721 49 0 3
0.0935416 0.0151032 2.42721 250 251 245
0.0786879 0.0894546 2.46298 250 249 245
0.0788231 0.0894516 2.4627 250 249 245
0.0949659 0.0460371 2.44733 255 244 244
0.109566 -0.000215599 2.42855 98 0 0
0.0984913 0.062773 2.46138 104 0 1
0.114507 0.0069694 2.43617 104 0 0
0.105076 0.0692169 2.46941 101 1 1
0.114476 0.0424034 2.4582 108 0 0
0.114476 0.0424034 2.4582 108 0 0
0.116443 0.0385131 2.45721 247 245 248
0.123683 0.0438098 2.46606 255 238 234
0.133871 0.0168095 2.45528 255 242 236
0.136877 0.0325031 2.46285 246 244 245
0.166615 -0.0787724 2.43696 227 226 231
0.141834 0.0505512 2.48364 244 243 241
0.131918 0.0964349 2.4987 252 247 244
0.171794 -0.0594607 2.44862 227 227 227
0.150981 0.0420167 2.48408 116 0 0
0.15289 0.0375861 2.47841 115 0 0
0.190154 -0.12617 2.40751 94 7 15
0.190154 -0.12617 2.40751 94 7 15
0.169023 -0.013756 2.45418 255 250 246
0.159637 0.055283 2.49324 119 1 0
0.184873 -0.0496139 2.45418 222 228 224
0.191569 -0.062347 2.4489 232 228 227
0.171584 0.0268292 2.48058 253 239 236
0.171584 0.0268292 2.48058 253 239 236
0.19094 -0.0592188 2.4494 235 233 236
0.163569 0.082008 2.51052 123 1 0
0.23369 -0.242273 2.36761 212 16 66
0.23369 -0.242273 2.36761 212 16 66
0.197126 -0.0685402 2.44308 79 1 1
0.205378 -0.102665 2.4246 118 18 28
0.199771 -0.0591653 2.44949 101 1 3
0.199771 -0.0591653 2.44949 101 1 3
0.209258 -0.10287 2.42474 231 228 223
0.173842 0.0689536 2.50575 186 115 155
0.178529 0.0880754 2.52142 253 253 253
0.211427 -0.072115 2.44188 251 231 233
0.211427 -0.072115 2.44188 251 231 233
0.206778 -0.0416986 2.45963 233 231 234
0.206778 -0.0416986 2.45963 233 231 234
0.213001 -0.0538125 2.45372 240 240 242
0.213001 -0.0538125 2.45372 240 240 242
0.188468 0.0643789 2.5072 254 245 250
0.188468 0.0643789 2.5072 254 245 250
0.215035 -0.0635753 2.44648 75 1 0
0.213213 -0.0455379 2.45846 80 2 2
0.260765 -0.250911 2.3721 223 41 102
0.218956 -0.0456906 2.45864 217 192 196
0.222763 -0.0583266 2.45145 109 0 0
0.222763 -0.0583266 2.45145 109 0 0
0.225538 -0.052749 2.45409 86 2 2
0.205001 0.0630819 2.51104 251 251 251
0.207282 0.0722673 2.51611 66 0 1
0.205661 0.0937846 2.52889 112 0 0
0.216776 0.0827034 2.52983 253 253 253
0.279353 -0.226863 2.36918 185 12 68
0.292663 -0.246366 2.37867 238 227 209
0.287875 -0.231203 2.37362 255 255 255
0.225714 0.0879502 2.53079 142 0 1
0.293569 -0.241047 2.37918 255 254 255
0.294174 -0.222649 2.37557 141 25 36
0.241052 0.0823012 2.53189 254 253 251
0.335423 -0.227941 2.38822 123 0 3
-0.0725295 -0.225737 2.42953 131 1 0
-0.0685412 -0.227112 2.41062 131 1 0
-0.0724103 -0.226562 2.4337 126 0 1
-0.0576762 -0.225309 2.51705 201 1 37
-0.0703195 -0.142269 2.55071 253 253 253
-0.0588607 -0.162062 2.53097 252 253 255
-0.0397708 -0.196832 2.50606 176 0 17
-0.0390541 -0.176787 2.5117 253 255 254
-0.0332664 -0.161624 2.51018 251 255 254
-0.0218402 -0.154152 2.50151 165 1 8
-0.0111765 -0.135746 2.49902 159 1 2
0.00814403 -0.155854 2.4791 255 255 255
0.0173443 -0.156824 2.47052 254 254 255
0.0170548 -0.0826184 2.49337 112 0 0
0.0481441 -0.0871078 2.46517 101 1 1
0.0688763 -0.104887 2.44565 245 254 253
0.118765 -0.0670442 2.42173 87 1 4
0.115877 -0.0329569 2.43456 64 0 0
0.163143 -0.0529697 2.3646 95 1 1
0.166311 -0.044906 2.36534 93 0 0
0.180254 -0.077567 2.34225 110 0 1
0.183164 -0.0678186 2.34554 119 1 1
0.0549576 -0.122662 2.45674 140 0 1
-0.0910767 -0.246608 2.53372 167 0 28
-0.0716091 -0.241099 2.51796 244 229 210
-0.0636514 -0.191954 2.52738 240 228 230
-0.048366 -0.189652 2.51341 120 0 2
-0.0362916 -0.202309 2.49972 249 248 254
-0.0250907 -0.168586 2.50029 254 254 254
0.0279346 -0.124856 2.47135 81 0 0
0.0279216 -0.111313 2.47549 78 0 0
0.0449274 -0.0957604 2.46737 222 221 235
0.055067 -0.108077 2.45575 40 0 1
0.0799383 -0.118265 2.4343 242 243 245
0.090532 -0.0900049 2.434 211 207 224
0.097519 -0.103937 2.42459 239 223 234
0.098328 -0.0901739 2.4286 216 203 213
0.0992595 -0.0802895 2.43045 189 187 208
0.12524 -0.0775605 2.41335 177 152 174
0.128108 -0.0563741 2.41847 191 142 172
0.135358 -0.0708733 2.40843 47 1 3
0.145626 -0.051733 2.41204 18 0 0
-0.0331823 -0.161771 2.50973 245 241 242
-0.0111836 -0.135905 2.49994 88 0 0
0.0875544 -0.105641 2.43228 60 0 0
0.109368 -0.0887314 2.42192 194 191 212
0.128375 -0.081022 2.40898 51 0 3
-0.101821 -0.253268 2.52932 253 255 254
-0.0912135 -0.241459 2.52537 158 0 17
-0.0847541 -0.216628 2.52145 250 223 230
-0.0829478 -0.159982 2.51209 134 0 0
-0.0817998 -0.151794 2.51069 62 1 0
-0.0823122 -0.141726 2.51044 249 248 246
-0.0774373 -0.142861 2.51001 242 225 217
-0.0603067 -0.151675 2.51338 240 238 239
-0.0582457 -0.155738 2.51444 110 0 1
-0.0420077 -0.172155 2.50284 255 255 255
-0.0196336 -0.196216 2.49381 115 1 0
-0.0294577 -0.155801 2.50237 253 254 255
-0.00651238 -0.185583 2.48596 125 0 0
-0.00219201 -0.179045 2.48673 254 255 255
-0.0200511 -0.150208 2.50078 136 0 0
0.00615591 -0.173344 2.47889 119 1 1
-0.0110753 -0.127124 2.48611 123 0 3
0.0084434 -0.165911 2.48072 253 253 253
0.0124201 -0.169793 2.47822 247 247 249
0.0191145 -0.168619 2.47549 253 247 247
0.000597894 -0.119331 2.48316 249 249 251
-0.00692196 -0.076842 2.46495 83 0 1
0.0286608 -0.135992 2.46449 252 246 250
0.0279957 -0.122193 2.46754 85 1 0
0.0354612 -0.130414 2.46496 80 1 4
0.00282401 -0.0166742 2.45691 31 0 0
0.043988 -0.114149 2.45771 89 1 0
0.0346835 -0.092159 2.46003 95 0 1
0.0411232 -0.10522 2.45873 90 0 0
0.0258535 -0.0757707 2.46754 237 221 232
0.0266792 -0.0561234 2.45629 234 218 229
0.0539077 -0.117385 2.45362 235 236 241
0.0457142 -0.0856427 2.45087 238 237 243
0.0551881 -0.10557 2.45203 68 0 0
0.013897 -0.0129384 2.46635 253 251 255
0.0678388 -0.10434 2.44526 228 227 241
0.0849326 -0.118153 2.43595 255 254 255
0.0688764 -0.082637 2.44194 69 0 2
0.0812771 -0.104919 2.43687 76 0 0
0.0626721 -0.0540644 2.44162 226 193 220
0.0696892 -0.0620078 2.4386 73 0 2
0.0860472 -0.0851494 2.43293 64 0 0
0.0929748 -0.0971062 2.43124 90 0 0
0.0906561 -0.0876335 2.43028 238 227 243
0.0867355 -0.0781494 2.43248 226 221 228
0.0983784 -0.0879198 2.42527 228 219 236
0.0821032 -0.0390697 2.43009 58 0 0
0.0955335 -0.0665616 2.42646 53 0 0
0.0871965 -0.0476866 2.42812 57 1 0
0.104466 -0.0649466 2.42112 80 2 0
0.110706 -0.0753864 2.41925 225 198 207
0.118663 -0.085273 2.41489 58 0 0
0.117165 -0.0588603 2.41022 57 0 2
0.11999 -0.0627622 2.41028 201 177 199
0.133617 -0.0716285 2.403 41 0 0
0.13769 -0.0627988 2.40052 192 142 179
0.129657 -0.0111134 2.39593 36 1 0
0.103699 -0.0443447 2.48056 52 1 0
-0.0864477 -0.223339 2.5301 250 223 230
-0.0405539 -0.172771 2.50956 254 255 255
0.0399258 -0.110551 2.46448 94 0 0
0.0688187 -0.125776 2.44175 249 238 246
0.109637 -0.0787416 2.42325 225 198 207
-0.0104422 -0.172137 2.48763 254 255 255
0.187123 -0.0453732 2.4339 56 0 3
0.198919 -0.0589734 2.44383 101 1 3
0.201972 -0.0416597 2.42663 233 231 234
0.171844 -0.0595998 2.44858 231 225 225
0.191919 -0.0624408 2.44816 235 226 229
0.162738 -0.0782377 2.40833 154 104 107
0.18012 -0.0446836 2.46626 26 2 0
-0.0540774 -0.156794 2.48175 255 253 254
-0.00583323 -0.141945 2.48351 147 0 15
-0.0216469 -0.158989 2.47294 56 0 1
-0.00577927 -0.262146 2.42455 222 195 188
-0.0155571 -0.242133 2.40832 45 1 2
0.0611253 -0.210604 2.42591 254 254 252
0.0669541 -0.198272 2.42934 46 0 2
0.0646228 -0.184565 2.42102 152 109 128
0.0770994 -0.192316 2.43423 248 246 247
0.0781283 -0.181728 2.43454 197 169 192
0.0742509 -0.162573 2.42339 18 0 0
0.09973 -0.163448 2.44513 252 254 253
-0.00854126 -0.0574157 2.37252 1 1 1
0.100253 -0.15345 2.44565 191 168 176
0.100305 -0.143471 2.44276 101 28 39
-0.0116247 -0.0449637 2.37059 249 250 245
0.0808979 -0.10809 2.40754 6 0 2
0.110002 -0.138331 2.4479 204 150 164
0.102094 -0.127603 2.4356 16 0 0
0.082517 -0.0985728 2.40351 108 57 76
0.126227 -0.129953 2.46007 255 245 243
0.113424 -0.11456 2.44221 170 122 138
0.0932544 -0.0898144 2.41572 13 0 1
0.128819 -0.114412 2.45847 33 1 2
0.120501 -0.102704 2.44641 29 0 2
0.129104 -0.0946223 2.45041 178 131 151
0.123104 -0.0848006 2.44069 160 116 133
0.151164 -0.103523 2.47131 252 250 251
0.0712127 -0.0198595 2.40103 252 252 252
0.127137 -0.0652693 2.43717 20 0 0
0.138337 -0.0758974 2.45071 22 1 0
0.121886 -0.0481094 2.42043 62 2 1
0.143498 -0.066566 2.4497 33 0 0
0.153382 -0.0481117 2.45256 180 140 149
0.17781 -0.0704632 2.48391 253 251 255
0.150639 -0.0377843 2.44596 28 0 1
0.141988 -0.0233987 2.42591 131 83 81
0.156062 -0.0253829 2.44434 36 0 0
0.162234 -0.0312101 2.45194 36 0 0
0.181322 -0.0370826 2.47516 38 0 0
0.217119 0.0442515 2.45608 165 118 112
0.177031 -0.0834614 2.33299 26 2 0
0.187849 -0.0627835 2.36257 27 0 0
0.112765 -0.0809624 2.4619 160 116 133
0.111386 -0.0799826 2.49081 19 0 0
0.0315176 -0.190572 2.42612 99 62 70
0.0548341 -0.113701 2.43729 88 42 55
0.0779869 -0.145738 2.43978 122 74 100
0.0942906 -0.0561603 2.45329 114 71 80
0.121838 -0.0718693 2.45687 152 100 112
0.15348 -0.113879 2.4649 250 249 245
0.110572 -0.0165444 2.46086 124 64 74
0.137453 -0.0553282 2.46288 165 106 112
0.143681 -0.0232394 2.46766 154 104 107
0.17408 -0.0866862 2.47218 49 1 0
0.183655 -0.0804729 2.47664 90 0 0
