ply
format ascii 1.0
element vertex 42
property float x 
property float y 
property float z 
end_header
-0.174009 -0.104287 4.29604
-0.381393 -0.110093 4.2641
-0.636221 -0.121303 4.19812
-0.884713 -0.136222 4.10293
-1.11479 -0.158113 3.97556
-1.3494 -0.201112 3.80578
-1.65418 -0.188477 3.48622
-1.82805 -0.136158 3.1751
-1.91355 -0.073681 2.93773
-1.9595 -0.0443934 2.75956
-1.99421 -0.0113749 2.58579
-2.02308 0.0119771 2.38573
-2.03675 0.0255611 2.16825
-2.02962 0.0338427 1.94684
-1.99955 0.041025 1.72005
-1.94558 0.0427 1.49564
-1.86712 0.0434926 1.28072
-1.76396 0.0413809 1.06782
-1.63698 0.0354882 0.865372
-1.49233 0.0395514 0.693107
-1.32593 0.0360794 0.530024
-1.13743 0.0368462 0.388185
-0.924391 0.0268555 0.257539
-0.702764 0.0226944 0.151819
-0.472964 0.0164501 0.0718852
-0.23777 0.00987275 0.0217714
0 0 0
0.223388 -0.000112546 0.0157762
0.435587 -0.00937507 0.043865
0.631766 -0.013154 0.0929153
0.806805 -0.00953667 0.160026
0.968191 0.00657321 0.250125
1.11569 0.0366726 0.35754
1.24007 0.0924244 0.475102
1.32209 0.161002 0.566647
1.74402 0.242391 1.16475
-1.81172 -0.225849 -2.7491
-1.9597 -0.237208 -2.16875
0.820487 -0.146934 4.1526
0.580743 -0.154693 4.24288
0.321561 -0.114341 4.28806
0.0674919 -0.0982323 4.30315
