ply
format ascii 1.0
element vertex 32
property float x 
property float y 
property float z 
end_header
1.74725 0.0348735 2.65906
1.77246 0.0309561 2.64235
1.79926 -0.0113058 2.62441
1.8094 -0.0564417 2.63685
-7.46405 6.01405 89.7965
-2.90847 0.0454744 4.21674
0.951147 -0.353847 -3.07034
-1.54511 -2.28719 -1.31369
-0.970839 -1.89403 -2.40721
-1.69839 0.0115064 -2.03283
-1.21586 0.00457557 -2.31319
-0.711631 0.0038946 -2.49046
-0.213618 0.00354075 -2.57058
0.302138 0.000927488 -2.56261
0.793441 0.00425397 -2.46829
1.24912 0.0062783 -2.29744
1.66129 0.00342691 -2.05981
2.03233 0.00494123 -1.75543
2.32897 -0.000773279 -1.42121
2.58931 0.00636527 -1.01166
2.78341 0.00876443 -0.547674
2.90336 0.0139258 0.00640709
2.92017 0.0199641 0.481474
2.83101 0.0282501 1.07301
2.66804 0.0324781 1.53911
2.53163 0.0329794 1.80216
2.13543 0.0339091 2.31267
1.59665 0.0353711 2.75218
1.6035 0.0391481 2.74814
1.65602 0.0414635 2.71678
1.68358 0.0251677 2.69999
1.71654 0.0347747 2.67902
