ply
format ascii 1.0
element vertex 31
property float x 
property float y 
property float z 
end_header
-1.94732 -0.192256 3.06284
-1.97309 -0.112017 2.9012
-1.99647 -0.0704068 2.7568
-2.01871 -0.0431047 2.60259
-2.039 -0.0192877 2.42435
-2.04951 -0.00128569 2.23884
-2.04656 0.0119719 2.04174
-2.02569 0.0222339 1.82991
-1.98422 0.0271541 1.61464
-1.91997 0.0296688 1.40257
-1.83262 0.0327111 1.19866
-1.72136 0.0249492 0.986898
-1.59288 0.0256446 0.80615
-1.44507 0.023811 0.638914
-1.28288 0.0192325 0.483993
-1.10924 0.0239785 0.358961
-0.906258 0.0191412 0.235905
-0.701999 0.0185126 0.146459
-0.46949 0.0116295 0.0659237
-0.230837 0.00590944 0.0188294
0 0 0
0.224508 0.00395454 0.0205193
0.436383 -0.00841053 0.0451522
0.631282 -0.0104334 0.0953605
0.806805 -0.00953667 0.160026
0.968191 0.00657321 0.250125
1.11664 0.0351145 0.358128
1.23836 0.0932365 0.468481
1.34293 0.187738 0.592597
1.56726 0.241623 0.921701
-1.81016 -0.286749 -2.79741
