ply
format ascii 1.0
element vertex 31
property float x 
property float y 
property float z 
end_header
-0.0448058 1.67866 8.07128
1.07926 -0.690839 1.49394
-1.21127 -0.00534396 -3.93248
0.734287 0.00159076 -4.24552
1.05839 0.000275171 -4.07361
0.71807 -0.0944316 -4.08453
0.735019 -0.0301777 -4.00073
0.746802 -0.0466417 -3.95728
0.959536 -0.0607461 -3.77709
1.02119 -0.04562 -3.68399
1.3364 0.0635727 -3.08589
1.35926 0.0534574 -2.70831
-0.668427 0.0386471 1.53077
-0.491934 0.0464955 1.47241
-0.24103 0.0468589 1.41058
0.0409408 0.0426298 1.38764
0.312078 0.041107 1.4162
0.509451 0.0431552 1.46961
0.757396 0.0405825 1.57734
0.954722 0.0442561 1.70432
1.13145 0.0429872 1.85426
1.27262 0.0464978 2.01376
1.38435 0.0540971 2.18597
1.50053 0.056328 2.4323
1.57583 0.0702924 2.76628
1.58675 0.0733622 3.08375
1.5681 0.073612 3.27163
-1.60282 -0.0678769 -2.78942
1.58173 -0.0181534 3.77888
1.40137 -0.0147557 4.06899
47.9949 29.9731 729.964
