ply
format ascii 1.0
element vertex 35
property float x 
property float y 
property float z 
end_header
1.3405 -0.0310356 -3.87911
0.235406 -0.127104 -3.11245
0.863749 -0.0223379 -4.13828
-1.51387 0.0540905 0.143314
-1.61325 0.0392501 0.234309
-1.46114 0.167549 -0.890507
-1.70902 0.176802 -0.615236
-1.43231 -0.273633 2.11394
-1.39296 -0.251442 2.14471
-1.35482 -0.238335 2.17672
0.0382059 -0.0712891 2.98331
-0.768432 -0.0713626 2.80564
-1.50172 -0.0806206 2.06972
-1.68799 -0.0830504 1.35478
1.68678 0.0624743 -1.29078
1.64751 0.0337107 -1.63294
1.67712 0.0355348 -1.38438
1.66218 0.0244213 -1.48697
1.49942 0.00634263 -2.00564
-0.168849 -0.0995337 -2.93062
-0.793769 0.0279858 -0.205268
-0.331573 0.0489895 -0.365257
-0.199668 0.0760083 -0.373818
0.381055 0.0793462 -0.340166
1.13571 0.0887224 0.0559187
1.60084 0.0876594 0.797617
1.62027 0.0917101 1.72937
1.64864 0.0877423 1.61883
0.976736 0.111444 2.67268
-0.132068 0.15544 2.98181
1.33583 -0.245136 0.344903
1.05431 -0.184131 -0.0316337
-2.95442 2.07353 82.5796
0.651099 -0.155894 -2.99049
-1.61518 -0.311879 0.213759
