ply
format ascii 1.0
element vertex 48
property float x 
property float y 
property float z 
end_header
0.907589 0.0877045 4.01356
0.543126 0.101531 4.14857
0.197928 0.105893 4.20758
-0.0421738 0.104771 4.21625
-0.317831 0.105026 4.19009
-0.583429 0.106225 4.13161
-0.837892 0.107859 4.03651
-1.08358 0.101913 3.90407
-1.30416 0.10321 3.74525
-1.49635 0.101559 3.56279
-1.66112 0.10524 3.36149
-1.79087 0.103809 3.15778
-1.89825 0.0925775 2.94716
-1.98932 0.0767194 2.70805
-2.05151 0.0651853 2.45239
-2.08087 0.0585592 2.16835
-2.07022 0.0553634 1.8803
-2.02036 0.0529226 1.60043
-1.93441 0.0505026 1.33322
-1.81284 0.0484998 1.07975
-1.66056 0.043876 0.846981
-1.48073 0.045894 0.641821
-1.2662 0.0328554 0.445191
-1.03305 0.0262543 0.288472
-0.782756 0.019551 0.163215
-0.522698 0.0106411 0.0713002
-0.261301 0.00380872 0.0177236
0 0 0
0.257221 -0.000494794 0.0150748
0.507132 -0.000179286 0.0623633
0.746527 0.00245495 0.138992
0.970443 0.00530615 0.241273
1.18219 0.00907299 0.372009
1.37447 0.0148774 0.524704
1.54969 0.0234896 0.701704
1.708 0.0372453 0.90591
1.8532 0.0532347 1.15304
1.96884 0.0593719 1.42436
2.05174 0.0653759 1.73186
2.08717 0.0642624 2.04731
2.08047 0.0710658 2.31484
2.03318 0.0729466 2.59834
1.95838 0.077377 2.84864
1.85724 0.0814678 3.07975
1.7262 0.084556 3.30056
1.56884 0.0866051 3.50637
1.37047 0.0893508 3.70927
1.16003 0.0774082 3.87433
