ply
format ascii 1.0
element vertex 41
property float x 
property float y 
property float z 
end_header
694.342 3635.93 -39223.4
-4.5106 -4.94887 -8.65456
-4.98484 0.326466 -3.38953
-4.00427 -5.18929 -9.65039
-4.07037 -5.11625 -10.8878
-1.48882 4.75588 13.8351
-3.28037 -2.07523 -18.6801
16982.8 -11397.1 -221960
-3.27755 -2.61486 15.6632
4.20826 2.17919 9.04308
2.29271 8.58582 -108.598
1.08189 6.2153 1.60325
-7.13794 0.237334 10.4801
-7.40502 0.191306 9.51474
-7.5434 0.199857 8.48773
-7.55754 0.181045 7.43996
-7.43166 0.157262 6.38007
-7.16872 0.113171 5.33139
-6.77788 0.0969468 4.3385
-6.29295 0.0637299 3.45343
-5.71673 0.0163993 2.65208
-5.09032 0.00392155 1.98454
-4.3887 0.00204646 1.40816
-3.62273 -0.0152839 0.917693
-2.7882 -0.0160253 0.5177
-1.91374 -0.0160669 0.241549
-0.97878 -0.0195601 0.0516827
0 0 0
0.996964 0.0166774 0.0760611
2.00492 0.0300305 0.282269
1.99934 8.36129 32.144
5.2031 -2.13812 42.5808
20.2132 0.166305 159.277
4.06156 10.5506 64.5638
-9.58721 -7.40436 -123.371
-1.75716 6.02316 31.9813
-565052 -312251 -4.38977e+06
5.30022 2.38718 28.7882
-12.7265 -8.24894 118.304
24.1737 14.6331 -193.186
6.98626 -0.150192 9.96362
