ply
format ascii 1.0
element vertex 1018
property float x
property float y
property float z
property uchar red
property uchar green
property uchar blue
end_header
-0.875776 0.67544 6.04628 28 35 39
-0.872805 0.642196 6.07021 150 159 159
-0.826278 0.630409 6.09097 139 140 141
-0.600108 0.106415 6.56076 89 57 49
-0.54967 0.434651 6.45524 141 150 151
-0.542995 0.443994 6.44417 73 79 85
-0.534078 0.44713 6.43244 162 162 163
-0.529563 0.405812 6.47085 68 51 49
-0.527211 0.381248 6.47091 59 52 56
-0.527211 0.381248 6.47091 59 52 56
-0.523474 0.461339 6.4323 30 36 40
-0.523474 0.461339 6.4323 30 36 40
-0.523148 0.424181 6.45775 60 84 119
-0.514273 0.420574 6.45867 254 254 254
-0.364455 0.316914 6.37032 31 38 42
-0.342595 0.304669 6.35798 53 54 57
-0.332749 0.251543 6.37922 105 53 54
-0.320629 0.290342 6.3816 162 162 163
-0.262384 0.23845 6.46151 103 65 68
-0.231956 -0.214414 6.75849 128 68 43
-0.221018 -0.27515 6.81029 136 71 41
-0.129212 -0.538564 7.05466 57 44 41
-0.0767126 -0.348816 6.97443 146 109 84
-0.0547963 -0.297757 6.95971 147 118 102
-0.051736 -0.323228 6.98238 30 36 40
-0.051736 -0.323228 6.98238 30 36 40
-0.0163632 -0.284296 6.96888 170 129 104
-0.00112669 -0.224571 6.92643 184 110 65
0.0712503 0.401084 6.69643 75 42 37
0.0993439 0.0741068 6.64468 29 35 40
0.112962 -0.305091 7.09088 61 50 53
0.129654 0.029412 6.63891 30 35 42
0.130259 0.00682523 6.63727 128 146 155
0.131947 -0.00169417 6.62761 78 96 120
0.158066 0.0759918 6.65119 95 108 113
0.161489 -0.0417592 6.67819 82 84 87
0.160971 0.705691 6.59157 97 52 49
0.185016 -0.64958 7.39882 74 57 45
0.189786 -0.642835 7.40303 68 53 42
0.172591 0.0735586 6.63707 138 148 150
0.202384 -0.65966 7.39534 194 159 144
0.209553 -0.502427 7.31791 208 188 183
0.192335 0.0667411 6.66048 32 38 42
0.193843 0.0226805 6.67567 27 33 38
0.219726 -0.615921 7.3851 137 95 73
0.201525 0.0526504 6.67698 140 158 168
0.229217 -0.65038 7.40418 53 39 41
0.236086 -0.190817 7.06232 216 212 203
0.250003 -0.672273 7.43639 198 151 127
0.248579 -0.500086 7.33104 116 61 57
0.234741 0.705543 6.6153 102 54 50
0.272381 -0.285439 7.18578 73 65 59
0.276829 -0.302952 7.18623 171 141 114
0.293639 -0.325169 7.22686 171 126 102
0.280508 0.399011 6.83532 148 77 47
0.280154 0.699946 6.66954 108 56 52
0.344153 0.270882 6.91074 29 24 34
0.36134 0.0395997 7.02981 51 35 41
0.355407 0.35238 6.89805 42 42 52
0.370959 0.162443 6.98152 126 76 57
0.388179 0.349844 6.9346 18 18 28
0.388179 0.349844 6.9346 18 18 28
0.39925 0.231787 6.99972 56 42 40
0.400753 -0.239829 6.86572 196 192 181
0.4031 -0.219284 6.86581 105 114 107
0.422402 0.216275 7.05808 128 95 76
0.423164 -0.202761 6.85954 106 116 108
0.425573 -0.222541 6.87696 199 195 179
0.436996 -0.205956 6.86037 232 232 232
0.451637 0.583403 6.85862 52 31 36
0.473965 0.169629 7.11865 147 118 118
0.481288 0.0367224 7.15268 44 37 42
0.46194 -0.140607 6.85473 102 111 104
0.469644 -0.159818 6.8612 239 239 240
0.550722 0.244126 7.13759 162 133 127
0.566416 0.212399 7.16913 41 26 33
0.566416 0.212399 7.16913 41 26 33
0.555695 0.493488 6.99623 65 48 41
0.55622 0.514591 6.98744 150 122 112
0.784731 0.286325 7.33886 158 167 167
0.785564 0.285792 7.34223 158 167 167
0.785564 0.285792 7.34223 158 167 167
0.797114 0.210117 7.34945 94 50 48
0.802829 0.270207 7.34154 76 54 41
0.805462 0.249574 7.32928 174 143 128
0.815635 0.266506 7.33498 83 59 46
0.82572 0.224516 7.36525 193 169 158
0.84416 0.228516 7.37212 104 74 62
1.06215 0.0757753 7.63823 180 152 136
1.3859 -0.901536 8.68712 156 156 157
1.3859 -0.901536 8.68712 156 156 157
1.43597 -0.898604 8.71859 144 167 184
1.43537 -0.930966 8.68861 184 184 185
1.47972 -0.796059 8.53891 42 50 59
1.56026 -0.698565 8.98333 39 48 52
1.56367 -0.686111 8.97759 149 171 186
1.56367 -0.686111 8.97759 149 171 186
1.56968 -0.73573 8.77709 146 168 183
1.59755 -0.664382 8.81126 28 36 40
1.58619 -0.742852 8.73276 149 170 186
1.68235 -0.959849 9.01581 144 102 84
0.977548 0.115358 7.54568 117 66 58
-0.552629 0.35365 6.48621 80 100 129
-0.540857 0.375454 6.4714 143 156 160
-0.532282 0.358037 6.46523 57 45 47
-0.523924 0.423831 6.44735 61 84 119
-0.502216 0.449457 6.46894 146 159 164
-0.458316 0.432174 6.46511 95 106 109
-0.448677 0.451761 6.49442 38 46 51
-0.330595 0.254079 6.39982 102 53 54
-0.235349 0.442292 6.404 51 34 41
0.0169536 0.166487 6.60344 151 75 50
0.224109 0.0520047 6.69992 29 36 41
-0.0549026 -0.297577 6.97113 164 130 102
-0.051366 -0.358558 7.00371 159 112 83
-0.0163975 -0.285653 6.98959 174 135 111
-0.0175627 -0.3273 7.00408 164 125 98
0.0501187 -0.21926 6.94744 169 108 79
0.123442 0.696132 6.54363 99 50 48
0.145764 -0.0422584 6.68587 80 83 85
0.161178 -0.0401878 6.66657 86 88 90
0.171626 -0.0139517 6.67453 44 48 53
0.175877 0.496098 6.66695 82 44 36
0.183723 0.0449229 6.66169 28 34 38
0.186431 0.076761 6.6414 34 41 45
0.184698 0.0200418 6.67141 146 164 173
0.185843 -0.0228703 6.68825 62 65 69
0.139381 -0.264211 7.08837 170 147 146
0.208127 0.0152241 6.69154 36 40 45
0.156237 -0.565534 7.41098 60 49 51
0.177468 -0.64323 7.40925 149 170 185
0.315125 0.251895 6.9005 148 92 63
0.339532 0.321104 6.90298 43 37 39
0.347149 0.0108328 7.03297 87 45 45
0.390094 -0.256039 6.88723 149 78 56
0.433403 -0.181769 6.85311 102 111 103
0.431863 -0.235993 6.88051 135 73 55
0.422278 0.122452 7.05276 136 80 55
0.430953 -0.0265858 6.97109 100 56 51
0.452536 0.582202 6.87164 51 31 36
0.45608 -0.183412 6.86164 189 185 169
0.464142 -0.200577 6.86696 134 73 56
0.449309 0.189518 7.07592 141 107 106
0.489646 -0.155965 6.87952 133 69 49
0.501872 0.0504831 7.16461 89 64 56
0.52333 0.0480283 7.18319 38 31 36
0.806823 0.249516 7.34158 175 144 131
1.58098 -0.712887 8.75629 149 170 186
1.59303 -0.661641 8.78644 28 35 40
1.5936 -0.745714 8.77373 149 171 186
1.6627 -0.802238 8.96043 112 75 64
1.6752 -0.956298 8.97749 131 93 78
-0.0148917 -0.28525 6.97915 174 135 111
0.433025 -0.167248 6.85634 103 112 105
0.445242 -0.232806 6.87953 142 75 56
-0.531856 0.36348 6.44587 56 75 96
-0.491764 0.427536 6.42632 47 65 89
-0.358959 0.299286 6.35626 127 87 73
-0.341852 0.314402 6.33869 122 83 71
-0.229374 -0.216111 6.74342 127 70 51
-0.218364 -0.27694 6.79693 136 72 41
-0.148152 -0.552204 7.0621 231 225 224
-0.0309387 -0.346708 7.00566 150 113 86
0.100549 0.0761286 6.62681 26 33 38
0.161069 0.702529 6.57618 98 50 46
0.158634 0.0357715 6.61898 83 106 130
0.150734 -0.0608293 6.69432 202 204 208
0.165918 0.0871946 6.63807 33 41 45
0.156374 -0.0498421 6.6886 87 89 91
0.170177 -0.0587841 6.70331 135 68 47
-0.0382373 -0.47081 7.64735 152 172 186
0.251464 -0.23175 7.03634 157 93 72
0.275263 -0.304579 7.19744 172 142 116
0.227038 -0.651337 7.42178 52 35 39
0.342105 0.276428 6.93232 33 29 38
0.38747 0.349549 6.94781 21 23 33
0.414402 -0.223538 6.86113 207 203 190
0.381452 0.042055 7.04853 119 128 119
0.443169 -0.189776 6.85754 191 187 172
0.420375 -0.0105439 6.98567 136 140 129
0.460089 -0.124436 6.84772 109 119 111
0.429291 -0.00172923 6.99622 124 133 124
0.341421 -0.574777 7.44628 123 68 44
0.453416 -0.0479275 6.94735 125 134 125
0.481319 -0.138578 6.86946 161 161 146
0.504258 -0.148553 6.86461 140 74 50
0.487526 0.0707179 7.13475 123 90 67
0.501116 0.0504211 7.17596 83 58 56
0.522405 0.0484075 7.19767 38 30 36
0.561773 0.526034 6.99966 84 57 44
0.549123 0.242445 7.154 159 126 118
0.568169 0.1945 7.19221 56 38 40
0.642789 0.412735 7.62449 158 167 167
0.70068 -0.385087 7.38706 105 106 109
0.964343 0.130272 7.54325 116 64 55
1.36269 -0.887696 8.76845 32 40 45
1.50136 -0.765145 8.58057 43 49 56
1.56028 -0.922742 9.00996 90 57 51
1.56347 -0.945743 9.03576 144 167 184
1.59727 -0.662944 8.84702 28 35 39
1.66866 -0.808074 9.03794 101 62 50
1.69022 -0.827284 8.99942 92 51 40
1.69367 -0.857476 9.00786 100 67 59
0.165528 0.00624149 6.65533 36 40 46
0.356192 0.353612 6.91335 42 42 51
1.36164 -0.658447 8.40403 149 171 186
1.38071 -0.928298 8.72495 52 56 60
1.58863 -0.716063 8.79867 148 170 186
1.67927 -0.956575 8.99964 135 96 78
-0.876008 0.672279 6.03664 29 35 39
0.418685 0.21742 7.0398 138 105 80
-0.0461935 0.175973 6.67412 140 66 40
-0.0748342 -0.349124 6.96207 150 115 87
0.104515 0.0765481 6.61286 26 33 37
-0.0761336 -0.456105 7.04477 143 102 97
0.161579 0.0553736 6.63404 27 34 39
0.160087 0.0880978 6.6594 33 41 45
0.162843 -0.0279416 6.66186 62 65 69
0.162522 -0.0168708 6.66355 140 159 168
0.153935 -0.0407583 6.69779 86 87 90
0.173577 -0.0138216 6.66226 45 49 54
0.18704 0.0449443 6.64398 28 35 39
0.19037 0.00855881 6.65627 29 36 41
0.186819 -0.0123135 6.69991 51 54 59
0.2126 0.0231809 6.68258 31 37 42
0.0547512 -0.106635 7.36446 146 75 51
0.337468 0.321571 6.9169 44 40 43
0.179875 -0.63716 7.39272 148 167 183
0.204259 -0.658243 7.38088 198 172 161
0.337021 -0.0108247 7.03292 109 56 50
0.367238 0.149664 6.99414 140 77 50
0.357833 -0.0131654 7.02415 206 200 186
0.436128 -0.18215 6.84097 106 115 109
0.371801 -0.0081731 7.02279 96 105 99
0.460681 -0.182406 6.84567 186 182 166
0.464599 -0.141467 6.84192 107 117 110
0.445114 -0.0230841 6.96107 118 61 50
0.48459 -0.138681 6.85433 160 159 145
0.494782 -0.15378 6.86012 134 68 48
0.485183 0.555252 6.92752 141 108 100
0.488901 -0.062596 7.00122 117 61 50
0.485912 0.0271617 7.1587 50 42 46
0.55421 0.514445 7.00398 143 118 111
0.553612 0.494567 7.01053 56 41 41
0.558371 0.526993 7.0166 87 57 43
0.59386 -0.270025 7.13128 38 46 51
0.795964 0.210589 7.36678 95 49 44
0.823257 0.223783 7.39081 179 149 137
1.38602 -0.763278 8.3963 91 93 96
1.38055 -0.773106 8.48114 90 92 95
1.36425 -0.883332 8.74447 35 45 50
1.40091 -0.686197 8.69117 148 170 185
1.41561 -0.68984 8.68677 89 55 48
1.48523 -0.736041 8.58785 58 38 40
1.53264 -0.698226 8.81065 149 170 186
1.54983 -0.704829 8.79508 36 45 51
1.55487 -0.694169 8.79843 148 170 186
1.55013 -0.908409 8.97901 144 165 182
1.56086 -0.923216 8.99615 83 53 48
1.56539 -0.941798 8.98772 145 165 182
1.59771 -0.954203 8.99616 224 211 208
1.67819 -0.959698 9.04053 133 95 77
1.70223 -0.914601 8.99962 155 106 81
0.0725974 0.406262 6.67965 74 40 33
0.280773 0.400914 6.84558 151 77 40
0.239868 -0.15406 7.04122 86 50 48
0.424899 -0.20208 6.84556 112 122 115
-0.222238 0.403325 6.41396 66 34 31
-0.136998 0.233173 6.53862 107 72 74
0.0349429 0.22575 6.6428 145 67 42
0.126157 0.0763227 6.56385 26 33 38
0.137786 0.0281502 6.61953 30 35 42
0.152604 0.0398025 6.63071 123 146 164
-0.0687134 -0.295235 6.99738 171 137 109
-0.0574802 -0.326887 6.99763 31 35 38
0.198332 0.710682 6.59835 114 60 57
0.170738 0.0455545 6.68226 28 34 39
0.178206 0.0331855 6.67323 27 33 38
0.196364 0.0213032 6.66329 26 32 38
0.19114 -0.0135173 6.68968 53 56 61
0.236531 0.702818 6.62743 104 53 47
0.276578 0.403161 6.85612 161 81 39
0.423192 -0.169484 6.86597 113 122 117
0.424362 -0.231893 6.86848 225 223 219
0.377447 -0.0104461 7.00763 102 111 106
0.44223 0.537195 6.9334 66 36 33
0.421828 -0.0178583 6.99243 149 150 136
0.433678 -0.0274124 6.98566 99 56 50
0.488783 -0.08529 6.88989 137 146 137
0.309468 -0.310491 7.23433 195 173 167
0.424227 0.220691 7.02204 141 106 79
0.496088 -0.147779 6.88747 146 78 55
0.433829 0.120747 7.02106 145 84 57
0.363839 0.684299 7.30115 157 166 166
0.48012 0.0418588 7.16987 48 40 44
0.504943 0.137813 7.18498 119 86 62
0.545562 -0.307751 7.169 39 48 53
0.588994 -0.273816 7.14593 40 48 53
0.609845 -0.320887 7.12739 177 177 178
0.589501 0.425325 7.63368 71 50 45
0.740717 0.196744 7.3453 150 117 91
0.81151 0.269456 7.35977 80 57 43
0.969674 -0.622558 7.95084 148 170 185
1.07479 -0.0252438 7.74933 120 71 60
1.35982 -0.692867 8.64948 110 76 55
1.37477 -0.929882 8.78075 81 83 86
1.39798 -0.688456 8.7084 147 169 184
1.41248 -0.6923 8.70538 92 57 48
1.42106 -0.892102 8.74349 116 117 119
1.47771 -0.800629 8.5807 63 66 71
1.48882 -0.783627 8.58278 65 69 73
1.48147 -0.738796 8.6111 62 41 42
1.49686 -0.756579 8.60402 152 159 160
1.50415 -0.780195 8.58991 170 175 183
1.43558 -0.965905 8.91234 68 70 74
1.48698 -0.838514 8.79429 65 54 55
1.511 -0.741377 8.73469 30 37 42
1.50716 -0.736096 8.75199 69 67 68
1.46269 -0.931432 8.96729 37 45 49
1.49282 -0.862577 8.93462 72 57 57
1.52321 -0.737764 8.83394 108 85 78
1.53585 -0.696218 8.78942 147 169 185
1.54677 -0.707194 8.81549 36 45 50
1.55291 -0.696943 8.81159 147 169 185
1.54572 -0.891826 9.01498 53 40 44
1.59215 -0.66596 8.87919 27 34 39
1.60531 -0.623285 8.91678 149 171 185
1.59211 -0.960328 9.03603 231 222 220
1.60963 -0.867044 9.01116 90 53 42
1.67652 -0.961872 9.05331 139 100 80
1.69582 -0.921346 9.04967 155 107 82
-0.0589636 -0.295153 6.98132 171 137 109
0.97757 -0.622638 7.9299 148 170 185
1.05972 -0.425392 7.9664 153 172 186
1.39336 -0.747516 8.2818 92 94 97
-0.496384 0.470186 6.4616 100 117 125
-0.0691589 0.599686 6.46295 100 51 43
0.0519392 0.224678 6.61572 120 59 41
0.118273 0.697633 6.55494 103 54 51
0.107124 -0.0318698 6.63517 64 86 120
0.077064 0.416833 6.67155 76 39 31
0.171973 0.0074981 6.6405 34 39 45
-0.135971 -0.519084 7.0489 102 66 66
0.182248 -0.000507738 6.65313 38 43 49
0.172088 -0.0367764 6.67293 77 80 84
-0.136045 -0.556938 7.06358 209 193 188
0.185616 0.0341103 6.66088 26 33 38
0.18632 0.0196236 6.66141 148 167 176
0.20594 0.0145135 6.67043 42 46 49
-0.0818647 -0.455661 7.05615 149 113 107
0.216533 0.0282147 6.69627 31 37 44
0.292257 0.402073 6.82833 161 82 39
0.44512 -0.190368 6.84761 192 188 173
0.447124 0.567585 6.88381 48 29 33
0.442129 -0.111452 6.90753 137 152 156
0.447271 0.375214 6.98777 162 85 47
0.213673 -0.641909 7.39434 83 62 57
0.358103 0.686958 7.31242 158 166 166
0.612866 -0.238089 7.15691 28 34 41
0.625839 -0.215438 7.1415 220 221 223
0.929383 -0.575798 7.88131 56 42 43
1.33941 -0.695736 8.62615 147 169 185
1.34424 -0.70008 8.70267 109 78 57
1.36808 -0.883803 8.73177 33 43 48
1.38571 -0.923986 8.74253 79 82 85
1.46095 -0.739127 8.61415 124 96 76
1.43737 -0.953797 8.74123 149 149 150
1.51773 -0.761887 8.63138 166 99 66
1.52877 -0.76789 8.64833 184 117 75
1.43872 -0.963015 8.90097 72 75 78
1.52707 -0.78305 8.70147 191 127 90
1.49897 -0.834219 8.82532 52 60 73
1.45475 -0.950068 8.97503 160 160 161
1.55356 -0.73919 8.7867 14 21 31
1.50969 -0.819636 8.91922 137 153 161
1.54529 -0.759826 8.92302 30 37 40
1.54822 -0.89348 9.0051 56 42 46
1.55096 -0.7659 9.05455 108 81 71
1.60764 -0.699097 9.07575 34 42 47
1.63112 -0.673805 9.08605 148 170 185
1.65514 -0.839907 9.06261 111 80 69
0.052717 0.66952 6.50202 115 53 46
0.0414848 0.225295 6.62829 120 59 41
-0.112549 0.324059 6.8513 99 48 34
0.484118 -0.146183 6.86286 165 164 150
0.507681 -0.123532 6.86917 212 214 216
0.622237 -0.195567 7.19374 28 34 39
1.37817 -0.92716 8.7609 79 82 85
0.347413 0.281414 6.9101 55 45 48
1.39706 -0.737531 8.2242 94 96 98
1.39164 -0.749923 8.3087 95 97 99
1.39001 -0.753547 8.33395 94 96 98
1.38827 -0.757493 8.36121 94 96 98
1.38493 -0.765136 8.41325 89 92 94
1.37765 -0.781675 8.52698 89 91 94
1.48187 -0.799162 8.57034 75 78 81
-0.517688 0.46413 6.40904 28 35 39
-0.537909 0.465465 6.42966 29 36 39
-0.5233 0.453472 6.45031 144 156 160
-0.510679 0.473929 6.47646 100 118 128
-0.500342 0.466684 6.49547 101 113 118
-0.146007 0.231379 6.54781 108 69 71
0.098247 -0.0263415 6.64844 124 138 146
0.088902 0.419499 6.65719 80 40 31
0.183055 0.00708949 6.66734 29 35 41
-0.070304 -0.257481 6.92359 193 161 147
-0.0547254 -0.242053 6.92717 193 152 135
0.199925 0.00650637 6.7016 33 41 51
0.219326 0.0418187 6.70444 33 38 46
-0.143179 -0.543328 7.0695 52 41 41
-0.147755 -0.558715 7.07824 213 199 194
-0.0954319 -0.456734 7.07334 147 110 105
0.0157767 -0.288574 6.96487 186 149 133
0.347589 0.355279 6.89095 148 115 85
0.418149 -0.233222 6.8777 205 202 189
0.50922 -0.126702 6.87861 222 223 224
0.447123 0.205834 7.0521 142 106 80
0.501485 0.0376931 7.18139 135 111 98
0.512472 0.134607 7.17445 118 84 60
0.578891 -0.310403 7.15886 214 214 214
0.582174 -0.279823 7.15658 48 58 64
0.589334 -0.271506 7.15913 23 30 38
0.334846 -0.576135 7.45728 125 72 49
0.638979 -0.226094 7.16117 232 233 234
0.818541 0.269298 7.34928 76 58 43
0.766134 -0.394695 7.42588 116 117 119
1.02464 -0.437687 7.91787 60 48 45
1.01801 -0.451302 7.94586 127 96 76
1.34855 -0.701111 8.6923 115 81 62
1.39069 -0.92291 8.73043 71 73 77
1.50437 -0.764558 8.56276 32 38 42
1.44242 -0.941541 8.73007 149 150 151
1.53725 -0.777989 8.66825 191 128 89
1.51567 -0.741612 8.72236 30 37 40
1.48599 -0.836393 8.80521 61 51 51
1.54492 -0.790927 8.72599 196 133 93
1.50434 -0.832645 8.81159 37 43 53
1.54691 -0.743792 8.80394 13 20 31
1.50001 -0.82448 8.94438 150 128 135
1.54333 -0.880562 8.94973 142 165 183
1.53038 -0.882821 8.98403 143 166 183
1.61784 -0.657635 9.01469 21 29 38
1.66777 -0.898013 8.95832 147 76 46
1.68062 -0.824681 8.97623 110 80 68
1.685 -0.821763 8.99114 83 43 34
-0.514626 0.452136 6.44337 144 156 160
-0.0875992 -0.456745 7.06562 147 110 105
0.0268655 -0.595821 7.23219 148 169 184
0.427591 0.122915 7.03302 142 84 58
0.613835 -0.218805 7.1664 231 232 233
1.00807 0.0976906 7.59948 107 65 56
-0.0224568 -0.288781 7.00255 186 149 133
0.491343 -0.155539 6.8696 153 85 60
1.13335 -0.623511 8.0102 130 131 133
-0.369572 0.281584 6.39085 156 120 91
-0.31006 0.50532 6.3836 158 166 166
-0.311707 0.347308 6.39518 100 72 74
0.116648 0.020936 6.60902 36 41 48
0.110565 -0.0242151 6.6291 114 136 147
0.146672 0.00418866 6.61516 123 139 147
0.196817 0.0435014 6.63937 27 34 39
0.197202 0.0184802 6.65218 147 166 175
0.215373 0.0518721 6.65868 140 159 168
0.217488 0.0393716 6.65974 50 61 73
0.187156 -0.0330179 6.69298 31 40 50
0.204336 -0.0116112 6.68821 33 40 50
0.210734 0.00424461 6.69112 33 39 49
0.235755 0.0518125 6.68549 27 33 38
0.359298 0.354234 6.8788 148 115 89
0.353705 0.288415 6.90206 50 42 44
0.408114 0.351981 6.92462 31 27 35
0.416058 -0.162558 6.94979 155 87 56
0.380496 0.14898 6.98169 139 77 50
0.374124 0.0381593 7.02136 51 33 38
0.386959 0.0459625 7.03267 125 134 125
0.392012 0.0333131 7.03912 111 120 111
0.454386 0.206431 7.04416 143 106 80
0.455113 0.195778 7.04762 34 42 47
0.499126 0.0709354 7.12694 124 92 69
0.512598 0.0384714 7.16879 133 108 94
0.528394 0.134742 7.15635 128 77 53
0.563005 0.239624 7.1347 141 103 101
0.572115 -0.284651 7.14986 164 100 78
0.584368 -0.292528 7.14482 36 41 48
0.603468 -0.272134 7.14282 25 28 35
0.581556 0.191188 7.17868 47 32 37
0.40942 0.533413 7.51536 158 166 166
0.821671 0.248792 7.32117 183 156 143
0.819264 0.211407 7.33491 93 49 45
0.777047 -0.285371 7.55855 136 103 98
0.714638 -0.0853293 7.63651 88 47 34
1.03842 -0.448867 7.87999 113 88 75
1.12542 -0.609874 7.95515 147 148 149
1.30313 -0.718253 8.26035 104 106 108
1.48977 -0.820847 8.56274 224 223 223
1.5123 -0.76359 8.54817 32 38 43
1.42725 -0.89386 8.72441 106 107 110
1.48935 -0.811301 8.68762 152 162 172
1.4571 -0.84958 8.75274 70 53 53
1.52666 -0.735462 8.7059 40 49 53
1.55343 -0.771017 8.67481 95 67 54
1.5464 -0.699734 8.77328 146 168 185
1.56026 -0.707193 8.78359 36 45 50
1.44316 -0.930127 8.98812 32 39 44
1.5051 -0.838371 8.90879 63 50 50
1.48504 -0.89846 8.95551 141 165 183
1.58273 -0.657298 8.81193 31 38 44
1.62011 -0.706216 8.76788 30 36 42
1.52293 -0.902679 8.95295 141 164 182
1.53549 -0.882264 8.97397 142 166 183
1.5824 -0.712008 9.00769 25 31 36
1.59806 -0.734118 9.00642 145 168 184
1.54635 -0.760004 9.09314 108 78 66
1.59976 -0.714729 9.02979 146 168 184
1.62461 -0.658081 9.00096 20 28 37
1.63193 -0.70957 9.03769 146 168 184
-0.900384 0.673766 6.06517 29 35 39
-0.493543 0.423035 6.44461 39 57 82
-0.488236 0.511445 6.49629 158 167 167
0.172892 0.702172 6.56236 102 51 47
0.138202 0.00481134 6.62126 123 139 147
0.187885 -0.0728183 6.72205 148 81 50
0.30505 0.402255 6.81142 160 81 39
0.399264 0.35203 6.93183 31 27 35
0.37886 0.0459148 7.03939 125 134 125
0.418069 0.124945 7.04199 142 83 57
0.519237 0.135097 7.16439 128 77 53
0.756112 0.198456 7.31988 159 128 108
0.809633 0.211474 7.34421 93 49 45
1.48622 -0.802029 8.55949 86 86 89
-0.525161 0.464924 6.41582 29 36 40
-0.502706 0.473033 6.47017 101 119 129
0.487095 -0.151786 6.90456 144 80 57
0.618311 -0.219791 7.15713 220 221 223
-0.886671 0.672307 6.05799 29 35 39
0.489287 0.552536 6.9162 117 85 85
0.745303 0.197881 7.33014 159 128 108
1.13073 -0.621154 7.99191 137 138 140
1.13946 -0.631877 8.05197 143 144 145
-0.245211 -0.220529 6.76603 125 66 44
0.129119 0.0194568 6.62124 32 39 46
0.166845 0.0552498 6.6231 27 34 40
0.177701 0.0717525 6.62802 138 151 154
0.16216 -0.00063586 6.64802 34 40 47
0.176947 -0.0247283 6.67343 76 78 81
0.201469 0.0311341 6.66191 29 37 42
0.204591 0.0505419 6.66655 142 161 169
0.236556 0.0547459 6.70104 36 44 49
0.323528 0.402278 6.79706 159 79 38
0.324264 0.25125 6.89423 145 93 66
0.0585088 -0.56961 7.20475 149 170 185
0.382628 0.0316763 7.04221 102 110 102
0.442006 0.196594 7.05866 36 43 48
1.00154 -0.45358 7.92141 113 85 70
1.19071 -0.596972 8.1097 230 230 231
1.15043 -0.603357 8.15848 229 229 230
1.38841 -0.712211 8.39469 217 218 220
1.35225 -0.700795 8.68085 121 89 70
1.48215 -0.816806 8.58266 192 190 190
1.51074 -0.780295 8.56955 158 166 171
1.41564 -0.684769 8.69573 115 78 65
1.52462 -0.768693 8.58766 58 44 43
1.53296 -0.75439 8.62092 103 68 53
1.43475 -0.882496 8.73795 26 33 39
1.5439 -0.766276 8.62285 190 132 102
1.44534 -0.925248 8.74223 34 40 43
1.43894 -0.891915 8.75061 141 164 182
1.55934 -0.769519 8.66627 98 69 56
1.4896 -0.81457 8.74715 57 45 45
1.49311 -0.722484 8.80201 92 70 63
1.42495 -0.92282 8.88614 121 122 124
1.56374 -0.663043 8.77662 34 44 50
1.58908 -0.655977 8.80249 34 42 48
1.51176 -0.836001 8.89895 63 50 49
1.62205 -0.713377 8.78157 183 183 183
1.63912 -0.709451 8.79451 44 51 60
1.58681 -0.792135 8.91082 99 74 60
1.54255 -0.879155 8.9634 141 165 182
1.58686 -0.800419 8.9215 183 130 95
1.58805 -0.902271 8.94666 84 58 52
1.55955 -0.745279 9.00966 15 22 33
1.59864 -0.714393 9.01169 24 32 41
1.63021 -0.655213 8.99241 18 25 34
1.69392 -0.819717 8.97484 72 38 34
1.68134 -0.849654 9.0589 83 59 58
0.648223 -0.219567 7.44708 147 76 47
1.02206 -0.451626 7.90379 113 85 70
1.54687 -0.782797 8.74097 101 69 53
0.961499 -0.419515 7.85642 121 90 87
1.12563 -0.649073 8.11875 131 131 133
1.53488 -0.766677 8.63284 190 132 102
1.56876 -0.77537 8.91963 108 79 69
-0.405217 0.258122 6.36057 157 166 166
-0.344283 0.317914 6.35642 32 39 45
-0.338964 0.355213 6.35521 46 58 65
-0.323812 0.339724 6.35272 155 164 164
-0.380255 0.319258 6.37271 31 39 44
-0.369072 0.269325 6.39396 152 115 104
0.0786582 0.67377 6.48217 114 55 49
0.15336 -0.004879 6.65257 34 41 49
0.255431 0.709486 6.6128 105 54 47
0.138235 -0.0533331 6.67369 147 166 175
0.181207 0.0680856 6.66351 32 41 45
0.21867 -0.0126236 6.72697 141 69 45
-0.27698 0.313981 6.98331 136 67 46
-0.0582624 -0.271737 6.96077 66 55 56
-0.0310523 -0.334486 7.01817 167 123 96
0.467793 -0.150702 6.83661 163 83 51
0.469361 0.385243 6.96296 171 93 47
0.380863 -0.00320701 7.0256 154 155 142
0.0332099 -0.754114 7.19099 144 167 183
0.379804 0.00626002 7.05848 98 60 54
0.569495 0.494989 6.97196 94 51 52
0.576038 0.488861 6.99048 171 130 103
0.495347 0.0267214 7.14983 56 45 48
0.635949 -0.20572 7.18057 28 34 39
0.776337 0.221325 7.29957 88 55 45
0.6565 -0.224434 7.44091 145 76 47
1.10657 -0.236121 7.83533 75 47 52
1.07673 -0.50941 7.86089 223 224 225
0.804422 -0.315671 8.23271 116 89 71
0.798602 -0.301242 8.23738 155 173 185
0.970341 -0.485776 8.14359 150 170 185
1.25315 -0.642358 8.21976 226 227 228
1.35705 -0.719201 8.4266 227 227 229
1.37495 -0.70868 8.59702 144 167 184
1.49598 -0.788771 8.50096 81 83 86
1.50075 -0.764973 8.51105 223 224 225
1.3618 -0.698505 8.67073 129 92 71
1.50903 -0.753025 8.56177 45 54 59
1.51312 -0.758658 8.5746 150 157 159
1.50039 -0.744573 8.58659 118 60 38
1.42381 -0.681903 8.68697 113 76 64
1.38603 -0.959375 8.73193 31 37 44
1.42437 -0.69416 8.69805 103 74 63
1.45231 -0.942183 8.71663 123 124 126
1.44598 -0.958661 8.72915 172 172 173
1.44845 -0.949667 8.74263 38 44 52
1.49439 -0.800573 8.70322 137 153 160
1.47648 -0.707708 8.73824 107 76 64
1.48212 -0.709621 8.74774 99 72 62
1.49834 -0.812243 8.73751 59 45 45
1.48446 -0.712852 8.75901 95 72 63
1.42881 -0.72111 8.82105 98 71 63
1.50315 -0.836512 8.80131 146 147 148
1.3987 -0.911418 8.89544 33 40 47
1.56442 -0.744522 8.77971 17 26 38
1.6041 -0.652928 8.78533 38 47 54
1.44615 -0.980666 8.95348 179 180 180
1.46707 -0.925267 8.95658 31 38 42
1.5489 -0.843251 8.92208 59 49 50
1.53573 -0.816397 8.93799 57 46 45
1.5962 -0.903626 8.93693 88 59 55
1.56686 -0.741552 9.00124 15 23 34
1.59411 -0.72501 9.01258 144 166 183
0.18143 0.0866919 6.63422 33 41 46
0.447265 0.345377 7.01117 167 92 52
1.51203 -0.685689 8.23022 224 225 226
1.37445 -0.716765 8.41322 227 227 229
1.35615 -0.720882 8.43758 224 225 227
1.16949 -0.578595 8.05613 232 232 233
1.14665 -0.584365 8.09152 231 232 232
1.13496 -0.587263 8.10963 227 228 229
1.27552 -0.606588 8.08803 232 233 234
1.24334 -0.615174 8.1395 223 224 225
0.312498 0.402041 6.80163 153 77 38
0.611066 -0.248199 7.1594 48 51 57
1.52648 -0.820401 8.94605 57 46 45
-0.176122 0.135061 6.52712 153 79 56
-0.25452 0.0552565 6.5627 167 86 52
0.223534 0.0123957 6.67399 35 41 46
0.426319 -0.223615 6.84995 199 194 179
-0.0646253 -0.308351 6.98191 178 150 139
0.413491 -0.174503 6.92205 76 82 78
0.437473 -0.0952012 6.93848 88 96 89
0.445627 -0.0717144 6.94731 97 105 97
0.442905 -0.0569588 6.95204 189 185 170
0.407659 -0.057088 6.96954 124 130 120
0.433195 -0.014339 6.97767 115 124 116
0.459987 0.387806 6.96708 171 94 48
0.43706 -0.0106947 6.98677 169 167 152
0.367194 -0.00149398 7.03165 160 158 143
0.366141 -0.0182177 7.04394 206 201 186
0.466 0.0492306 7.14716 125 100 94
0.502624 0.0668339 7.15523 125 91 66
0.608204 -0.258476 7.16057 46 50 56
0.226478 -0.689094 7.43778 145 167 184
0.756838 0.177526 7.31548 61 37 39
0.775586 0.203778 7.31193 168 143 127
0.810252 0.22231 7.34154 83 47 47
0.970577 -0.429286 7.85155 118 87 84
1.07018 -0.290851 7.85167 48 36 39
1.01355 -0.456911 7.90861 125 89 67
0.816373 -0.322997 8.23469 120 89 65
1.51409 -0.770377 8.59649 57 45 46
1.42951 -0.680777 8.6691 144 166 183
1.43624 -0.679174 8.67666 116 77 64
1.49573 -0.713306 8.76375 99 72 62
1.42373 -0.89307 8.86044 204 161 137
1.40993 -0.909388 8.88575 31 39 46
1.61158 -0.651289 8.77877 39 48 54
1.52703 -0.844355 8.88033 65 50 51
1.52194 -0.833371 8.8898 62 48 48
1.52443 -0.816701 8.91147 131 148 160
1.47979 -0.952725 8.94702 190 190 190
1.56673 -0.745427 8.90233 40 49 54
1.52294 -0.84575 8.94524 61 49 50
1.5273 -0.789295 8.95818 117 79 65
1.63983 -0.617097 8.94397 33 42 48
1.61355 -0.707282 9.01387 143 166 183
1.6655 -0.934311 8.9921 220 208 205
1.70146 -0.816806 8.96705 72 40 38
0.478281 -0.123441 6.84041 154 81 54
0.485433 -0.104571 6.84246 142 70 51
0.764949 0.202954 7.31554 168 143 127
1.5024 -0.775499 8.54392 222 223 225
1.49698 -0.803184 8.54972 81 84 87
1.46007 -0.716625 8.78621 99 72 62
1.57119 -0.694504 8.74442 144 166 183
1.53711 -0.843661 8.93579 61 49 50
1.40395 -0.710456 8.37401 228 229 230
1.34898 -0.725142 8.44731 224 225 226
1.56061 -0.779749 8.93625 117 79 65
-0.261272 0.30905 7.01442 140 74 50
-0.865049 0.67399 6.05037 33 40 44
-0.318663 0.329225 6.33804 157 166 167
-0.305264 0.314634 6.36297 36 45 50
0.0301171 0.624757 6.46272 100 57 54
0.0650816 0.0944265 6.58676 35 43 49
-0.253973 -0.229762 6.76862 127 69 54
0.340226 0.406278 6.79639 150 78 45
0.472381 -0.136932 6.8308 160 85 56
0.490446 -0.12749 6.83725 145 77 60
0.340275 0.253565 6.88848 147 91 62
0.403666 -0.167889 6.92613 204 199 184
0.396247 -0.126746 6.95587 175 171 153
-0.0382 -0.342788 7.01944 171 110 74
0.465383 0.339975 7.00563 165 90 54
0.583839 0.496606 6.98905 170 131 105
0.353613 -0.000431657 7.03543 156 151 134
0.366954 -0.0282829 7.03551 116 63 56
-0.161932 -0.527477 7.11988 149 100 80
0.396993 0.0340853 7.04825 184 180 164
-0.0114495 -0.447547 7.12693 191 140 109
0.373565 0.686135 7.27106 87 63 51
0.601016 -0.215692 7.34692 153 82 52
0.82965 0.255268 7.32035 186 156 139
0.456768 0.538636 7.47373 157 166 166
0.490969 -0.677212 7.64392 126 75 55
0.615806 0.448119 7.6115 73 53 50
0.605103 0.43347 7.62692 75 56 52
0.99564 -0.461217 7.91659 124 88 67
0.787083 -0.296025 8.2415 154 173 185
0.816699 -0.350407 8.24949 113 85 58
1.55312 -0.783583 8.47886 70 73 76
1.51231 -0.789745 8.50278 78 80 83
1.51207 -0.787128 8.54607 66 69 73
1.51935 -0.773285 8.55796 198 193 191
1.41047 -0.733601 8.67637 116 77 65
1.51411 -0.855785 8.68465 107 72 60
1.43881 -0.81196 8.73818 216 217 219
1.43622 -0.967819 8.74388 71 75 81
1.54987 -0.734094 8.6932 32 40 44
1.44002 -0.883364 8.75942 212 185 173
1.50282 -0.786195 8.73576 103 70 55
1.49433 -0.709566 8.75201 94 71 63
1.59136 -0.781904 8.72794 87 66 54
1.56069 -0.717705 8.86886 94 70 62
1.45639 -0.930099 8.92163 27 33 38
1.61662 -0.668421 8.87396 143 166 183
1.55986 -0.75205 8.9068 31 38 42
1.51223 -0.791225 8.96823 114 77 62
1.61962 -0.790994 8.93826 55 48 46
1.58831 -0.69809 8.9791 17 24 33
1.57442 -0.73732 8.99547 15 23 35
1.64122 -0.646807 8.98506 15 22 31
1.66777 -0.836936 9.06746 86 65 61
0.665494 -0.22968 7.43614 143 80 50
1.53637 -0.735374 8.69895 32 40 44
1.44095 -0.687494 8.68874 109 75 63
-0.322859 0.373414 6.35935 157 167 168
-0.338568 0.315095 6.36414 40 49 54
-0.000890038 0.630218 6.46423 115 67 64
0.150303 0.0640302 6.62933 121 137 148
0.192786 0.0413187 6.66579 144 162 170
0.305809 0.409766 6.79972 150 81 52
0.451428 -0.140554 6.83297 158 88 65
0.456555 -0.0844447 6.92131 175 171 155
0.399995 -0.182696 6.92413 64 69 69
0.42744 -0.110313 6.93294 175 172 157
0.399363 0.36331 6.92705 32 28 35
0.413288 -0.0311427 6.95269 125 69 61
0.428586 -0.0609241 6.95391 193 190 174
0.411516 -0.0215599 6.96824 152 152 139
0.41462 -0.038782 6.97376 110 119 112
0.55691 0.506533 6.97404 90 52 57
0.515785 0.460531 6.97469 92 56 55
0.507817 0.431066 6.98687 106 62 57
0.56468 0.500828 6.9915 160 124 96
0.35711 0.0524746 7.0261 55 39 46
0.345462 -0.0201922 7.04691 208 203 188
0.262754 -0.163897 7.06217 175 171 155
-0.148337 -0.550825 7.10729 114 83 73
-0.173243 -0.565593 7.11466 152 169 183
0.473568 0.0650728 7.13832 125 96 74
0.475941 0.0486463 7.14423 137 112 106
0.506163 0.0459208 7.18525 112 87 70
0.760756 0.219202 7.30326 98 70 65
0.831963 0.276924 7.32649 78 59 46
0.211579 -0.66222 7.43044 78 48 51
0.214421 -0.694706 7.43933 147 167 183
0.434257 0.543938 7.47809 157 166 167
0.605534 0.452188 7.61374 84 61 53
0.61314 0.437529 7.67425 157 166 167
1.00228 -0.435149 7.84492 123 86 81
0.972369 -0.466641 7.92295 128 92 68
0.934377 -0.469058 7.93337 127 91 68
0.800814 -0.34888 8.25452 108 83 57
1.44028 -0.730398 8.66405 114 79 65
1.40211 -0.930601 8.73232 29 36 39
1.58384 -0.775541 8.68614 96 68 56
1.49233 -0.82679 8.71111 234 234 235
1.50435 -0.806539 8.71026 203 206 208
1.44869 -0.965912 8.73856 64 69 75
1.62452 -0.62162 8.78162 34 43 48
1.43267 -0.90346 8.8756 35 44 49
1.57968 -0.743193 8.89499 34 43 49
1.53746 -0.823066 8.92393 118 137 153
1.60662 -0.696632 8.97036 14 20 30
1.61943 -0.720178 9.00693 102 72 61
-0.321823 0.31448 6.36575 40 49 54
0.256454 -0.144169 7.04812 123 133 124
0.986056 0.0145091 7.5994 151 84 53
0.980728 -0.433414 7.84717 123 86 81
1.42468 -0.7321 8.66775 114 79 65
1.39502 -0.882402 8.81675 111 73 61
-0.313519 0.377548 6.36014 157 167 168
0.191739 0.592982 7.20933 76 57 53
-0.88705 0.677574 6.04944 36 45 50
-0.364976 0.356495 6.3529 47 57 62
0.204183 0.0331269 6.68246 31 38 44
0.288027 0.411593 6.7989 153 87 63
0.431393 -0.192098 6.8454 185 182 167
0.38792 -0.251229 6.86528 215 213 205
0.321037 0.357139 6.88508 140 119 115
0.341859 0.346406 6.90007 57 47 41
0.412135 -0.114002 6.93256 174 172 156
0.313624 0.287598 6.90488 54 42 42
0.372202 -0.160441 6.93842 64 68 65
0.412819 -0.0637286 6.95355 197 193 177
0.379904 -0.133427 6.95609 173 167 150
0.387632 -0.0750446 6.95905 100 108 101
0.399258 -0.0412545 6.97345 110 119 112
0.5514 0.503584 6.99119 160 125 96
0.288261 -0.191544 7.01349 92 97 88
0.376936 0.00595214 7.03327 176 173 157
0.370425 0.0263155 7.0381 104 113 105
0.432521 0.208319 7.04652 140 104 79
0.387284 0.122529 7.046 138 82 61
0.228135 -0.140034 7.0394 73 56 66
0.352619 0.00111656 7.06123 103 65 65
0.249617 -0.166767 7.06206 177 173 157
-0.161665 -0.56678 7.07252 62 47 49
0.748863 0.21653 7.30357 97 77 74
0.747051 0.20699 7.31688 175 159 151
0.793478 0.229616 7.33905 93 57 58
0.201754 -0.667141 7.43087 72 46 51
0.577033 0.446476 7.59437 158 167 168
0.593919 0.433286 7.628 68 50 48
0.577906 0.437326 7.67686 158 167 168
0.990063 -0.445874 7.89499 49 38 44
0.788537 -0.31771 8.24161 124 90 68
1.52043 -0.74464 8.52526 39 51 59
1.47113 -0.829086 8.56588 230 229 229
1.459 -0.730588 8.65963 111 77 66
1.41897 -0.676533 8.67143 143 166 183
1.51651 -0.806929 8.70727 204 207 209
1.41362 -0.92918 8.72948 30 37 40
1.4175 -0.89082 8.76942 207 174 159
1.54623 -0.864952 8.77746 106 71 61
1.43222 -0.919366 8.81802 135 160 180
1.60627 -0.694899 8.82946 141 164 182
1.60091 -0.69927 9.00564 14 21 30
0.330998 0.356746 6.88684 140 119 115
0.32811 0.287388 6.90739 54 42 42
0.566916 0.44505 7.59354 158 167 168
1.44292 -0.876586 8.78671 106 71 61
0.416542 -0.157563 6.91865 65 71 71
0.305755 0.253806 6.89004 145 95 72
0.417253 -0.0453771 6.96416 134 87 88
0.304439 -0.194565 6.97711 186 181 164
0.377456 0.120765 7.04451 138 86 69
0.473143 0.0279214 7.1516 50 41 42
0.966134 -0.487798 8.09784 198 151 96
0.649818 -0.531793 8.22136 187 160 132
1.50857 -0.746437 8.52588 40 52 60
1.50561 -0.812133 8.55822 214 209 208
1.49741 -0.808385 8.57362 152 164 172
1.49141 -0.820131 8.58026 158 166 171
1.4985 -0.801418 8.58144 158 159 161
1.56941 -0.776365 8.67408 102 71 58
1.44865 -0.926692 8.72683 30 37 40
1.44094 -0.897937 8.73099 28 35 39
1.4366 -0.952078 8.75741 134 159 179
1.62912 -0.711309 8.77244 199 199 200
1.40961 -0.899734 8.77552 174 164 173
1.5009 -0.831526 8.79163 27 36 49
1.54128 -0.750642 8.90003 37 47 53
1.61713 -0.686466 8.91127 141 164 182
1.58423 -0.705924 8.96567 136 160 178
1.61637 -0.649174 8.98665 16 22 30
1.55361 -0.74075 8.99614 17 25 37
1.68951 -0.941902 9.06324 124 97 78
1.60288 -0.668434 8.87845 141 164 182
1.62131 -0.690492 8.92038 141 164 182
1.62489 -0.685256 9.0293 21 27 34
0.239638 0.75863 6.57542 180 146 128
0.0533111 0.691524 6.48456 127 80 81
0.421177 0.376982 6.9316 37 33 41
0.483441 0.0159183 7.16409 53 48 53
0.521716 0.0302762 7.19376 54 46 49
0.774342 0.206475 7.32301 172 149 137
0.355554 0.677091 7.2759 60 45 44
0.308611 0.749406 7.25465 157 167 169
0.445358 0.465449 7.50142 158 168 169
0.627287 0.43355 7.63729 70 53 52
1.00768 -0.526805 8.06214 195 150 99
0.784299 -0.348297 8.25151 121 87 55
1.49628 -0.756974 8.56023 40 53 61
1.57357 -0.781591 8.68751 99 69 57
1.4293 -0.931862 8.72533 30 36 39
1.41707 -0.973514 8.73045 182 182 183
1.6128 -0.650757 8.79051 28 35 43
1.64257 -0.79663 8.90374 198 162 143
1.60867 -0.793123 8.93075 76 55 47
1.63197 -0.685919 8.94326 24 30 37
1.63374 -0.933275 9.01044 155 122 97
1.60866 -0.875335 9.14601 100 77 62
0.598307 0.459517 7.61294 81 65 54
1.4756 -0.81712 8.68761 63 53 55
1.4384 -0.927925 8.7276 30 36 39
1.41331 -0.711495 8.3678 228 229 230
1.42269 -0.726256 8.39055 230 231 232
1.41735 -0.717135 8.37646 227 227 229
1.34769 -0.914236 9.05327 137 162 181
-0.677554 0.499813 6.24586 157 167 169
1.3963 -0.722223 8.4033 230 231 232
1.40448 -0.729397 8.39115 204 143 74
1.31629 -0.714419 8.40127 210 150 76
1.28406 -0.709977 8.40455 206 147 78
1.26619 -0.706786 8.40666 208 148 79
1.10523 -0.679082 8.42526 204 144 72
1.0853 -0.676925 8.42706 204 142 76
1.66612 -0.910865 8.75829 28 34 37
1.65405 -0.900846 8.73906 30 37 43
1.64315 -0.890786 8.71776 140 164 182
1.053 -0.437965 7.84226 236 230 227
1.4009 -0.688656 8.33571 210 150 76
1.59182 -0.853084 8.62031 141 165 182
1.87977 -1.06054 8.67029 99 64 55
1.59783 -0.947056 8.71332 173 140 134
1.99591 -1.14115 8.55203 145 167 184
1.66746 -0.956962 8.45315 98 59 46
1.59126 -0.947706 8.43893 106 65 48
1.54656 -0.927941 8.43319 146 168 184
1.48886 -0.902442 8.4318 119 83 53
1.34773 -0.807189 8.46557 111 78 47
1.15009 -0.683857 8.42122 211 154 88
1.35532 -0.69055 8.32416 229 230 231
0.721017 -0.0241811 5.36455 104 55 47
0.903926 -0.124223 5.12147 133 70 51
0.930908 -0.135653 5.08862 136 73 52
0.941375 -0.14004 5.07592 130 69 52
-2.86579 1.69991 5.65405 100 104 108
3.58471 -7.18911 7.59494 149 170 185
3.51843 -7.1348 7.589 21 28 34
3.10707 -7.24951 7.75501 51 40 46
3.43429 -7.09711 7.59365 150 171 186
-1.1712 0.027203 7.42178 40 44 48
-1.1597 0.0361865 7.43828 28 35 40
-1.04281 0.017257 7.60525 38 43 48
-1.00494 0.0139187 7.65935 132 66 48
-0.981066 0.0136626 7.69349 140 70 47
-0.93001 0.0162026 7.76652 40 44 48
-0.86882 0.0152278 7.85398 124 67 52
-0.845966 0.00382058 7.8866 130 69 51
-0.805798 0.0127472 7.94404 42 46 49
-0.774775 -0.00129711 7.9884 142 69 50
-0.725504 0.00428891 8.0588 116 64 52
-0.703987 -0.00378234 8.08957 129 71 57
-0.6685 0.00596619 8.14025 39 43 47
-0.561873 -0.01046 8.29269 123 66 56
-0.390937 -0.0167468 8.53698 114 61 49
-0.199939 -0.0192247 8.80976 128 62 50
-0.0700569 -0.0441443 8.99588 145 75 53
0.026661 -0.044442 9.13392 114 60 52
0.340459 -0.0712883 9.58292 149 76 53
2.00974 -0.173719 11.9696 132 74 67
2.56419 -0.180163 12.7587 105 115 107
1.16711 -0.591164 8.057 232 232 233
1.17684 -0.594128 8.07004 231 232 232
1.20537 -0.60275 8.10829 233 234 235
1.21973 -0.607108 8.12753 232 233 234
1.23393 -0.611432 8.14654 223 224 225
1.1988 -0.59795 8.0998 218 220 221
1.35439 -0.648111 8.33423 131 132 134
3.68655 -7.67435 7.54429 150 171 186
3.5391 -7.22471 7.56021 24 30 36
3.41418 -6.99302 7.59818 149 170 185
-4.29941 1.03529 -8.72102 23 30 36
-4.56275 0.577081 -5.86183 95 57 46
-4.30665 1.00404 -6.22098 113 69 54
-2.47358 0.475619 -0.349093 216 199 195
-1.885 0.512657 0.136928 232 224 222
1.09983 0.0519918 7.6571 209 157 108
3.55009 -7.22653 7.56749 23 30 36
0.806387 -2.52966 7.93908 228 224 222
1.66979 -0.680405 8.95215 25 32 38
