ply
format ascii 1.0
element vertex 46
property float x 
property float y 
property float z 
end_header
0.697034 0.00459313 3.91626
0.458102 0.00948527 3.9904
0.222623 0.00947143 4.03326
-0.0382595 0.0100669 4.04525
-0.284504 0.00977148 4.02386
-0.529783 0.00789332 3.97044
-0.759908 0.00733928 3.88797
-1.00718 0.00903692 3.75773
-1.23151 0.0037881 3.5969
-1.40293 0.00660291 3.43208
-1.55369 0.00887976 3.24666
-1.68801 0.0113088 3.02845
-1.7934 0.0131667 2.78985
-1.86757 0.0109813 2.53506
-1.90333 0.00762595 2.28613
-1.90499 0.00397223 2.04957
-1.8771 0.00396332 1.80545
-1.81864 0.0035051 1.56848
-1.73254 0.00430004 1.34578
-1.61658 0.00490405 1.13121
-1.47365 0.00507566 0.932686
-1.30254 0.00342363 0.750772
-1.10095 0.00417751 0.583968
-0.905075 0.00270277 0.464316
-0.640258 0.00340593 0.341884
-0.392108 0.00346235 0.271538
-0.161907 0.0031419 0.241686
0.0861024 0.00236783 0.236293
0.327478 0.00122636 0.261907
0.568272 0.00240875 0.32188
0.799616 0.00512174 0.412408
1.01497 0.0054712 0.530591
1.21131 0.00247807 0.671927
1.39064 0.00602636 0.843859
1.5477 0.00533319 1.03703
1.67931 0.0051836 1.25101
1.78377 0.00588395 1.48751
1.85548 0.00465569 1.73712
1.89609 0.00526942 1.99713
1.90101 0.00549412 2.24302
1.87671 0.00531681 2.47309
1.82306 0.00480459 2.69805
1.50085 0.00521868 3.31938
1.34611 0.00309469 3.49591
1.17026 0.00371662 3.65105
0.931046 0.00688588 3.80529
