ply
format ascii 1.0
element vertex 42
property float x 
property float y 
property float z 
end_header
-0.106302 -0.178124 4.34268
-0.372131 -0.18351 4.30954
-0.634442 -0.187359 4.23772
-0.892807 -0.207528 4.13266
-1.17167 -0.227695 3.9706
-1.45824 -0.208421 3.73106
-1.65384 -0.162162 3.46007
-1.7778 -0.113553 3.21668
-1.86072 -0.0698716 3.01323
-1.92756 -0.0310911 2.80746
-1.97598 -0.0103736 2.61263
-2.01061 0.00892831 2.40854
-2.02877 0.019411 2.18674
-2.02459 0.0277272 1.95354
-1.99571 0.0346611 1.72101
-1.94203 0.0374498 1.49897
-1.86311 0.0366684 1.27479
-1.75973 0.0379685 1.06245
-1.63227 0.0358135 0.863701
-1.48247 0.0340088 0.684951
-1.31331 0.0273504 0.516902
-1.13041 0.0274324 0.374724
-0.924359 0.0251512 0.250506
-0.702803 0.017736 0.145633
-0.473863 0.0140533 0.069266
-0.237643 0.00774097 0.0195771
0 0 0
0.224711 0.000158449 0.0169609
0.43625 -0.0086032 0.0450987
0.631311 -0.010623 0.095183
0.806801 -0.00953692 0.160024
0.968191 0.00657321 0.250125
1.11633 0.0366947 0.358284
1.24048 0.090667 0.475107
1.34733 0.177512 0.601873
-1.69215 -0.206743 -2.94353
-1.84172 -0.181494 -2.65469
1.07461 -0.140616 4.02337
0.889514 -0.15993 4.13914
0.65042 -0.166144 4.23972
0.401284 -0.169839 4.30841
0.155697 -0.176955 4.34196
