ply
format ascii 1.0
element vertex 37
property float x 
property float y 
property float z 
end_header
-3.69508 -0.188045 4.89168
-3.74716 -0.167861 4.01262
-3.63875 -0.138348 3.34946
-3.31124 -0.133526 2.53014
-2.81342 -0.123521 1.80899
-2.12268 -0.117157 1.19323
-1.31888 -0.108226 0.758458
-0.45104 -0.10356 0.539366
0.379689 -0.0848221 0.533146
1.24399 -0.0807941 0.734304
2.02053 -0.0697581 1.13365
2.54221 -0.0483055 1.58154
2.99797 -0.0368147 2.12579
3.37904 -0.0308208 2.84808
3.38522 -0.0201046 2.86457
-3.42551 0.119537 -5.54957
3.36248 -0.129327 5.75059
3.38389 -0.15742 5.72661
-3.47007 0.254451 -3.74442
0.13685 -3.55234 3.82648
-3.24534 0.458226 -2.73246
3.21626 -0.3445 5.90179
3.23895 -0.315468 5.87216
3.27298 -0.320094 5.85292
3.30396 -0.320986 5.83289
3.33773 -0.312717 5.81367
3.36094 -0.303891 5.76282
3.43427 -0.289339 5.65592
3.43337 -0.290123 5.64539
1.32878 -0.278306 7.66358
0.816227 -0.289622 7.81138
-0.0604286 -0.296877 7.89671
-0.975701 -0.29297 7.77111
-1.87375 -0.287177 7.40915
-2.61545 -0.272269 6.8804
-2.96966 -0.227571 6.50095
-3.42251 -0.204865 5.78572
