ply
format ascii 1.0
element vertex 48
property float x 
property float y 
property float z 
end_header
0.861974 0.0929499 4.03682
0.591749 0.0789297 4.14251
0.304459 0.0891018 4.20185
-0.0169165 0.096937 4.21948
-0.312649 0.0979991 4.19307
-0.584675 0.0988734 4.13245
-0.84344 0.0995549 4.03753
-1.09064 0.0937513 3.90393
-1.31217 0.0894434 3.74425
-1.51086 0.0890499 3.55688
-1.68221 0.086393 3.34552
-1.81581 0.0823671 3.13335
-1.92479 0.073576 2.90652
-2.01003 0.0674678 2.65759
-2.06231 0.0596345 2.4087
-2.08481 0.0546151 2.12548
-2.06866 0.0509711 1.84367
-2.01591 0.0494075 1.57206
-1.92774 0.0470885 1.31016
-1.8063 0.0448788 1.06279
-1.65297 0.0387144 0.83111
-1.47271 0.0394705 0.629427
-1.26482 0.0327412 0.444215
-1.03307 0.026099 0.288138
-0.783665 0.0189872 0.163003
-0.52279 0.0104946 0.0711857
-0.26128 0.00382899 0.0177145
0 0 0
0.257221 -0.000494794 0.0150748
0.507093 -0.000116733 0.0623638
0.746349 0.00245143 0.138873
0.970443 0.00530615 0.241273
1.18182 0.00902048 0.371766
1.3732 0.0150927 0.523544
1.54834 0.0245528 0.70044
1.70777 0.0390482 0.906228
1.8487 0.0526206 1.14344
1.96805 0.0607623 1.42198
2.05151 0.0641337 1.72918
2.08718 0.0665789 2.04913
2.07912 0.0667324 2.32945
2.03171 0.0711381 2.60746
1.95278 0.0757198 2.86359
1.84484 0.0790287 3.10014
1.72063 0.0810119 3.30938
1.56415 0.0845924 3.51249
1.37994 0.0848774 3.70145
1.16444 0.0889035 3.86763
