ply
format ascii 1.0
element vertex 48
property float x 
property float y 
property float z 
end_header
-2.37038 -0.049927 0.811877
-1.92512 -0.0304623 0.512533
-1.4666 -0.0151214 0.28839
-0.990217 -0.00705469 0.130059
-0.499948 -0.00341572 0.0334579
0 0 0
0.500285 -0.00191578 0.0302958
0.992423 -0.00394811 0.122804
1.46814 -0.00616136 0.27551
1.93226 -0.00227548 0.496965
2.3685 -0.00939336 0.772903
2.7716 -0.00954506 1.11099
3.13151 -0.0120399 1.50371
3.43102 -0.0133751 1.93191
3.67107 -0.0126178 2.39855
3.85587 -0.0157113 2.91121
3.97121 -0.0210797 3.42342
4.02002 -0.0237661 3.94361
4.0007 -0.0250656 4.46935
3.91312 -0.0250867 4.98373
3.76008 -0.0238542 5.4836
3.54391 -0.0208885 5.95625
3.26562 -0.0177037 6.40043
2.93243 -0.0134711 6.80153
2.54164 -0.00910417 7.16399
1.6766 0.0107599 7.76993
1.20884 0.0109159 7.94394
0.74518 0.0118207 8.06043
0.277882 -0.0146894 8.11898
-0.203344 -0.0131339 8.12583
-0.678118 -0.0237771 8.06887
-1.16725 -0.0292178 7.94019
-1.63628 -0.0274549 7.75328
-2.07666 -0.0334804 7.50782
-2.48758 -0.0348304 7.21291
-2.8646 -0.028599 6.86568
-3.20045 -0.0220287 6.46871
-3.48092 -0.0178251 6.03646
-3.70413 -0.0141682 5.58803
-3.86524 -0.0216794 5.11858
-3.97017 -0.0222753 4.63691
-4.01141 -0.0363046 4.13901
-3.98808 -0.0537484 3.6391
-3.89621 -0.0681262 3.1235
-3.73396 -0.0883171 2.62274
-3.49453 -0.10332 2.1237
-3.17563 -0.113561 1.64254
-2.7917 -0.0959943 1.1972
