ply
format ascii 1.0
element vertex 41
property float x 
property float y 
property float z 
end_header
0.0799473 -0.114855 4.31297
-0.206989 -0.120144 4.30403
-0.473305 -0.125034 4.257
-0.748728 -0.162252 4.16589
-1.01522 -0.107182 4.02934
-1.50442 -0.222833 3.69483
-1.72379 -0.188053 3.37999
-1.84344 -0.102197 3.11695
-1.90679 -0.0638018 2.91864
-1.95434 -0.0353746 2.74645
-1.99696 -0.00879104 2.54072
-2.02309 0.0110624 2.34403
-2.03447 0.0223028 2.12711
-2.0249 0.0297551 1.90344
-1.99211 0.0364968 1.67633
-1.93602 0.0389472 1.45898
-1.85618 0.0362831 1.24399
-1.75483 0.0404314 1.04848
-1.62974 0.0385657 0.853427
-1.48415 0.0386342 0.67852
-1.31653 0.0320113 0.513369
-1.12792 0.0342696 0.379064
-0.925315 0.030096 0.25396
-0.699537 0.0171731 0.146419
-0.46862 0.0118211 0.0672637
-0.236216 0.00653395 0.0195811
0 0 0
0.222225 0.00209194 0.0179952
0.436325 -0.00781279 0.0457015
0.631096 -0.0102989 0.0950997
0.806805 -0.00953667 0.160026
0.968191 0.00657321 0.250125
1.11428 0.0347008 0.355556
1.23643 0.0933469 0.469778
1.36489 0.157898 0.62698
1.71077 0.255633 1.10756
-1.78544 -0.259865 -2.81122
1.01218 -0.11472 4.04816
0.788847 -0.101922 4.15382
0.571768 -0.110335 4.23836
0.33056 -0.117109 4.29202
