ply
format ascii 1.0
element vertex 280
property float x
property float y
property float z
property uchar red
property uchar green
property uchar blue
end_header
-0.436673 -0.641635 3.56188 108 0 0
-0.406567 -0.657171 3.54785 150 0 2
-0.406567 -0.657171 3.54785 150 0 2
-0.386263 -0.667025 3.54823 240 233 215
-0.384205 -0.648397 3.54966 131 1 0
-0.380717 -0.597545 3.5855 98 0 1
-0.356105 -0.636643 3.5575 132 0 3
-0.356105 -0.636643 3.5575 132 0 3
-0.349192 -0.629484 3.56196 248 245 252
-0.306432 -0.617737 3.56662 99 1 0
-0.299131 -0.573152 3.59653 107 1 1
-0.292332 -0.585551 3.58711 99 0 0
-0.291973 -0.564621 3.60047 240 238 241
-0.280014 -0.600498 3.57524 240 240 240
-0.262201 -0.514333 3.63289 126 0 1
-0.242723 -0.507216 3.63851 239 234 240
-0.236069 -0.54003 3.60918 96 1 0
-0.235258 -0.556174 3.59724 242 232 243
-0.235616 -0.540179 3.60785 95 1 1
-0.235616 -0.540179 3.60785 95 1 1
-0.229316 -0.589632 3.57556 70 0 2
-0.223963 -0.556776 3.59874 91 0 0
-0.221249 -0.545616 3.6051 233 231 236
-0.213395 -0.560457 3.59738 241 233 244
-0.213395 -0.560457 3.59738 241 233 244
-0.21313 -0.560691 3.59657 239 225 242
-0.21313 -0.560691 3.59657 239 225 242
-0.207465 -0.568225 3.59099 236 229 237
-0.207465 -0.568225 3.59099 236 229 237
-0.192098 -0.562476 3.59848 233 230 237
-0.187484 -0.575067 3.58006 84 0 2
-0.187484 -0.575067 3.58006 84 0 2
-0.181484 -0.551539 3.59251 89 1 0
-0.174904 -0.574626 3.58002 250 245 241
-0.173946 -0.560489 3.58687 239 227 237
-0.172409 -0.527377 3.60912 231 232 236
-0.168591 -0.54014 3.60168 232 231 237
-0.167372 -0.553901 3.59223 240 229 243
-0.15037 -0.553437 3.59341 80 0 0
-0.138683 -0.451786 3.67179 231 221 230
-0.129366 -0.547917 3.59098 233 230 237
-0.129366 -0.547917 3.59098 233 230 237
-0.127011 -0.420957 3.68795 57 0 0
-0.127011 -0.420957 3.68795 57 0 0
-0.120639 -0.552271 3.58791 106 0 0
-0.12063 -0.492869 3.63368 237 223 236
-0.111364 -0.551346 3.59196 252 254 253
-0.110419 -0.550685 3.58903 254 255 253
-0.100364 -0.448994 3.66006 89 0 1
-0.0945108 -0.476586 3.6386 238 222 232
-0.082018 -0.450272 3.66194 230 225 232
-0.0752418 -0.525846 3.59945 231 225 229
-0.0693559 -0.493396 3.62748 219 208 224
-0.0693559 -0.493396 3.62748 219 208 224
-0.0596769 -0.518651 3.60662 222 218 233
-0.0575789 -0.421659 3.58835 88 0 0
-0.045868 -0.5142 3.60916 226 220 232
-0.0414217 -0.52816 3.61164 254 255 255
-0.0405664 -0.48469 3.62738 70 0 0
-0.0286013 -0.503308 3.61692 238 218 229
-0.0204376 -0.470419 3.63528 76 2 3
-0.0201539 -0.507325 3.60321 68 0 0
-0.0171067 -0.463662 3.64358 228 205 225
-0.0171067 -0.463662 3.64358 228 205 225
-0.00859693 -0.452214 3.6493 220 206 219
-0.00355131 -0.45765 3.64585 221 207 220
-0.00264322 -0.506135 3.60021 64 0 1
0.0139633 -0.508523 3.599 255 255 255
0.0265108 -0.493639 3.60712 60 0 4
0.0292091 -0.504739 3.6001 245 244 240
0.0315276 -0.482203 3.61624 58 0 3
0.0326654 -0.472922 3.62269 213 206 222
0.0575929 -0.0844565 3.28974 104 0 1
0.0637429 -0.467922 3.61026 53 0 3
0.0638237 -0.098474 3.28988 111 0 0
0.0638237 -0.098474 3.28988 111 0 0
0.0726246 -0.0988535 3.29689 246 235 233
0.0735738 -0.0883999 3.30155 103 0 0
0.0835745 -0.0857256 3.31326 94 0 0
0.097268 -0.441804 3.63658 205 197 212
0.087675 -0.128022 3.28531 247 252 246
0.099718 -0.427034 3.6467 71 0 0
0.100475 -0.405927 3.66577 40 0 0
0.0952169 -0.0234409 3.37715 253 248 244
0.11203 -0.4553 3.62814 55 1 0
0.119954 -0.403265 3.6658 202 174 197
0.114304 0.0556412 3.46285 249 250 245
0.113408 0.00163964 3.41574 245 244 242
0.11345 -0.0154755 3.39824 118 0 0
0.112819 -0.111178 3.32834 111 0 0
0.116598 -0.037035 3.38747 244 243 241
0.120957 -0.0685164 3.37416 104 0 0
0.120957 -0.0685164 3.37416 104 0 0
0.126066 0.0847914 3.50308 250 232 230
0.120909 -0.120182 3.33086 255 241 238
0.120909 -0.120182 3.33086 255 241 238
0.121269 -0.133318 3.32761 103 0 0
0.134048 -0.416518 3.65557 198 179 198
0.127466 0.0467925 3.46931 120 0 0
0.13605 -0.0466403 3.40743 106 0 0
0.151014 -0.383847 3.67383 49 1 0
0.150913 -0.44958 3.6146 41 0 0
0.138532 -0.141106 3.32879 249 250 245
0.150343 0.095425 3.54217 255 241 238
0.163058 -0.419031 3.63636 49 0 0
0.171827 -0.394655 3.66067 21 0 0
0.163665 -0.0870443 3.41341 103 0 0
0.162533 -0.146198 3.36975 107 2 0
0.182237 -0.427734 3.62772 177 159 175
0.185074 -0.369623 3.67378 192 169 189
0.170583 -0.13421 3.38302 109 0 0
0.178193 -0.0416681 3.47003 100 0 0
0.176892 -0.0795469 3.42838 249 246 241
0.179756 -0.031804 3.48263 106 0 0
0.189716 -0.399546 3.65325 184 166 188
0.177705 -0.0928664 3.42689 105 1 0
0.19165 -0.420163 3.62953 196 171 193
0.181336 -0.11326 3.41332 114 0 2
0.204575 -0.404385 3.64299 34 0 0
0.192123 -0.100183 3.42508 248 245 240
0.196558 -0.0894737 3.45254 247 247 245
0.201966 -0.0170896 3.51412 106 1 0
0.196908 -0.148031 3.40344 108 0 0
0.203009 -0.0502105 3.50029 248 245 238
0.216018 -0.34066 3.70335 49 0 3
0.200905 -0.137259 3.41872 250 251 245
0.21434 0.0550803 3.59109 250 249 245
0.214673 0.054963 3.5896 250 249 245
0.224901 -0.0644392 3.50934 255 244 244
0.229237 -0.185158 3.41689 98 0 0
0.245186 -0.0258738 3.57349 104 0 1
0.246012 -0.172208 3.44856 104 0 0
0.266255 -0.0144461 3.60831 101 1 1
0.270596 -0.0876184 3.54999 108 0 0
0.270596 -0.0876184 3.54999 108 0 0
0.272738 -0.0985366 3.54429 247 245 248
0.294768 -0.0911342 3.58241 255 238 234
0.300611 -0.164023 3.52618 255 242 236
0.319232 -0.128029 3.55937 246 244 245
0.314853 -0.415985 3.42822 227 226 231
0.3464 -0.088362 3.6578 244 243 241
0.341263 -0.376169 3.47794 227 227 227
0.363419 -0.116489 3.65477 116 0 0
0.364214 -0.128259 3.62534 115 0 0
0.395779 -0.0895189 3.69418 119 1 0
0.380062 -0.361875 3.49517 222 228 224
0.386889 -0.39552 3.46714 232 228 227
0.403505 -0.168542 3.62484 253 239 236
0.403505 -0.168542 3.62484 253 239 236
0.387507 -0.387572 3.46962 235 233 236
0.395054 -0.411725 3.43706 79 1 1
0.408669 -0.392851 3.46445 101 1 3
0.408669 -0.392851 3.46445 101 1 3
0.443744 -0.0652758 3.74783 186 115 155
0.4264 -0.428558 3.42298 251 231 233
0.4264 -0.428558 3.42298 251 231 233
0.439042 -0.357784 3.50635 233 231 234
0.439042 -0.357784 3.50635 233 231 234
0.444652 -0.389399 3.47545 240 240 242
0.444652 -0.389399 3.47545 240 240 242
0.477788 -0.0875905 3.74554 254 245 250
0.477788 -0.0875905 3.74554 254 245 250
0.441461 -0.411729 3.44122 75 1 0
0.45169 -0.37087 3.49697 80 2 2
0.414551 -0.841165 3.10674 223 41 102
0.46538 -0.374841 3.49411 217 192 196
0.464401 -0.405559 3.459 109 0 0
0.464401 -0.405559 3.459 109 0 0
0.475287 -0.394565 3.46909 86 2 2
0.519627 -0.10296 3.75398 251 251 251
0.533471 -0.0811925 3.77809 66 0 1
0.469152 -0.791543 3.08437 185 12 68
0.48941 -0.851734 3.11651 238 227 209
0.486447 -0.809502 3.09786 255 255 255
0.494693 -0.840016 3.1178 255 254 255
0.505847 -0.794058 3.10187 141 25 36
0.0636204 -0.0985446 3.27781 111 0 0
0.478894 -0.0898614 3.75788 254 245 250
0.462975 -0.782419 3.07253 254 245 250
0.476784 -0.832188 3.10786 217 16 71
0.510703 -0.800599 3.12748 141 25 36
0.528696 -0.799143 3.09828 197 107 133
-0.297412 -0.594216 3.57678 97 1 2
-0.180248 -0.459084 3.66723 81 0 0
0.0767765 -0.0988654 3.28208 252 240 242
0.0868566 -0.0870602 3.29985 98 0 1
-0.160979 -0.566222 3.58156 81 1 0
0.0978693 -0.0229933 3.36729 250 244 244
-0.12804 -0.410953 3.69848 218 188 200
0.108224 -0.00364421 3.39629 133 0 19
0.120066 0.0719262 3.47444 114 0 0
0.100076 -0.114851 3.30116 246 246 244
0.115952 -0.0170788 3.38689 114 0 0
0.134539 0.076324 3.50432 252 237 230
0.123495 -0.0689587 3.36366 100 0 0
0.136509 0.0403125 3.47918 255 242 239
0.140938 -0.142803 3.31689 246 248 247
-0.0456175 -0.501101 3.61167 69 1 2
0.166278 -0.0868945 3.40177 112 0 0
0.178514 0.0225118 3.52082 132 0 4
0.168331 -0.108438 3.39138 253 245 243
0.161828 -0.162226 3.34572 250 248 249
0.164773 -0.145999 3.35994 99 0 1
0.180454 -0.16349 3.36203 253 227 228
0.191931 -0.159898 3.37613 102 0 2
0.21371 -0.142037 3.42874 114 0 0
0.208625 -0.192528 3.3749 106 0 0
0.23939 -0.060247 3.52701 110 0 0
0.236934 -0.174872 3.4378 113 1 0
0.26234 -0.0795891 3.54661 239 239 241
0.284679 -0.0710042 3.59294 109 0 0
0.289316 -0.0823849 3.58927 114 0 0
0.339279 -0.138596 3.58647 253 248 244
0.34448 -0.129935 3.62107 254 245 240
0.393256 -0.0907303 3.70738 106 1 0
0.39431 -0.108701 3.69463 91 2 0
0.394679 -0.132927 3.66563 255 244 242
0.398318 -0.126261 3.67589 104 0 0
0.344046 -0.402695 3.44471 236 220 220
0.345657 -0.426252 3.41372 100 1 4
0.401372 -0.169466 3.63605 253 231 233
0.358761 -0.430841 3.4113 233 227 227
0.472587 -0.783071 3.06701 213 58 116
0.473858 -0.824259 3.09941 238 62 124
0.499353 -0.800547 3.14602 162 35 52
0.509365 -0.793112 3.08841 247 245 248
0.542742 -0.826011 3.1013 255 255 255
-0.403552 -0.653998 3.52678 195 0 34
-0.380886 -0.647019 3.53467 166 0 14
-0.187942 -0.577318 3.59068 125 0 0
-0.128987 -0.550732 3.6028 247 247 249
0.319803 -0.141608 3.58616 95 0 1
0.158479 -0.384054 3.61024 141 98 117
0.221435 -0.400723 3.6801 143 100 120
0.385657 -0.357565 3.46651 227 208 191
0.204593 -0.425152 3.65667 165 132 151
0.186455 -0.387788 3.63393 159 111 127
0.310616 -0.420171 3.4536 154 104 107
0.362356 -0.381157 3.52285 178 130 142
0.328172 -0.126694 3.51243 131 80 77
0.158575 -0.40908 3.61745 16 0 1
0.199228 -0.435679 3.65462 165 132 151
0.219718 -0.441717 3.67464 24 0 0
0.228555 -0.404234 3.68929 143 100 120
0.266984 -0.444184 3.72085 152 119 136
-0.0922048 -0.567026 3.74945 152 109 128
-0.092473 -0.533991 3.7403 24 0 1
-0.0429277 -0.602777 3.75012 197 169 192
-0.0222459 -0.600417 3.74554 46 0 0
-0.0394302 -0.517615 3.72282 18 0 0
0.0435126 -0.596175 3.72494 252 254 253
0.0563804 -0.56773 3.71658 191 168 176
0.0676556 -0.581883 3.71754 129 1 2
0.0662156 -0.531551 3.7056 101 28 39
0.101019 -0.539153 3.69629 204 150 164
0.0830841 -0.472612 3.67836 16 0 0
0.102544 -0.452358 3.6683 165 130 137
0.132187 -0.461376 3.66354 170 122 138
0.184769 -0.512632 3.66967 33 1 2
0.16697 -0.443373 3.65157 29 0 2
0.201391 -0.438292 3.64084 178 131 151
0.189199 -0.382562 3.6242 160 116 133
0.218171 -0.323519 3.59622 20 0 0
0.246066 -0.395508 3.61437 22 1 0
0.26906 -0.372707 3.5992 33 0 0
0.216854 -0.140285 3.51445 106 56 59
0.231196 -0.140245 3.51325 13 0 0
0.316821 -0.336765 3.57667 180 140 149
0.315884 -0.290257 3.56023 28 0 1
0.295483 -0.197948 3.52729 131 83 81
0.385217 -0.404389 3.58449 179 158 167
0.341783 -0.258238 3.54012 36 0 0
0.357362 -0.297743 3.55099 36 0 0
0.358181 -0.2672 3.54086 176 157 159
0.37882 -0.268195 3.53497 29 0 0
0.417908 -0.384053 3.57161 38 0 0
0.152717 -0.400595 3.62425 142 107 114
0.207503 -0.406196 3.66006 19 0 0
0.228107 -0.385153 3.69851 20 0 0
0.379519 -0.345067 3.50561 38 0 0
