ply
format ascii 1.0
element vertex 48
property float x 
property float y 
property float z 
end_header
0.739252 0.108179 4.08747
0.473064 0.107405 4.16863
0.214678 0.11192 4.20946
-0.0543618 0.106691 4.2187
-0.318099 0.109133 4.19415
-0.583656 0.109226 4.13361
-0.840739 0.108617 4.03899
-1.07595 0.102187 3.91433
-1.3026 0.0949969 3.75724
-1.50952 0.0866723 3.56653
-1.68254 0.08149 3.35844
-1.8266 0.0747645 3.13282
-1.94507 0.0631806 2.88245
-2.03196 0.0563402 2.60747
-2.0781 0.0482597 2.34252
-2.08945 0.0470782 2.06806
-2.06557 0.0448962 1.79626
-2.00793 0.0435634 1.5324
-1.91723 0.0418457 1.27986
-1.79424 0.0399426 1.03817
-1.64274 0.0349293 0.815874
-1.46258 0.0326738 0.614282
-1.25992 0.0290741 0.437998
-1.03307 0.0260916 0.288131
-0.783674 0.0189783 0.162996
-0.52281 0.010496 0.0711875
-0.261285 0.00383038 0.0177144
0 0 0
0.257221 -0.000494794 0.0150748
0.5071 -0.000133647 0.0623447
0.746348 0.00238015 0.138841
0.970443 0.00530615 0.241273
1.18144 0.00884708 0.371376
1.37279 0.0149067 0.5231
1.54778 0.0244567 0.699678
1.70243 0.0346215 0.89539
1.84931 0.051909 1.14401
1.96888 0.0577114 1.42146
2.0492 0.0650974 1.71522
2.08707 0.0680036 2.03869
2.07945 0.0672857 2.32344
2.03467 0.0718483 2.59605
1.9579 0.0755019 2.85067
1.85493 0.0806132 3.08413
1.73096 0.0810047 3.29506
1.57643 0.0852064 3.49957
1.34669 0.0945877 3.72905
1.06703 0.0985122 3.92925
