ply
format ascii 1.0
element vertex 42
property float x 
property float y 
property float z 
end_header
-1.80705 -0.44906 3.59043
1.76966 0.467081 -3.56218
-1.80864 -0.00771418 0.134426
-1.81079 -0.0152714 0.167548
-1.81563 -0.0238392 0.201628
-1.81627 -0.027251 0.232079
-1.91359 -0.0544317 0.377798
-1.84537 -0.0682401 0.376519
-1.83572 -0.0772292 0.367674
-1.825 -0.0702464 0.363064
-1.81619 -0.0620924 0.358345
-1.80961 -0.0511869 0.358863
-1.80767 0.0630806 0.365618
-1.8012 0.081658 0.359915
-1.20561 0.0154884 0.0202378
-0.837614 0.00979382 -0.108119
-0.457602 0.0109574 -0.188986
-0.166003 0.00801958 -0.212056
0.210099 0.00138107 -0.210614
0.27768 0.00235278 -0.21077
0.347388 0.00500619 -0.207831
0.523568 0.0155173 -0.198432
0.721009 0.0340554 -0.14965
1.88384 0.11858 0.113535
2.0637 0.188632 0.285762
2.84171 0.216277 0.585347
3.63164 0.223676 0.993539
4.4241 0.225425 1.54663
5.10329 0.228214 2.17125
5.68215 0.241958 2.85889
6.2484 0.275733 3.77129
6.61348 0.293076 4.62639
6.87424 0.307871 5.58659
6.91861 0.442908 7.60857
6.74672 0.508542 8.55537
6.56149 0.51279 9.21033
6.16015 0.533949 10.1072
5.63431 0.548574 10.9507
5.12413 0.562358 11.5936
5.1524 0.564539 11.6063
5.11434 0.532513 11.6253
5.07451 0.502729 11.6466
