ply
format ascii 1.0
element vertex 337
property float x
property float y
property float z
property uchar red
property uchar green
property uchar blue
end_header
-0.488301 0.00255906 3.47315 113 1 0
-0.482047 -0.0167096 3.45478 244 238 238
-0.436673 -0.641635 3.56188 108 0 0
-0.420833 -0.00748081 3.49517 250 249 247
-0.406567 -0.657171 3.54785 150 0 2
-0.406567 -0.657171 3.54785 150 0 2
-0.386263 -0.667025 3.54823 240 233 215
-0.384205 -0.648397 3.54966 131 1 0
-0.380717 -0.597545 3.5855 98 0 1
-0.356105 -0.636643 3.5575 132 0 3
-0.356105 -0.636643 3.5575 132 0 3
-0.349192 -0.629484 3.56196 248 245 252
-0.306432 -0.617737 3.56662 99 1 0
-0.299131 -0.573152 3.59653 107 1 1
-0.292332 -0.585551 3.58711 99 0 0
-0.296853 -0.466977 3.66214 79 0 0
-0.291973 -0.564621 3.60047 240 238 241
-0.280014 -0.600498 3.57524 240 240 240
-0.262201 -0.514333 3.63289 126 0 1
-0.242723 -0.507216 3.63851 239 234 240
-0.236069 -0.54003 3.60918 96 1 0
-0.235258 -0.556174 3.59724 242 232 243
-0.235616 -0.540179 3.60785 95 1 1
-0.235616 -0.540179 3.60785 95 1 1
-0.229316 -0.589632 3.57556 70 0 2
-0.223963 -0.556776 3.59874 91 0 0
-0.221249 -0.545616 3.6051 233 231 236
-0.213395 -0.560457 3.59738 241 233 244
-0.213395 -0.560457 3.59738 241 233 244
-0.21313 -0.560691 3.59657 239 225 242
-0.21313 -0.560691 3.59657 239 225 242
-0.207465 -0.568225 3.59099 236 229 237
-0.207465 -0.568225 3.59099 236 229 237
-0.192098 -0.562476 3.59848 233 230 237
-0.187484 -0.575067 3.58006 84 0 2
-0.187484 -0.575067 3.58006 84 0 2
-0.181484 -0.551539 3.59251 89 1 0
-0.174904 -0.574626 3.58002 250 245 241
-0.173946 -0.560489 3.58687 239 227 237
-0.172409 -0.527377 3.60912 231 232 236
-0.168591 -0.54014 3.60168 232 231 237
-0.167372 -0.553901 3.59223 240 229 243
-0.15037 -0.553437 3.59341 80 0 0
-0.146072 -0.213504 3.57431 204 175 205
-0.138683 -0.451786 3.67179 231 221 230
-0.129366 -0.547917 3.59098 233 230 237
-0.129366 -0.547917 3.59098 233 230 237
-0.127011 -0.420957 3.68795 57 0 0
-0.127011 -0.420957 3.68795 57 0 0
-0.120639 -0.552271 3.58791 106 0 0
-0.12063 -0.492869 3.63368 237 223 236
-0.111364 -0.551346 3.59196 252 254 253
-0.110419 -0.550685 3.58903 254 255 253
-0.100364 -0.448994 3.66006 89 0 1
-0.0859861 0.0348864 3.2266 94 0 0
-0.0859861 0.0348864 3.2266 94 0 0
-0.0977683 -0.34874 3.75826 39 1 0
-0.0945108 -0.476586 3.6386 238 222 232
-0.0861753 -0.227318 3.57104 61 1 3
-0.082018 -0.450272 3.66194 230 225 232
-0.0752418 -0.525846 3.59945 231 225 229
-0.0693559 -0.493396 3.62748 219 208 224
-0.0693559 -0.493396 3.62748 219 208 224
-0.0596769 -0.518651 3.60662 222 218 233
-0.0575789 -0.421659 3.58835 88 0 0
-0.045868 -0.5142 3.60916 226 220 232
-0.0414217 -0.52816 3.61164 254 255 255
-0.0405664 -0.48469 3.62738 70 0 0
-0.0300924 -0.213827 3.60101 188 173 192
-0.0300924 -0.213827 3.60101 188 173 192
-0.0286013 -0.503308 3.61692 238 218 229
-0.0204376 -0.470419 3.63528 76 2 3
-0.0201539 -0.507325 3.60321 68 0 0
-0.0171067 -0.463662 3.64358 228 205 225
-0.0171067 -0.463662 3.64358 228 205 225
-0.00859693 -0.452214 3.6493 220 206 219
-0.00355131 -0.45765 3.64585 221 207 220
-0.00348219 -0.27642 3.75958 255 255 253
-0.00264322 -0.506135 3.60021 64 0 1
0.0139633 -0.508523 3.599 255 255 255
0.0265108 -0.493639 3.60712 60 0 4
0.0292091 -0.504739 3.6001 245 244 240
0.0315276 -0.482203 3.61624 58 0 3
0.0326654 -0.472922 3.62269 213 206 222
0.0363289 -0.229592 3.60906 90 2 1
0.0575929 -0.0844565 3.28974 104 0 1
0.0637429 -0.467922 3.61026 53 0 3
0.0638237 -0.098474 3.28988 111 0 0
0.0638237 -0.098474 3.28988 111 0 0
0.0726246 -0.0988535 3.29689 246 235 233
0.0735738 -0.0883999 3.30155 103 0 0
0.0835745 -0.0857256 3.31326 94 0 0
0.097268 -0.441804 3.63658 205 197 212
0.087675 -0.128022 3.28531 247 252 246
0.099718 -0.427034 3.6467 71 0 0
0.100475 -0.405927 3.66577 40 0 0
0.0952169 -0.0234409 3.37715 253 248 244
0.11203 -0.4553 3.62814 55 1 0
0.117867 -0.322779 3.73473 185 156 184
0.119954 -0.403265 3.6658 202 174 197
0.114304 0.0556412 3.46285 249 250 245
0.125138 -0.282205 3.77654 181 139 185
0.113408 0.00163964 3.41574 245 244 242
0.11345 -0.0154755 3.39824 118 0 0
0.112819 -0.111178 3.32834 111 0 0
0.116598 -0.037035 3.38747 244 243 241
0.120957 -0.0685164 3.37416 104 0 0
0.120957 -0.0685164 3.37416 104 0 0
0.126066 0.0847914 3.50308 250 232 230
0.120909 -0.120182 3.33086 255 241 238
0.120909 -0.120182 3.33086 255 241 238
0.121269 -0.133318 3.32761 103 0 0
0.134048 -0.416518 3.65557 198 179 198
0.127466 0.0467925 3.46931 120 0 0
0.13605 -0.0466403 3.40743 106 0 0
0.151014 -0.383847 3.67383 49 1 0
0.150913 -0.44958 3.6146 41 0 0
0.138532 -0.141106 3.32879 249 250 245
0.150343 0.095425 3.54217 255 241 238
0.163058 -0.419031 3.63636 49 0 0
0.171827 -0.394655 3.66067 21 0 0
0.163665 -0.0870443 3.41341 103 0 0
0.17251 0.116551 3.59125 255 240 240
0.162533 -0.146198 3.36975 107 2 0
0.182237 -0.427734 3.62772 177 159 175
0.185074 -0.369623 3.67378 192 169 189
0.170583 -0.13421 3.38302 109 0 0
0.178193 -0.0416681 3.47003 100 0 0
0.176892 -0.0795469 3.42838 249 246 241
0.179756 -0.031804 3.48263 106 0 0
0.189716 -0.399546 3.65325 184 166 188
0.177705 -0.0928664 3.42689 105 1 0
0.19165 -0.420163 3.62953 196 171 193
0.181336 -0.11326 3.41332 114 0 2
0.204575 -0.404385 3.64299 34 0 0
0.192123 -0.100183 3.42508 248 245 240
0.196558 -0.0894737 3.45254 247 247 245
0.201966 -0.0170896 3.51412 106 1 0
0.196908 -0.148031 3.40344 108 0 0
0.203009 -0.0502105 3.50029 248 245 238
0.216018 -0.34066 3.70335 49 0 3
0.200905 -0.137259 3.41872 250 251 245
0.21434 0.0550803 3.59109 250 249 245
0.214673 0.054963 3.5896 250 249 245
0.224901 -0.0644392 3.50934 255 244 244
0.229237 -0.185158 3.41689 98 0 0
0.245186 -0.0258738 3.57349 104 0 1
0.224215 -0.703184 3.11475 166 124 134
0.246012 -0.172208 3.44856 104 0 0
0.266255 -0.0144461 3.60831 101 1 1
0.230737 -0.714608 3.08645 237 247 248
0.270596 -0.0876184 3.54999 108 0 0
0.270596 -0.0876184 3.54999 108 0 0
0.272738 -0.0985366 3.54429 247 245 248
0.247561 -0.712796 3.07583 65 1 1
0.294768 -0.0911342 3.58241 255 238 234
0.300611 -0.164023 3.52618 255 242 236
0.319232 -0.128029 3.55937 246 244 245
0.314853 -0.415985 3.42822 227 226 231
0.295272 -0.825211 3.08889 225 12 58
0.309232 -0.575682 3.25316 222 221 226
0.3464 -0.088362 3.6578 244 243 241
0.355496 0.036206 3.73694 252 247 244
0.341263 -0.376169 3.47794 227 227 227
0.363419 -0.116489 3.65477 116 0 0
0.364214 -0.128259 3.62534 115 0 0
0.336543 -0.530738 3.28595 94 7 15
0.336543 -0.530738 3.28595 94 7 15
0.365396 -0.262564 3.50168 255 250 246
0.395779 -0.0895189 3.69418 119 1 0
0.380062 -0.361875 3.49517 222 228 224
0.386889 -0.39552 3.46714 232 228 227
0.403505 -0.168542 3.62484 253 239 236
0.403505 -0.168542 3.62484 253 239 236
0.387507 -0.387572 3.46962 235 233 236
0.428026 -0.0242581 3.77902 123 1 0
0.358799 -0.803647 3.10205 212 16 66
0.358799 -0.803647 3.10205 212 16 66
0.395054 -0.411725 3.43706 79 1 1
0.38931 -0.491468 3.35076 118 18 28
0.408669 -0.392851 3.46445 101 1 3
0.408669 -0.392851 3.46445 101 1 3
0.39826 -0.494262 3.34909 231 228 223
0.443744 -0.0652758 3.74783 186 115 155
0.4264 -0.428558 3.42298 251 231 233
0.4264 -0.428558 3.42298 251 231 233
0.439042 -0.357784 3.50635 233 231 234
0.439042 -0.357784 3.50635 233 231 234
0.444652 -0.389399 3.47545 240 240 242
0.444652 -0.389399 3.47545 240 240 242
0.477788 -0.0875905 3.74554 254 245 250
0.477788 -0.0875905 3.74554 254 245 250
0.441461 -0.411729 3.44122 75 1 0
0.45169 -0.37087 3.49697 80 2 2
0.414551 -0.841165 3.10674 223 41 102
0.46538 -0.374841 3.49411 217 192 196
0.464401 -0.405559 3.459 109 0 0
0.464401 -0.405559 3.459 109 0 0
0.475287 -0.394565 3.46909 86 2 2
0.519627 -0.10296 3.75398 251 251 251
0.533471 -0.0811925 3.77809 66 0 1
0.549088 -0.0243358 3.84577 112 0 0
0.570008 -0.0617609 3.84414 253 253 253
0.469152 -0.791543 3.08437 185 12 68
0.48941 -0.851734 3.11651 238 227 209
0.486447 -0.809502 3.09786 255 255 255
0.5968 -0.054368 3.84175 142 0 1
0.494693 -0.840016 3.1178 255 254 255
0.505847 -0.794058 3.10187 141 25 36
0.632235 -0.0803961 3.83685 254 253 251
0.597492 -0.837381 3.13115 123 0 3
0.0636204 -0.0985446 3.27781 111 0 0
0.478894 -0.0898614 3.75788 254 245 250
0.462975 -0.782419 3.07253 254 245 250
0.476784 -0.832188 3.10786 217 16 71
0.510703 -0.800599 3.12748 141 25 36
0.528696 -0.799143 3.09828 197 107 133
-0.297412 -0.594216 3.57678 97 1 2
-0.180248 -0.459084 3.66723 81 0 0
0.0767765 -0.0988654 3.28208 252 240 242
0.0868566 -0.0870602 3.29985 98 0 1
-0.160979 -0.566222 3.58156 81 1 0
0.0978693 -0.0229933 3.36729 250 244 244
-0.12804 -0.410953 3.69848 218 188 200
0.108224 -0.00364421 3.39629 133 0 19
0.120066 0.0719262 3.47444 114 0 0
0.100076 -0.114851 3.30116 246 246 244
0.115952 -0.0170788 3.38689 114 0 0
0.134539 0.076324 3.50432 252 237 230
0.123495 -0.0689587 3.36366 100 0 0
0.136509 0.0403125 3.47918 255 242 239
0.140938 -0.142803 3.31689 246 248 247
0.170787 0.157291 3.62924 253 250 245
-0.0456175 -0.501101 3.61167 69 1 2
0.166278 -0.0868945 3.40177 112 0 0
0.178514 0.0225118 3.52082 132 0 4
0.168331 -0.108438 3.39138 253 245 243
0.161828 -0.162226 3.34572 250 248 249
0.164773 -0.145999 3.35994 99 0 1
0.201301 0.138762 3.65458 253 248 244
0.209641 0.0995035 3.62424 114 0 0
0.180454 -0.16349 3.36203 253 227 228
0.191931 -0.159898 3.37613 102 0 2
0.229137 0.175121 3.7889 235 236 238
0.21371 -0.142037 3.42874 114 0 0
0.208625 -0.192528 3.3749 106 0 0
0.23939 -0.060247 3.52701 110 0 0
0.236934 -0.174872 3.4378 113 1 0
0.26234 -0.0795891 3.54661 239 239 241
0.284679 -0.0710042 3.59294 109 0 0
0.289316 -0.0823849 3.58927 114 0 0
0.339279 -0.138596 3.58647 253 248 244
0.34448 -0.129935 3.62107 254 245 240
0.393256 -0.0907303 3.70738 106 1 0
0.39431 -0.108701 3.69463 91 2 0
0.394679 -0.132927 3.66563 255 244 242
0.398318 -0.126261 3.67589 104 0 0
0.344046 -0.402695 3.44471 236 220 220
0.345657 -0.426252 3.41372 100 1 4
0.401372 -0.169466 3.63605 253 231 233
0.358761 -0.430841 3.4113 233 227 227
0.339855 -0.745084 3.02525 255 255 255
0.472587 -0.783071 3.06701 213 58 116
0.473858 -0.824259 3.09941 238 62 124
0.499353 -0.800547 3.14602 162 35 52
0.509365 -0.793112 3.08841 247 245 248
0.542742 -0.826011 3.1013 255 255 255
0.276512 1.83182 -12.8154 254 255 255
-0.40444 -0.646921 3.55678 255 253 255
-0.301126 -0.609154 3.57136 255 254 250
-0.263933 -0.50937 3.65596 245 241 242
-0.251786 -0.50759 3.65814 243 243 245
-0.216058 -0.584295 3.57907 243 244 248
-0.199801 -0.549299 3.60625 242 246 247
-0.19092 -0.459756 3.67344 88 0 0
-0.138662 -0.540238 3.60387 245 243 244
-0.140578 -0.524291 3.61891 237 238 240
-0.112364 -0.54271 3.59969 84 0 0
-0.020806 -0.452508 3.64417 58 0 1
0.038802 -0.500793 3.6053 71 0 0
0.0558648 -0.439073 3.63496 212 211 227
0.066392 -0.471512 3.62873 75 1 0
0.0940754 -0.451058 3.62724 81 0 1
0.123948 -0.44786 3.62709 213 214 218
0.141773 -0.46455 3.61695 239 223 234
0.109776 -0.320147 3.70648 45 0 0
0.144459 -0.379986 3.66431 48 0 0
0.156586 -0.398856 3.6446 189 187 208
0.242689 -0.423774 3.6199 51 0 3
0.146702 -0.457155 3.60499 237 235 238
0.149244 -0.385542 3.63711 141 98 117
0.156463 -0.392382 3.62778 141 98 117
0.224621 -0.392417 3.66801 143 100 120
0.214198 0.0796907 3.44409 233 198 194
-0.0498458 -0.156399 3.7029 164 0 1
0.252655 -0.505402 3.51005 253 255 252
0.24142 -0.422778 3.51008 20 0 0
0.337936 -0.375413 3.46361 178 130 142
0.360284 -0.346134 3.49202 26 2 0
0.237379 -0.192834 3.31275 78 0 0
0.126543 -0.718362 3.33809 246 239 229
0.150106 -0.677373 3.37418 168 135 146
0.173787 -0.651021 3.39585 56 0 0
0.271351 -0.530346 3.47965 224 212 224
0.235275 -0.504654 3.52306 253 255 252
0.236818 -0.494723 3.53454 185 165 177
0.218612 -0.491172 3.54554 115 1 1
0.210162 -0.470353 3.57343 182 158 171
0.264833 -0.463193 3.56104 148 117 132
0.224934 -0.44675 3.59486 145 126 130
0.156208 -0.404083 3.67146 165 132 151
0.145222 -0.392418 3.68894 24 0 0
0.262969 -0.404158 3.63086 138 90 104
0.199803 -0.385662 3.67555 143 100 120
0.13875 -0.367343 3.72058 152 119 136
0.106572 -0.337338 3.76867 24 0 2
0.130791 -0.337752 3.75786 152 116 130
0.105331 -0.325061 3.78282 30 0 0
0.0918342 -0.308354 3.80772 31 1 1
0.0967159 -0.284579 3.83159 31 0 0
0.0694527 -0.216468 3.91395 241 234 224
0.232213 -0.556734 3.49521 248 246 247
0.2543 -0.513014 3.49703 252 254 253
0.258974 -0.503253 3.49991 191 168 176
0.270878 -0.483385 3.49972 204 150 164
0.281172 -0.462376 3.49897 255 245 243
0.286787 -0.452596 3.49896 71 2 0
0.304975 -0.420074 3.49767 252 250 251
0.345251 -0.357283 3.49752 179 158 167
0.16139 -0.407719 3.68222 142 107 114
0.190369 -0.401391 3.66526 160 116 133
0.0741358 -0.674181 3.14426 255 180 200
0.0865051 -0.671628 3.13645 255 229 238
0.403171 -0.492629 3.70398 11 0 0
0.451275 -0.497187 3.68747 6 0 0
0.468682 -0.49818 3.67569 129 74 103
0.502257 -0.50114 3.67271 132 77 98
