ply
format ascii 1.0
element vertex 48
property float x 
property float y 
property float z 
end_header
-2.3707 -0.0503375 0.812148
-1.92523 -0.0307414 0.512391
-1.46698 -0.014697 0.288214
-0.990382 -0.00692323 0.130053
-0.500108 -0.00335965 0.0336042
0 0 0
0.500285 -0.00191578 0.0302958
0.992423 -0.00394811 0.122804
1.46844 -0.00553459 0.275566
1.92648 -0.00516896 0.490934
2.36471 -0.00726621 0.768857
2.76864 -0.00943509 1.10696
3.1338 -0.013563 1.50417
3.43166 -0.0112589 1.93016
3.66962 -0.01218 2.39209
3.85021 -0.0137912 2.89003
3.9669 -0.0227018 3.40002
4.01844 -0.0235303 3.92642
4.00002 -0.0210755 4.4623
3.91143 -0.019648 4.98067
3.75414 -0.0152736 5.48655
3.53234 -0.0101362 5.96165
3.2438 -0.00282301 6.41131
2.8982 -0.00149909 6.81323
2.49999 0.00118816 7.16284
1.92188 -0.104127 7.56826
1.54725 -0.0500712 7.75891
1.07732 -0.047162 7.91432
0.59448 -0.0597962 8.01664
0.0885694 -0.0573122 8.06247
-0.414533 -0.0759221 8.039
-0.921576 -0.0828784 7.95461
-1.43694 -0.0834017 7.80323
-1.94291 -0.0808282 7.57471
-2.40269 -0.0868574 7.28769
-2.88762 -0.0547885 6.87492
-3.21958 -0.0336155 6.46585
-3.49788 -0.028349 6.02839
-3.70765 -0.0286424 5.59416
-3.87139 -0.0302865 5.11686
-3.97228 -0.0317623 4.63308
-4.01174 -0.0419123 4.13765
-3.98751 -0.0578009 3.63813
-3.89608 -0.0727739 3.1262
-3.7334 -0.0922863 2.62361
-3.49183 -0.102976 2.11958
-3.17544 -0.116712 1.64405
-2.79136 -0.0976467 1.19796
