ply
format ascii 1.0
element vertex 15
property float x 
property float y 
property float z 
end_header
-1.78633 -0.0360238 8.26945
0.261906 -1.00388 -3.49252
0.475674 -0.497853 7.46304
-0.0911919 -0.0316149 -1.10868
-4.65303 -0.032093 -2.98351
3.59614 0.596126 -4.62921
-0.629208 -0.518384 -3.90621
0.177262 -0.0853533 0.438723
-1.07188 -0.402473 0.536918
-2.30822 -1.08937 1.606
1.396 2.41171 -5.93824
-0.874236 -3.30484 3.10284
3.73256 0.429513 -0.0708938
2.43828 -3.11137 1.77222
16.1387 162.271 169.696
