ply
format ascii 1.0
element vertex 327
property float x
property float y
property float z
property uchar red
property uchar green
property uchar blue
end_header
-0.582419 -0.0445027 4.22874 113 1 0
-0.574818 -0.0646705 4.20981 244 238 238
-0.448763 -0.733033 4.3078 108 0 0
-0.506798 -0.0484316 4.24723 250 249 247
-0.415499 -0.747164 4.29274 150 0 2
-0.415499 -0.747164 4.29274 150 0 2
-0.39253 -0.755693 4.29222 240 233 215
-0.392385 -0.735612 4.29378 131 1 0
-0.392384 -0.67998 4.32903 98 0 1
-0.363077 -0.720128 4.30047 132 0 3
-0.363077 -0.720128 4.30047 132 0 3
-0.356225 -0.711686 4.30471 248 245 252
-0.311321 -0.694875 4.30795 99 1 0
-0.306969 -0.645734 4.33745 107 1 1
-0.298739 -0.658563 4.3279 99 0 0
-0.313052 -0.530652 4.40252 79 0 0
-0.300032 -0.635826 4.34117 240 238 241
-0.284398 -0.673654 4.31574 240 240 240
-0.272072 -0.578414 4.37258 126 0 1
-0.25169 -0.56876 4.37775 239 234 240
-0.242234 -0.603857 4.34837 96 1 0
-0.240118 -0.62133 4.33648 242 232 243
-0.241786 -0.604006 4.34703 95 1 1
-0.241786 -0.604006 4.34703 95 1 1
-0.230993 -0.657082 4.31475 70 0 2
-0.227818 -0.620821 4.33765 91 0 0
-0.225856 -0.608465 4.34399 233 231 236
-0.216103 -0.623747 4.3361 241 233 244
-0.216103 -0.623747 4.3361 241 233 244
-0.215823 -0.623991 4.33527 239 225 242
-0.215823 -0.623991 4.33527 239 225 242
-0.20913 -0.631632 4.32957 236 229 237
-0.20913 -0.631632 4.32957 236 229 237
-0.192887 -0.62377 4.33666 233 230 237
-0.187304 -0.637271 4.31828 84 0 2
-0.187304 -0.637271 4.31828 84 0 2
-0.182899 -0.611187 4.33059 89 1 0
-0.173786 -0.635557 4.31799 250 245 241
-0.174018 -0.620159 4.32479 239 227 237
-0.175089 -0.584029 4.34703 231 232 236
-0.169872 -0.597483 4.33947 232 231 237
-0.167434 -0.612321 4.33001 240 229 243
-0.149098 -0.610106 4.33086 80 0 0
-0.182228 -0.243567 4.31399 204 175 205
-0.144527 -0.498472 4.40882 231 221 230
-0.127125 -0.602171 4.32811 233 230 237
-0.127125 -0.602171 4.32811 233 230 237
-0.134694 -0.46404 4.42478 57 0 0
-0.134694 -0.46404 4.42478 57 0 0
-0.11734 -0.606039 4.32488 106 0 0
-0.12208 -0.541374 4.37059 237 223 236
-0.107278 -0.604021 4.32878 252 254 253
-0.106436 -0.603294 4.32586 254 255 253
-0.10403 -0.491842 4.39671 89 0 1
-0.157577 0.0386247 3.95907 94 0 0
-0.157577 0.0386247 3.95907 94 0 0
-0.108482 -0.382904 4.49407 39 1 0
-0.0955101 -0.521213 4.3752 238 222 232
-0.11584 -0.252278 4.30942 61 1 3
-0.0840653 -0.491321 4.39832 230 225 232
-0.0707523 -0.572907 4.33582 231 225 229
-0.0669471 -0.536914 4.36376 219 208 224
-0.0669471 -0.536914 4.36376 219 208 224
-0.0544704 -0.563462 4.3428 222 218 233
-0.0632344 -0.459367 4.32497 88 0 0
-0.0399463 -0.557243 4.34521 226 220 232
-0.0335695 -0.571699 4.34758 254 255 255
-0.0368088 -0.524683 4.36345 70 0 0
-0.0553579 -0.231681 4.33884 188 173 192
-0.0553579 -0.231681 4.33884 188 173 192
-0.0222137 -0.543651 4.35283 238 218 229
-0.016353 -0.507179 4.3712 76 2 3
-0.0130668 -0.547404 4.33909 68 0 0
-0.0132284 -0.499435 4.37946 228 205 225
-0.0132284 -0.499435 4.37946 228 205 225
-0.00509322 -0.486186 4.38516 220 206 219
0.000831981 -0.491565 4.38166 221 207 220
-0.0149968 -0.295828 4.49538 255 255 253
0.00566193 -0.544419 4.33597 64 0 1
0.0238552 -0.545325 4.33466 255 255 255
0.0360751 -0.527892 4.34277 60 0 4
0.0399875 -0.539685 4.33571 245 244 240
0.0405329 -0.514914 4.35191 58 0 3
0.0409506 -0.504701 4.35838 213 206 222
0.0186723 -0.241763 4.34627 90 2 1
0.017348 -0.079108 4.02025 104 0 1
0.0737434 -0.496394 4.34596 53 0 3
0.0258004 -0.0939971 4.02018 111 0 0
0.0258004 -0.0939971 4.02018 111 0 0
0.0358046 -0.0935141 4.02742 246 235 233
0.0358451 -0.0818433 4.0324 103 0 0
0.0469611 -0.0778842 4.04458 94 0 0
0.107893 -0.464391 4.37239 205 197 212
0.0553868 -0.124184 4.01488 247 252 246
0.109214 -0.44809 4.38256 71 0 0
0.108233 -0.425035 4.40167 40 0 0
0.0547444 -0.00834204 4.11168 253 248 244
0.125104 -0.477526 4.36396 55 1 0
0.119758 -0.333143 4.47063 185 156 184
0.129004 -0.420167 4.4018 202 174 197
0.0693694 0.079509 4.20103 249 250 245
0.124207 -0.288584 4.51217 181 139 185
0.0730648 0.0207818 4.15184 245 244 242
0.0745362 0.002156 4.13354 118 0 0
0.0825235 -0.103029 4.05988 111 0 0
0.080085 -0.0211771 4.12215 244 243 241
0.087992 -0.0553206 4.10797 104 0 0
0.087992 -0.0553206 4.10797 104 0 0
0.0801031 0.111978 4.24257 250 232 230
0.0925225 -0.112142 4.06241 255 241 238
0.0925225 -0.112142 4.06241 255 241 238
0.0942693 -0.126639 4.0589 103 0 0
0.145421 -0.433087 4.39161 198 179 198
0.0849369 0.0711055 4.20751 120 0 0
0.10305 -0.0298816 4.14264 106 0 0
0.1607 -0.395958 4.41011 49 1 0
0.166365 -0.467596 4.35067 41 0 0
0.114265 -0.133397 4.06005 249 250 245
0.106422 0.12543 4.28252 255 241 238
0.176728 -0.433096 4.37267 49 0 0
0.184098 -0.405595 4.39712 21 0 0
0.137982 -0.071496 4.14844 103 0 0
0.129387 0.149784 4.33257 255 240 240
0.142231 -0.136621 4.10269 107 2 0
0.198267 -0.44061 4.36418 177 159 175
0.196036 -0.377107 4.41045 192 169 189
0.150095 -0.122582 4.11659 109 0 0
0.150202 -0.0205913 4.20726 100 0 0
0.152044 -0.0619505 4.16403 249 246 241
0.151099 -0.00973992 4.22027 106 0 0
0.203842 -0.409098 4.38988 184 166 188
0.154344 -0.0765223 4.16236 105 1 0
0.20771 -0.43145 4.36611 196 171 193
0.160281 -0.0984939 4.14818 114 0 2
0.220278 -0.412909 4.37979 34 0 0
0.170979 -0.0830218 4.16054 248 245 240
0.175199 -0.0709743 4.18893 247 247 245
0.174449 0.00839462 4.25278 106 1 0
0.181008 -0.135091 4.1378 108 0 0
0.178905 -0.0276356 4.2383 248 245 238
0.22691 -0.342403 4.44038 49 0 3
0.184522 -0.122859 4.1537 250 251 245
0.181564 0.0873202 4.33187 250 249 245
0.181914 0.0872598 4.33036 250 249 245
0.204574 -0.0409894 4.24763 255 244 244
0.220834 -0.172556 4.15176 98 0 0
0.223596 0.00258674 4.31346 104 0 1
0.265903 -0.749066 3.83568 166 124 134
0.238369 -0.15661 4.18471 104 0 0
0.245816 0.0168236 4.34903 101 1 1
0.274051 -0.761993 3.80568 237 247 248
0.257617 -0.0618553 4.28939 108 0 0
0.257617 -0.0618553 4.28939 108 0 0
0.261055 -0.0735417 4.28355 247 245 248
0.292559 -0.758625 3.79444 65 1 1
0.284747 -0.0634172 4.32261 255 238 234
0.298292 -0.142055 4.26511 255 242 236
0.315136 -0.100854 4.29947 246 244 245
0.339477 -0.416848 4.16403 227 226 231
0.357646 -0.876688 3.81024 225 12 58
0.348573 -0.595942 3.98228 222 221 226
0.341255 -0.0555526 4.39944 244 243 241
0.338442 0.0792632 4.47963 252 247 244
0.364653 -0.36992 4.21569 227 227 227
0.362672 -0.0842818 4.39656 116 0 0
0.364625 -0.0967632 4.36701 115 0 0
0.374405 -0.542894 4.0171 94 7 15
0.374405 -0.542894 4.0171 94 7 15
0.379417 -0.24296 4.24104 255 250 246
0.395076 -0.0519212 4.4369 119 1 0
0.405753 -0.350013 4.23435 222 228 224
0.416635 -0.386349 4.20582 232 228 227
0.41157 -0.136393 4.36723 253 239 236
0.41157 -0.136393 4.36723 253 239 236
0.416501 -0.37757 4.20841 235 233 236
0.42319 0.0210519 4.52218 123 1 0
0.426425 -0.846024 3.82515 212 16 66
0.426425 -0.846024 3.82515 212 16 66
0.427212 -0.403555 4.17523 79 1 1
0.428945 -0.492928 4.08594 118 18 28
0.440249 -0.381145 4.20374 101 1 3
0.440249 -0.381145 4.20374 101 1 3
0.439114 -0.495091 4.08447 231 228 223
0.444433 -0.0211605 4.49155 186 115 155
0.463395 -0.418853 4.16172 251 231 233
0.463395 -0.418853 4.16172 251 231 233
0.469908 -0.339153 4.24756 233 231 234
0.469908 -0.339153 4.24756 233 231 234
0.479349 -0.373408 4.21616 240 240 242
0.479349 -0.373408 4.21616 240 240 242
0.483495 -0.0415975 4.49011 254 245 250
0.483495 -0.0415975 4.49011 254 245 250
0.4782 -0.398561 4.18099 75 1 0
0.485114 -0.352191 4.2384 80 2 2
0.492445 -0.881218 3.83182 223 41 102
0.500523 -0.355111 4.23593 217 192 196
0.502711 -0.389166 4.2 109 0 0
0.502711 -0.389166 4.2 109 0 0
0.513491 -0.375844 4.21074 86 2 2
0.530176 -0.0538356 4.49964 251 251 251
0.542659 -0.0291037 4.52396 66 0 1
0.552993 0.0328253 4.591 112 0 0
0.579319 -0.00513339 4.58976 253 253 253
0.548636 -0.822136 3.80921 185 12 68
0.576995 -0.884703 3.84453 238 227 209
0.569669 -0.839499 3.82436 255 255 255
0.607277 0.0056929 4.58845 142 0 1
0.581731 -0.871289 3.84599 255 254 255
0.589814 -0.820409 3.82917 141 25 36
0.648003 -0.0184385 4.58477 254 253 251
0.696084 -0.857249 3.8642 123 0 3
0.0253862 -0.0933897 4.0096 111 0 0
0.489273 -0.0439903 4.5329 254 245 250
0.539024 -0.812666 3.7904 254 245 250
0.559594 -0.865719 3.83185 217 16 71
0.594378 -0.826855 3.8545 141 25 36
0.614249 -0.824177 3.82246 197 107 133
-0.311709 -0.673784 4.34119 97 1 2
-0.199376 -0.516689 4.43975 81 0 0
0.0394529 -0.0924979 4.01473 252 240 242
0.0495746 -0.0783615 4.03449 98 0 1
-0.168071 -0.630969 4.34669 81 1 0
0.0552113 -0.00718827 4.11014 250 244 244
-0.147922 -0.459324 4.474 218 188 200
0.064761 0.0149251 4.14246 133 0 19
0.0701093 0.0982488 4.22961 114 0 0
0.0671989 -0.108049 4.03563 246 246 244
0.0747897 0.00121859 4.13179 114 0 0
0.0857042 0.104157 4.26267 252 237 230
0.0886064 -0.0551564 4.10552 100 0 0
0.0916213 0.0651803 4.23466 255 242 239
0.115902 -0.134469 4.05254 246 248 247
0.117112 0.19436 4.40086 253 250 245
-0.0500865 -0.549181 4.38034 69 1 2
0.138024 -0.0707891 4.14784 112 0 0
0.139778 0.0494832 4.28092 132 0 4
0.142618 -0.0942754 4.13614 253 245 243
0.141108 -0.154303 4.08484 250 248 249
0.142678 -0.136025 4.1008 99 0 1
0.152356 0.176983 4.42905 253 248 244
0.165658 0.135627 4.39574 114 0 0
0.16193 -0.153774 4.10309 253 227 228
0.174323 -0.148515 4.1189 102 0 2
0.178302 0.216366 4.57672 235 236 238
0.196292 -0.127018 4.17814 114 0 0
0.196245 -0.183012 4.11759 106 0 0
0.215564 -0.0348747 4.28824 110 0 0
0.225354 -0.160987 4.18857 113 1 0
0.242637 -0.0540658 4.31056 239 239 241
0.265869 -0.0427907 4.36264 109 0 0
0.272137 -0.0548279 4.35874 114 0 0
0.332858 -0.111122 4.35712 253 248 244
0.33717 -0.101471 4.39591 254 245 240
0.385168 -0.0540305 4.49338 106 1 0
0.388419 -0.0733923 4.47934 91 2 0
0.391713 -0.0997492 4.44737 255 244 242
0.39485 -0.0921107 4.45886 104 0 0
0.366877 -0.402018 4.20026 236 220 220
0.371476 -0.427974 4.16548 100 1 4
0.403255 -0.138933 4.41495 253 231 233
0.386467 -0.431647 4.16313 233 227 227
0.402774 -0.785614 3.72419 255 255 255
0.553849 -0.814889 3.7774 213 58 116
0.558179 -0.860289 3.81696 238 62 124
0.583167 -0.830816 3.8717 162 35 52
0.59517 -0.822481 3.80442 247 245 248
0.635052 -0.855862 3.8222 255 255 255
0.000212802 -0.0779507 1.03259 119 1 1
-0.372979 -0.585036 3.36268 149 0 2
-0.368391 -0.575265 3.36625 255 253 255
-0.252281 -0.446278 3.4478 245 241 242
-0.24189 -0.443547 3.45262 243 243 245
-0.21535 -0.516864 3.44802 243 244 248
-0.222346 -0.492439 3.45131 111 2 0
-0.220491 -0.48178 3.45359 242 246 247
-0.200846 -0.483882 3.46171 242 246 247
-0.185629 -0.487385 3.46811 110 0 0
-0.149144 -0.474247 3.48606 245 243 244
-0.15018 -0.458895 3.48896 237 238 240
-0.0454299 -0.391442 3.54703 58 0 1
0.023422 -0.377369 3.57693 212 211 227
0.0298985 -0.404126 3.58103 75 1 0
0.0563683 -0.38612 3.59217 81 0 1
0.083001 -0.381716 3.60564 213 214 218
0.0995137 -0.395261 3.60942 239 223 234
0.114277 -0.336964 3.62545 189 187 208
0.193804 -0.354876 3.65601 51 0 3
0.748782 0.0171212 3.29624 172 120 133
0.758631 -0.0584196 3.25412 255 253 254
0.838666 -0.0644963 3.36263 128 0 0
0.856754 -0.106713 3.36004 251 240 238
0.86851 -0.12395 3.35361 253 243 241
0.882214 -0.106572 3.39635 119 0 0
0.964465 -0.135185 3.49469 95 0 0
0.0860907 -0.38717 3.65227 183 156 173
0.116065 -0.333309 3.68814 141 98 117
0.154098 -0.349197 3.79363 159 111 127
0.54468 -0.26368 3.47835 227 208 191
0.720766 -0.345243 3.7435 227 208 191
0.302496 -0.206997 3.90438 164 0 1
-0.0501929 -0.335855 3.11692 179 169 194
-0.0443378 -0.335171 3.14154 60 1 0
0.16579 -0.37892 3.73567 145 126 130
-0.0149041 -0.0390616 1.04153 19 0 0
0.00799507 -0.0496166 1.04324 165 106 112
-0.198741 0.0739363 -0.431556 12 1 0
0.248309 -0.333323 3.38636 154 104 107
0.249954 -0.280109 3.26217 178 130 142
0.242832 -0.23086 3.07368 26 2 0
0.198083 -0.336294 4.00372 30 0 0
0.192049 -0.341376 4.02407 31 1 1
0.248779 -0.308155 3.81842 253 251 255
0.254141 -0.306124 3.80144 113 1 0
0.312739 -0.280062 3.61914 38 0 0
-0.056273 -0.371879 4.93682 151 118 127
0.204336 -0.429961 3.49806 224 227 232
0.206793 -0.428074 3.55721 190 174 187
0.213626 -0.533764 4.59252 88 42 55
0.23355 -0.409516 4.1212 167 131 131
0.013505 -0.0582782 1.11127 165 106 112
0.327282 -0.449966 4.7933 49 1 0
0.321136 -0.418818 4.6248 90 0 0
0.00721116 -0.399786 3.78053 243 241 242
-0.107775 -0.368921 3.74198 247 237 236
0.428903 -0.335611 4.10858 231 222 225
0.462602 -0.516816 4.12281 100 0 0
0.360943 -0.854189 3.90367 219 7 58
