ply
format ascii 1.0
element vertex 23
property float x 
property float y 
property float z 
end_header
2.45113 0.069715 2.59248
-27.3406 0.682004 -225.179
1.57431 -2.95527 -23.02
-1.70018 0.0242715 -2.91591
-1.4092 0.000166731 0.86058
-1.41287 -0.0038165 0.841273
-1.35202 -0.0088118 0.776523
-1.12954 0.055174 0.653018
-1.12872 0.0555197 0.653895
-0.664511 0.00807551 0.414718
-0.463219 -0.00373237 0.353062
-0.287728 0.00725177 0.335022
-0.140956 0.0101666 0.31689
0.021698 0.00762556 0.310991
1.14429 0.102176 0.736055
1.92361 0.160355 1.97791
1.94966 0.192981 2.26583
-1.9781 -0.17535 -2.26297
-1.8989 -0.143038 -1.74083
2.23599 0.128065 2.7775
2.29185 0.111989 2.73232
2.34473 0.0991731 2.68761
2.39819 0.0856949 2.64138
