ply
format ascii 1.0
element vertex 48
property float x 
property float y 
property float z 
end_header
0.853752 0.0425682 4.22941
0.581192 0.0439174 4.32793
0.306086 0.0453759 4.38655
0.0419269 0.044944 4.40739
-0.217782 0.0453916 4.39497
-0.479336 0.0454933 4.34893
-0.741203 0.0435666 4.26887
-0.978462 0.0431553 4.16055
-1.19411 0.0417167 4.02778
-1.41351 0.0377411 3.85301
-1.60203 0.0357613 3.6558
-1.76013 0.0318671 3.44
-1.89094 0.0287676 3.19984
-1.99293 0.0252403 2.93343
-2.05671 0.0215354 2.66268
-2.08297 0.0196211 2.39771
-2.07527 0.0164576 2.1392
-2.03485 0.0125805 1.87299
-1.95718 0.00853983 1.59878
-1.85312 0.0062722 1.35675
-1.72081 0.00355956 1.12961
-1.55706 8.39658e-05 0.91658
-1.39291 -0.00513269 0.753771
1.12654 -0.101692 -3.85483
-0.888912 -0.00382298 0.412658
-1.19512 0.516998 -1.53673
-0.286263 -0.0131382 0.231978
-0.00210146 -0.0139025 0.21361
0.268441 -0.0139261 0.231269
0.524007 -0.0131824 0.281001
0.783644 -0.0120834 0.365099
1.03434 -0.00957125 0.48747
1.25987 -0.00660475 0.635077
1.47112 -0.00456213 0.817032
1.64333 -0.0018891 1.01098
1.80803 0.00208096 1.25618
1.93469 0.00557249 1.51438
2.02277 0.00871899 1.77646
2.07678 0.0127251 2.04283
2.09637 0.0159401 2.32029
2.0785 0.0205892 2.59573
2.02707 0.0243263 2.85971
1.94392 0.028367 3.10961
1.83654 0.0312779 3.33381
1.68542 0.0350712 3.56618
1.51285 0.0382524 3.76977
1.30993 0.0407612 3.95391
1.1146 0.0405151 4.09226
