ply
format ascii 1.0
element vertex 45
property float x 
property float y 
property float z 
end_header
-1.0378 -0.0332513 1.98821
-0.646864 -0.0418941 1.88119
-0.25035 -0.0448516 1.82383
0.145624 -0.0457079 1.81752
0.533315 -0.0475874 1.86244
0.908878 -0.0479693 1.95489
1.27043 -0.0472395 2.09424
1.61998 -0.0492614 2.28655
1.9329 -0.050643 2.51919
2.22103 -0.0519133 2.79749
2.4746 -0.0521797 3.11335
2.67813 -0.0518515 3.45426
2.88455 -0.0677096 4.01165
2.97583 -0.0675013 4.42143
3.00846 -0.0669716 4.8181
2.99034 -0.0660699 5.20452
2.92275 -0.0664953 5.58625
2.80359 -0.0665102 5.96335
2.63841 -0.0666105 6.31106
2.42945 -0.0666916 6.64273
2.17523 -0.0666188 6.94677
1.9068 -0.0746632 7.19857
1.58334 -0.075616 7.4322
1.22327 -0.0749848 7.62283
0.836388 -0.0756681 7.76446
0.427587 -0.0756137 7.85409
0.0349499 -0.0771599 7.88433
-0.360722 -0.0774908 7.86326
-0.777378 -0.077319 7.78119
-1.13506 -0.0794401 7.66109
-2.60913 -1.29457 7.15541
-2.71464 -0.0291544 5.93674
-2.66488 -0.0175055 5.93413
-2.62196 -0.036533 5.9593
-2.54907 -0.0457559 5.9984
-2.73036 -0.0945121 5.81267
-2.98144 -0.0104363 4.60094
-2.93839 -0.00996774 4.24075
-2.84777 -0.0118702 3.8701
-2.70994 -0.0120749 3.51417
-2.5276 -0.0124801 3.1788
-2.3005 -0.012999 2.86548
-2.03746 -0.0125576 2.58716
-1.74962 -0.0275589 2.36314
-1.40673 -0.027672 2.14992
