ply
format ascii 1.0
element vertex 41
property float x 
property float y 
property float z 
end_header
-1.35671 -0.0373214 -2.68898
-0.914827 -0.0480427 -2.83335
-0.534329 -0.0513362 -2.9094
-0.0761367 -0.0521558 -2.94785
0.377461 -0.0494763 -2.92912
0.817879 -0.0481309 -2.85566
1.24474 -0.0462259 -2.72936
1.66119 -0.0459053 -2.551
2.03541 -0.0429804 -2.34422
2.41874 -0.0389224 -2.06536
2.78237 -0.0383148 -1.72368
3.10216 -0.0349279 -1.33256
3.2088 -0.0160973 -1.1806
3.5151 -0.0368428 -0.600011
3.51504 -0.0179092 -0.601208
3.51249 -0.00912181 -0.616111
3.58527 -0.00135557 -0.402203
3.52829 -0.00595164 -0.518254
3.58843 -0.0296712 -0.37182
3.5801 -0.0364336 -0.444343
0.582049 0.0815673 4.4234
0.619216 0.0739489 4.39285
0.655773 0.0591166 4.36674
0.728722 0.0506356 4.35506
0.779381 0.0470256 4.34256
-3.11983 -0.017569 2.4045
-3.38607 -0.0175196 2.00696
-3.61044 -0.0254252 1.55994
-3.63114 -0.0275814 1.3343
-3.64187 -0.0365052 0.963303
-3.62558 -0.0406325 0.699234
-3.58098 -0.0275973 1.06556
-3.63679 -0.0252209 0.587251
-3.59924 -0.0235181 0.160073
-3.50241 -0.0234654 -0.295408
-3.34571 -0.0236025 -0.740841
-3.13448 -0.0238011 -1.15915
-2.86864 -0.0235493 -1.55015
-2.5486 -0.0230895 -1.90925
-2.18549 -0.0247242 -2.22208
-1.77779 -0.0259125 -2.48815
