ply
format ascii 1.0
element vertex 48
property float x 
property float y 
property float z 
end_header
-2.37223 -0.0446634 0.809587
-1.92918 -0.0193662 0.511214
-1.46941 -0.0117177 0.2884
-0.993543 -0.00287577 0.130387
-0.500588 -0.00271808 0.0335967
0 0 0
0.500286 -0.00191613 0.0302959
0.992423 -0.00394811 0.122804
1.46883 -0.00531315 0.275433
1.92634 -0.00413349 0.491073
2.36764 -0.00705474 0.776589
2.76932 -0.0129512 1.11045
3.14968 -0.0148415 1.53477
3.46486 -0.0165063 1.99529
3.70926 -0.0182574 2.4854
3.88212 -0.0177886 2.9924
3.98558 -0.0198918 3.50471
4.02105 -0.0198011 4.02597
3.98845 -0.0196965 4.54719
3.88855 -0.0191807 5.05468
3.72396 -0.0174312 5.54449
3.49944 -0.0138379 6.00617
3.212 -0.00897776 6.44262
2.87067 -0.00541636 6.83544
2.07301 0.00517009 7.55663
1.64362 0.00490387 7.75663
1.21819 -0.0140488 7.9121
0.765915 -0.0179424 8.03218
0.284975 -0.0169827 8.09841
-0.195158 -0.0183805 8.10607
-0.689729 -0.00980358 8.05042
-1.16656 -0.0221406 7.92505
-1.63107 -0.0220056 7.73867
-2.07013 -0.0217837 7.498
-2.47519 -0.0252851 7.20799
-2.86124 -0.0179472 6.85604
-3.18925 -0.0154672 6.47131
-3.47007 -0.0145302 6.04584
-3.68797 -0.0171498 5.61223
-3.85548 -0.0252578 5.14434
-3.96519 -0.0255466 4.65105
-4.00892 -0.0376715 4.15185
-3.98739 -0.0542134 3.64642
-3.89614 -0.0675654 3.1244
-3.73298 -0.0847476 2.61747
-3.49143 -0.0952255 2.11338
-3.17553 -0.107245 1.63811
-2.79251 -0.0831961 1.19128
