ply
format ascii 1.0
element vertex 48
property float x 
property float y 
property float z 
end_header
-2.30126 -0.00713406 0.959258
-1.8691 -0.0090346 0.680256
-1.4068 -0.0101274 0.461747
-0.931886 -0.010167 0.309075
-0.453074 -0.00927086 0.220479
0.0347942 -0.00922713 0.193276
0.528225 -0.00858434 0.228778
1.01243 -0.00964569 0.328305
1.48259 -0.0105498 0.489422
1.92028 -0.0102549 0.707662
2.33861 -0.0108732 0.988582
2.71737 -0.011402 1.32183
3.0538 -0.0120405 1.7142
3.3336 -0.0114842 2.14589
3.54712 -0.0130816 2.5985
3.69847 -0.0138795 3.07068
3.78647 -0.0132408 3.54809
3.81249 -0.0147506 4.02321
3.77659 -0.0143625 4.50826
3.68384 -0.0146095 4.9873
3.53118 -0.0143184 5.44707
3.31865 -0.013864 5.88959
3.03149 -0.0108946 6.32708
2.69873 -0.00983919 6.70933
2.3164 -0.00985233 7.04595
1.89045 -0.0108836 7.32986
1.43495 -0.0107433 7.55258
0.945908 -0.00956081 7.71462
0.46306 -0.0100904 7.80492
-0.0124308 -0.0106709 7.83403
-0.52312 -0.00990431 7.79716
-0.995441 -0.00903394 7.70227
-1.43684 -0.0109093 7.55433
-1.89068 -0.00988049 7.33439
-2.29245 -0.0110851 7.07208
-2.65891 -0.0127357 6.75742
-3.03186 -0.0109287 6.34445
-3.33239 -0.0091889 5.89303
-3.5512 -0.0100454 5.43824
-3.7067 -0.00928982 4.96143
-3.7978 -0.00992815 4.47122
-3.82445 -0.00984192 3.98616
-3.78825 -0.0117074 3.48643
-3.69047 -0.012023 3.01343
-3.53034 -0.0111806 2.54675
-3.31021 -0.0102964 2.10193
-3.03998 -0.00882868 1.69163
-2.70034 -0.00800389 1.30535
