ply
format ascii 1.0
element vertex 46
property float x 
property float y 
property float z 
end_header
0.658718 0.00477682 4.18556
0.423197 0.00907918 4.25403
0.185209 0.0104823 4.2925
-0.069714 0.0107391 4.29938
-0.802585 0.00823219 4.12384
-1.00508 0.00782445 4.01437
-1.23003 0.00570856 3.85482
-1.41164 0.00689811 3.68114
-1.56352 0.0104625 3.49125
-1.69716 0.0109542 3.2719
-1.80199 0.0128197 3.03068
-1.87233 0.00958198 2.78229
-1.90475 0.00479097 2.54419
-1.90585 0.00146929 2.30272
-1.87612 0.00141755 2.04808
-1.81316 0.000834922 1.80152
-1.73867 0.00181649 1.63845
-1.62188 0.00333002 1.41265
-1.47801 0.00327943 1.20918
-1.30758 0.00330391 1.02473
-1.11168 0.00306322 0.862374
-0.901211 -0.000380867 0.728906
-0.659336 0.00113758 0.618251
-0.398234 0.000614813 0.540376
-0.154247 0.000294988 0.506529
0.0968493 -0.00026604 0.502393
0.333515 -0.000923546 0.528857
0.576605 -0.000689464 0.589814
0.808925 0.00183572 0.682244
1.02391 0.00179759 0.801544
1.22021 -0.00134924 0.944441
1.39911 0.00163753 1.11816
1.55602 0.000812977 1.31417
1.68664 7.38663e-05 1.53013
1.78929 0.000859402 1.76777
1.85876 0.000835085 2.01859
1.89227 0.00152182 2.28365
1.89179 0.00212458 2.53166
1.86534 0.00201299 2.76126
1.80494 0.00155392 2.99259
1.72836 0.00145287 3.19576
1.61093 0.00138724 3.41319
1.46485 0.000600684 3.6145
1.30013 -0.00336334 3.79323
1.12344 0.000333068 3.93984
0.895037 0.00449615 4.07992
