ply
format ascii 1.0
element vertex 48
property float x 
property float y 
property float z 
end_header
-2.37066 -0.0503233 0.812063
-1.92528 -0.0308157 0.512416
-1.46711 -0.0146722 0.288252
-0.990464 -0.00691906 0.13007
-0.500162 -0.00336101 0.0336108
0 0 0
0.500286 -0.00191613 0.0302959
0.992423 -0.00394811 0.122804
1.46844 -0.00553379 0.275559
1.92649 -0.0051676 0.490927
2.36459 -0.00724332 0.768717
2.76844 -0.00947551 1.10672
3.13343 -0.013428 1.50379
3.43205 -0.0109367 1.9305
3.69278 -0.0326992 2.42911
3.87436 -0.0207494 2.94672
3.9806 -0.0200177 3.45565
4.01827 -0.0180011 3.97322
3.98955 -0.0186735 4.48221
3.89708 -0.0197972 4.97775
3.74243 -0.0197968 5.46032
3.52909 -0.0165193 5.92031
3.25832 -0.0155694 6.35076
2.93116 -0.015237 6.75175
2.54599 -0.0102933 7.11845
1.63356 -0.0942156 7.76155
1.21412 -0.0652926 7.92035
0.776946 -0.0611614 8.04493
0.316553 -0.0574188 8.12332
-0.177741 -0.0527195 8.13844
-0.679736 -0.0416996 8.09707
-1.18531 -0.0494099 7.97203
-1.66047 -0.0517752 7.77422
-2.10762 -0.0568214 7.52364
-2.5199 -0.0538052 7.21761
-2.89562 -0.0580312 6.86702
-3.22101 -0.034409 6.46038
-3.49566 -0.0287521 6.02774
-3.70271 -0.0296084 5.59657
-3.87045 -0.031162 5.11762
-3.97084 -0.0349771 4.64189
-4.01163 -0.0424526 4.14044
-3.98759 -0.0588054 3.63944
-3.89587 -0.0731586 3.1259
-3.73329 -0.0926489 2.62376
-3.49183 -0.103815 2.11991
-3.17545 -0.116993 1.64401
-2.79149 -0.0967761 1.19759
