ply
format ascii 1.0
element vertex 48
property float x 
property float y 
property float z 
end_header
0.8348 0.103111 4.03808
0.542544 0.109427 4.14173
0.275181 0.107978 4.19545
-0.00826853 0.108663 4.21445
-0.275624 0.107171 4.19583
-0.548613 0.109585 4.14095
-0.804676 0.108846 4.05182
-1.04973 0.104922 3.9277
-1.28184 0.100563 3.77132
-1.50625 0.0883737 3.57051
-1.68248 0.0814933 3.35972
-1.83016 0.0754922 3.12738
-1.94647 0.0655246 2.88034
-2.034 0.058772 2.60067
-2.07945 0.0503628 2.33371
-2.08974 0.0482315 2.06394
-2.06539 0.0455704 1.79137
-2.00754 0.0437126 1.52925
-1.91677 0.0418978 1.27768
-1.79362 0.0397417 1.03651
-1.64185 0.0344346 0.814129
-1.46193 0.0312852 0.612871
-1.26119 0.0311975 0.4408
-1.0331 0.0261078 0.288169
-0.783665 0.0189925 0.163008
-0.522806 0.0105054 0.0711954
-0.261283 0.00383235 0.017717
0 0 0
0.257221 -0.000494699 0.0150751
0.507099 -0.000136487 0.0623413
0.746345 0.00237812 0.138838
0.970443 0.00530615 0.241273
1.18145 0.00884629 0.371378
1.3728 0.0149075 0.523107
1.54779 0.0244459 0.699697
1.70636 0.036762 0.903205
1.85194 0.0536039 1.15092
1.97128 0.0603196 1.43228
2.05379 0.0641477 1.74395
2.08711 0.0648815 2.06321
2.07643 0.0668194 2.34321
2.02617 0.0690715 2.62172
1.94553 0.0728914 2.87452
1.83473 0.0748266 3.11123
1.71011 0.077485 3.31723
1.55217 0.080475 3.51847
1.36816 0.0819884 3.7003
1.12273 0.0945168 3.88531
