ply
format ascii 1.0
element vertex 48
property float x 
property float y 
property float z 
end_header
0.849951 0.0989223 4.03935
0.536969 0.0916872 4.15093
0.237636 0.0988041 4.20555
-0.0436188 0.103206 4.21832
-0.317043 0.0930338 4.1934
-0.589314 0.0981825 4.12968
-0.842559 0.0987557 4.03534
-1.08444 0.0956169 3.90505
-1.30766 0.0899279 3.74639
-1.50666 0.0865961 3.55975
-1.67322 0.0804749 3.35882
-1.80976 0.078296 3.14689
-1.92177 0.0672711 2.92039
-2.01518 0.0598534 2.6512
-2.06944 0.0528326 2.37983
-2.08697 0.0497537 2.10038
-2.06739 0.0472322 1.82394
-2.01248 0.0458766 1.55562
-1.92331 0.0437489 1.29815
-1.80081 0.0415871 1.0517
-1.65007 0.0374067 0.828209
-1.46866 0.0346807 0.622354
-1.26537 0.0325644 0.444643
-1.03345 0.0257078 0.288135
-0.783564 0.0158179 0.160821
-0.522785 0.0105038 0.0711934
-0.261278 0.0038309 0.0177171
0 0 0
0.257221 -0.000494699 0.0150751
0.507092 -0.000119645 0.0623603
0.746346 0.00244934 0.138869
0.970443 0.00530615 0.241273
1.18182 0.00901965 0.371768
1.37321 0.0150936 0.523551
1.54934 0.024525 0.701754
1.70954 0.0391824 0.909345
1.85032 0.0538965 1.14755
1.97211 0.0595795 1.43388
2.05316 0.065051 1.73919
2.08728 0.0669593 2.05212
2.07877 0.0692808 2.32916
2.03381 0.0744145 2.59851
1.95478 0.0778786 2.85637
1.85183 0.0817738 3.08784
1.72795 0.0836154 3.29796
1.57421 0.0874398 3.50047
1.38821 0.0889699 3.69012
1.14499 0.0959376 3.87843
