ply
format ascii 1.0
element vertex 38
property float x 
property float y 
property float z 
end_header
-0.124107 0.0283524 2.10388
-0.491667 0.0454346 2.04908
-0.758103 0.0431929 1.9662
-1.00519 0.0385196 1.8522
-1.23721 0.0366028 1.70602
-1.45578 0.0238265 1.52403
-1.63344 0.0216014 1.33189
-1.79678 0.0203263 1.10168
-1.92424 0.0147791 0.860012
-2.02241 0.0139845 0.593456
-2.08525 0.012777 0.30672
-2.10749 0.0120335 0.0294889
-2.09308 0.0114873 -0.24779
-2.04458 0.0123793 -0.511941
-1.96574 0.00847943 -0.760468
-1.86058 0.00716511 -0.990307
-1.71684 0.00723439 -1.22267
-1.53195 0.00686184 -1.44763
-1.33677 0.00558325 -1.62958
-1.09851 0.00317467 -1.79883
-0.803016 -0.00143259 -1.94877
-0.513949 -0.0010659 -2.04411
-0.214759 -0.00147784 -2.09676
0.0645985 -0.00242117 -2.10674
0.348783 -0.00361802 -2.07867
0.609887 -0.00518744 -2.01756
0.866542 -0.00663175 -1.92135
1.11729 -0.00522627 -1.78722
1.34299 -0.0060474 -1.62446
1.54192 -0.0111025 -1.43698
1.7205 -0.00892456 -1.21751
1.87038 -0.0101709 -0.971657
1.98351 -0.011482 -0.712793
2.06365 -0.0117025 -0.428629
2.10349 -0.0125795 -0.132987
2.09437 -0.0137628 0.236529
2.0467 -0.013774 0.503354
2.09349 -0.0372661 0.238339
