ply
format ascii 1.0
element vertex 24
property float x 
property float y 
property float z 
end_header
1.68042 -0.0655707 2.68757
1.68785 -0.0725221 2.68315
204.111 105.365 35990.5
1.08371 -1.78936 -3.10198
0.575644 -1.91949 3.15944
-1.5213 -0.182149 -2.35235
-1.49727 -0.179042 -2.34497
-1.51154 -0.170997 -2.35393
-1.52537 0.043626 2.28111
-1.15938 0.0558279 1.49109
-0.591581 0.060339 1.11027
-0.159037 0.0610637 1.00591
0.489504 0.0674973 1.08041
1.08196 0.0681763 1.43343
1.44071 0.0713914 1.92042
1.58177 0.0713446 2.86782
1.54031 0.0822732 3.08277
1.24584 0.080451 3.64895
1.6369 -0.0892144 2.72695
1.64292 -0.0837025 2.721
1.64828 -0.0769883 2.71711
1.65254 -0.0734605 2.71314
1.66182 -0.066819 2.70399
1.67078 -0.0667495 2.69399
