ply
format ascii 1.0
element vertex 28
property float x 
property float y 
property float z 
end_header
0.860807 0.00297591 2.61976
0.793878 0.0119491 2.65334
5.56967 -0.124683 3.0443
-0.521413 0.00486892 -0.858751
-0.575637 0.00488292 -0.933379
-0.287687 0.00357921 -0.982759
-0.0555701 0.000459648 -1.00292
0.193845 -0.00128194 -0.9942
0.424878 -0.0019581 -0.956726
0.66912 -0.000913842 -0.882914
0.895776 0.00201872 -0.780222
1.10311 0.00154072 -0.652461
1.28934 -0.00146559 -0.503012
1.45959 0.00197323 -0.324713
1.61005 -0.000516642 -0.119987
1.73005 -0.00053052 0.0985196
1.82241 -0.000312755 0.337149
1.88344 0.000245051 0.596524
1.90651 0.00489673 0.850302
1.89812 0.00767095 1.09506
1.86279 0.00723028 1.32056
1.79612 0.00652482 1.5511
1.73837 0.00595027 1.70074
1.61968 0.00581225 1.92
1.46557 0.00234565 2.13111
1.28425 -0.0179144 2.32367
1.11859 -0.0217499 2.46054
0.974783 -0.00868809 2.55579
