ply
format ascii 1.0
element vertex 48
property float x 
property float y 
property float z 
end_header
0.822393 0.0563853 4.33654
0.552398 0.0564691 4.43022
0.297511 0.0578939 4.4825
0.0247149 0.056502 4.50237
-0.260123 0.0551701 4.48539
-0.521689 0.0546034 4.43516
-0.778163 0.0530793 4.34982
-1.01696 0.0528421 4.23651
-1.23423 0.0519083 4.09756
-1.4511 0.0486629 3.91796
-1.64126 0.0458319 3.71179
-1.80236 0.0430639 3.48599
-1.92647 0.0367968 3.23901
-2.01774 0.033244 2.97762
-2.07601 0.0297821 2.69781
-2.09518 0.0264944 2.4269
-2.07929 0.021198 2.15208
-2.02806 0.0163737 1.88224
-1.9422 0.0126353 1.62124
-1.82756 0.0108043 1.38303
-1.68448 0.00770464 1.15778
-1.5039 0.00332804 0.941918
-1.29687 0.00132888 0.755285
-1.06526 -0.0025316 0.592541
-0.812367 -0.00379323 0.4664
-0.556363 -0.00529366 0.3794
-0.275069 -0.00513599 0.323028
-0.00624404 -0.00467239 0.306388
0.260949 -0.00445849 0.323321
0.523283 -0.00305935 0.374141
0.779992 -0.0017764 0.459535
1.02212 -3.7391e-05 0.577939
1.24692 0.00270828 0.726098
1.4539 0.00567628 0.905431
1.63795 0.00967011 1.11321
1.79449 0.0136829 1.34516
1.9222 0.0163248 1.60187
2.01366 0.0195955 1.87472
2.06559 0.02398 2.14102
2.08302 0.0274998 2.4139
2.06168 0.0323228 2.69438
2.01008 0.0361483 2.95013
1.9475 0.0396179 3.18765
1.83495 0.0439006 3.42785
1.68562 0.0468824 3.65836
1.5164 0.0497242 3.85852
1.31665 0.05226 4.04205
1.08966 0.0534026 4.20066
