ply
format ascii 1.0
element vertex 48
property float x 
property float y 
property float z 
end_header
0.88159 0.0972071 4.0268
0.559501 0.0988467 4.1457
0.234218 0.0998119 4.20865
-0.0495464 0.0993848 4.21925
-0.322271 0.0946908 4.19376
-0.575794 0.106584 4.13511
-0.826296 0.106145 4.04289
-1.06508 0.100008 3.91737
-1.27394 0.0940415 3.77388
-1.4694 0.0927935 3.59838
-1.63839 0.0816569 3.40628
-1.78527 0.0671215 3.19413
-1.9141 0.0509908 2.94753
-2.01076 0.0412919 2.67711
-2.06897 0.036799 2.39769
-2.08769 0.0392206 2.11378
-2.06802 0.0426294 1.83011
-2.01271 0.0440625 1.56079
-1.92389 0.0444411 1.30297
-1.80278 0.0447894 1.06083
-1.65154 0.0406537 0.832807
-1.47226 0.0389373 0.627773
-1.26682 0.0334207 0.445793
-1.03336 0.0270277 0.289025
-0.782937 0.0196789 0.163198
-0.522693 0.010651 0.0713083
-0.261298 0.00381063 0.0177262
0 0 0
0.257221 -0.000494699 0.0150751
0.50713 -0.000182827 0.0623592
0.746524 0.00245211 0.138988
0.970443 0.00530615 0.241273
1.1822 0.00907122 0.372013
1.37449 0.0148786 0.524715
1.54975 0.023507 0.701803
1.70813 0.0375095 0.906303
1.8507 0.0521608 1.14722
1.96855 0.0593831 1.42249
2.05217 0.0651238 1.73534
2.08689 0.0670839 2.05718
2.07652 0.0676565 2.34402
2.03232 0.0743659 2.60277
1.95503 0.0747966 2.85552
1.85661 0.0800055 3.08272
1.72808 0.0830615 3.30054
1.57351 0.0855378 3.50445
1.38323 0.0869502 3.69744
1.15724 0.0871747 3.87334
