ply
format ascii 1.0
element vertex 44
property float x 
property float y 
property float z 
end_header
0.00409208 -0.0382537 4.2975
-0.273149 -0.0536007 4.2828
-0.515511 -0.0631266 4.22908
-0.800273 -0.0772675 4.13703
-1.04302 -0.0984276 4.01632
-1.31573 -0.134166 3.82692
-1.61514 -0.124599 3.52338
-1.77274 -0.0986131 3.24577
-1.85797 -0.0303279 3.03166
-1.92009 0.00692889 2.84202
-1.97189 0.0341438 2.63588
-2.00726 0.0507521 2.43321
-2.02707 0.0589247 2.21119
-2.02486 0.0616392 1.9822
-1.99794 0.0640211 1.7523
-1.94631 0.0641949 1.52854
-1.8689 0.0609038 1.30266
-1.76627 0.0558114 1.08551
-1.64027 0.0527272 0.887089
-1.49296 0.0490888 0.701856
-1.32023 0.0379404 0.529113
-1.13252 0.0371321 0.385439
-0.930642 0.0347816 0.262366
-0.705398 0.0244337 0.154286
-0.477459 0.0174616 0.0716757
-0.234202 0.00957071 0.0214421
0 0 0
0.223953 -0.001044 0.0150979
0.435727 -0.00929702 0.0436603
0.631788 -0.0131616 0.0929143
0.806801 -0.00953692 0.160024
0.968191 0.00657321 0.250125
1.11426 0.0366129 0.356076
1.22805 0.0932264 0.461566
1.33561 0.168083 0.594055
-1.52272 -0.304342 -3.21638
-1.79536 -0.233797 -2.79758
1.53142 -0.00575982 3.59227
1.38133 -0.0113364 3.75428
1.20553 -0.00419565 3.8974
1.0153 0.000554864 4.01926
0.763418 0.00201213 4.14055
0.52218 -0.0228614 4.23006
0.258894 -0.0245687 4.28178
