ply
format ascii 1.0
element vertex 44
property float x 
property float y 
property float z 
end_header
-0.283973 -0.110659 4.30161
-0.504598 -0.142274 4.25918
-0.76858 -0.159533 4.17461
-1.02322 -0.180317 4.05309
-1.26611 -0.193555 3.8921
-1.52032 -0.190943 3.65267
-1.73614 -0.148112 3.3615
-1.86519 -0.116589 3.07593
-1.9218 -0.0727333 2.89242
-1.968 -0.039373 2.70428
-2.00063 -0.0199936 2.52824
-2.02428 0.000516075 2.33404
-2.03376 0.0126724 2.11295
-2.0217 0.0222378 1.89202
-1.98733 0.0288822 1.66886
-1.92879 0.032069 1.45128
-1.84787 0.0330313 1.24227
-1.74255 0.030918 1.0343
-1.61733 0.0306176 0.84382
-1.47529 0.0353113 0.675224
-1.30844 0.031735 0.514003
-1.13281 0.0312303 0.372553
-0.911325 0.0217207 0.241176
-0.696029 0.0178169 0.143618
-0.466997 0.0141673 0.0685272
-0.230957 0.00831283 0.0218045
0 0 0
0.220648 0.00119209 0.0168703
0.436502 -0.0083518 0.0452244
0.631306 -0.0103378 0.0951246
0.806801 -0.00953692 0.160024
0.968191 0.00657321 0.250125
1.11411 0.0356315 0.355721
1.23596 0.0853092 0.466105
1.35605 0.160775 0.613579
-1.63026 -0.387296 -3.06583
-1.31079 -0.459533 -3.42799
1.4118 -0.128182 3.76848
1.19929 -0.135048 3.9505
0.958634 -0.12664 4.09602
0.722068 -0.135324 4.20735
0.480953 -0.13147 4.27837
0.226938 -0.117127 4.31678
-0.039199 -0.113392 4.32456
