ply
format ascii 1.0
element vertex 16
property float x 
property float y 
property float z 
end_header
0.880938 0.394173 2.65612
1.69638 -1.60925 -5.61729
-6.83635 11.0879 -164.733
0.587625 -2.42731 3.46666
1.53025 1.12705 -4.44177
1.74562 0.815609 -3.98604
-0.371258 2.31125 -3.31497
0 0 0
-0.93816 -0.281672 0.201285
1.53566 1.27605 -3.50459
2.05657 0.547839 -3.16598
-0.199773 2.01674 -3.36311
-10500.8 10659 -93197.3
-0.453039 1.66853 -4.64194
-1.73464 -1.46558 -2.84798
1.25706 -0.398506 1.37676
