ply
format ascii 1.0
element vertex 631
property float x
property float y
property float z
property uchar red
property uchar green
property uchar blue
end_header
-0.196901 0.0460462 2.32063 113 1 0
-0.194938 0.037795 2.31575 244 238 238
-0.171862 -0.219896 2.35581 108 0 0
-0.168369 0.0419693 2.33048 250 249 247
-0.159935 -0.227179 2.35352 150 0 2
-0.159935 -0.227179 2.35352 150 0 2
-0.151583 -0.231365 2.3547 240 233 215
-0.150776 -0.223688 2.35504 131 1 0
-0.148554 -0.201238 2.36459 98 0 1
-0.139101 -0.21872 2.35846 132 0 3
-0.139101 -0.21872 2.35846 132 0 3
-0.136187 -0.215634 2.35999 248 245 252
-0.118579 -0.210927 2.36327 99 1 0
-0.11507 -0.191373 2.37148 107 1 1
-0.112448 -0.196907 2.36933 99 0 0
-0.113026 -0.145453 2.38852 79 0 0
-0.11208 -0.187761 2.37283 240 238 241
-0.107595 -0.203651 2.3668 240 240 240
-0.0994026 -0.166061 2.38276 126 0 1
-0.0913762 -0.163054 2.38526 239 234 240
-0.0890681 -0.177679 2.37779 96 1 0
-0.0889025 -0.1848 2.37469 242 232 243
-0.0889008 -0.177795 2.37743 95 1 1
-0.0889008 -0.177795 2.37743 95 1 1
-0.0867503 -0.199523 2.36932 70 0 2
-0.084231 -0.185053 2.37567 91 0 0
-0.083044 -0.18023 2.37748 233 231 236
-0.0799076 -0.186693 2.3759 241 233 244
-0.0799076 -0.186693 2.3759 241 233 244
-0.0798074 -0.186822 2.37568 239 225 242
-0.0798074 -0.186822 2.37568 239 225 242
-0.0775439 -0.19019 2.37449 236 229 237
-0.0775439 -0.19019 2.37449 236 229 237
-0.0711171 -0.187603 2.37729 233 230 237
-0.0694466 -0.193603 2.37254 84 0 2
-0.0694466 -0.193603 2.37254 84 0 2
-0.0668409 -0.183424 2.37606 89 1 0
-0.0642516 -0.193503 2.37317 250 245 241
-0.0637858 -0.18739 2.37496 239 227 237
-0.0629314 -0.172864 2.38092 231 232 236
-0.061424 -0.17843 2.37915 232 231 237
-0.0610164 -0.184491 2.37673 240 229 243
-0.0539802 -0.184351 2.37793 80 0 0
-0.052699 -0.0437752 2.36915 204 175 205
-0.0484776 -0.139704 2.39915 231 221 230
-0.0453254 -0.182299 2.37827 233 230 237
-0.0453254 -0.182299 2.37827 233 230 237
-0.0435785 -0.126612 2.40385 57 0 0
-0.0435785 -0.126612 2.40385 57 0 0
-0.0417327 -0.18427 2.37791 106 0 0
-0.0413808 -0.157998 2.39 237 223 236
-0.0378571 -0.18377 2.37952 252 254 253
-0.0374915 -0.183627 2.37874 254 255 253
-0.0328726 -0.139134 2.3979 89 0 1
-0.0301666 0.0591055 2.26533 94 0 0
-0.0301666 0.0591055 2.26533 94 0 0
-0.0311622 -0.0952126 2.42368 39 1 0
-0.030598 -0.15125 2.39256 238 222 232
-0.0277419 -0.0497463 2.37149 61 1 3
-0.0253175 -0.139668 2.39937 230 225 232
-0.0228496 -0.173133 2.3832 231 225 229
-0.0202723 -0.15869 2.39096 219 208 224
-0.0202723 -0.15869 2.39096 219 208 224
-0.0163583 -0.169952 2.38593 222 218 233
-0.01563 -0.130479 2.37988 88 0 0
-0.0106221 -0.168081 2.38732 226 220 232
-0.00876132 -0.17376 2.38839 254 255 255
-0.00837388 -0.15524 2.39237 70 0 0
-0.00418438 -0.0435823 2.38282 188 173 192
-0.00418438 -0.0435823 2.38282 188 173 192
-0.00343774 -0.163363 2.39027 238 218 229
-2.15194e-05 -0.149152 2.39547 76 2 3
3.5043e-05 -0.165595 2.38694 68 0 0
0.00137355 -0.146081 2.39787 228 205 225
0.00137355 -0.146081 2.39787 228 205 225
0.00489861 -0.141199 2.39979 220 206 219
0.0069826 -0.143578 2.39915 221 207 220
0.00711831 -0.0660234 2.42837 255 255 253
0.00731528 -0.165298 2.38702 64 0 1
0.014233 -0.166405 2.38758 255 255 255
0.0194567 -0.159982 2.39036 60 0 4
0.0205888 -0.164858 2.38866 245 244 240
0.0215363 -0.154926 2.39306 58 0 3
0.0220033 -0.150853 2.39481 213 206 222
0.0235559 -0.0501071 2.38879 90 2 1
0.0334105 0.00676672 2.29399 104 0 1
0.0349706 -0.149358 2.39298 53 0 3
0.0361566 0.000575127 2.29451 111 0 0
0.0361566 0.000575127 2.29451 111 0 0
0.0400073 0.000500287 2.29719 246 235 233
0.0404064 0.00517386 2.2986 103 0 0
0.0447526 0.00650112 2.30277 94 0 0
0.0488359 -0.137713 2.40183 205 197 212
0.0467 -0.0125624 2.2947 247 252 246
0.0498054 -0.131268 2.40461 71 0 0
0.0500217 -0.12193 2.4097 40 0 0
0.0495114 0.0344554 2.32244 253 248 244
0.0550291 -0.143639 2.40041 55 1 0
0.056811 -0.0857946 2.42862 185 156 184
0.0580982 -0.120884 2.41074 202 174 197
0.0572204 0.0691531 2.34853 249 250 245
0.0595208 -0.0682019 2.43985 181 139 185
0.0571632 0.0456415 2.3349 245 244 242
0.0573013 0.0380944 2.32979 118 0 0
0.0575091 -0.00449324 2.30929 111 0 0
0.0587408 0.0286277 2.32691 244 243 241
0.060739 0.0147749 2.32338 104 0 0
0.060739 0.0147749 2.32338 104 0 0
0.0619621 0.0817135 2.36077 250 232 230
0.06104 -0.0084131 2.31062 255 241 238
0.06104 -0.0084131 2.31062 255 241 238
0.0612202 -0.0142337 2.30976 103 0 0
0.064022 -0.12672 2.4088 198 179 198
0.0628254 0.0653813 2.35125 120 0 0
0.0670364 0.0246461 2.33408 106 0 0
0.07093 -0.112697 2.41445 49 1 0
0.0713731 -0.14187 2.39871 41 0 0
0.0687916 -0.017645 2.31118 249 250 245
0.0719679 0.0862727 2.37336 255 241 238
0.0762641 -0.128479 2.40513 49 0 0
0.079693 -0.117618 2.41208 21 0 0
0.0789531 0.00718509 2.33779 103 0 0
0.0808567 0.0951842 2.38846 255 240 240
0.0789047 -0.0191956 2.32511 107 2 0
0.0843574 -0.132428 2.40387 177 159 175
0.0850775 -0.106899 2.41617 192 169 189
0.0822762 -0.0137539 2.32948 109 0 0
0.0846117 0.0273937 2.35504 100 0 0
0.0845193 0.0106154 2.34297 249 246 241
0.0851419 0.0317421 2.35874 106 0 0
0.0872159 -0.119917 2.41106 184 166 188
0.0848856 0.00483185 2.34268 105 1 0
0.0882782 -0.129248 2.40481 196 171 193
0.0866123 -0.00418949 2.33901 114 0 2
0.0907752 0.0790554 2.38456 247 247 245
0.0935299 -0.122287 2.4091 34 0 0
0.0911475 0.00163857 2.34305 248 245 240
0.0927237 0.00662312 2.35134 247 247 245
0.0942719 0.0383013 2.36905 106 1 0
0.0934862 -0.0194403 2.33727 108 0 0
0.0948924 0.0240214 2.36537 248 245 238
0.0975752 -0.094155 2.42566 49 0 3
0.0950279 -0.0145162 2.34197 250 251 245
0.0985123 0.0693148 2.39123 250 249 245
0.0986731 0.0692627 2.39083 250 249 245
0.104133 0.0180319 2.36938 255 244 244
0.107326 -0.0353165 2.34349 98 0 0
0.11181 0.0350329 2.38863 104 0 1
0.10918 -0.275039 2.25523 166 124 134
0.114099 -0.0291295 2.35376 104 0 0
0.12015 0.0401248 2.39957 101 1 1
0.122973 0.00862207 2.38389 108 0 0
0.122973 0.00862207 2.38389 108 0 0
0.123978 0.0039084 2.38249 247 245 248
0.120451 -0.281868 2.24394 65 1 1
0.132643 0.00752762 2.39451 255 238 234
0.136173 -0.0242483 2.37945 255 242 236
0.143465 -0.00840512 2.38969 246 244 245
0.144 -0.134745 2.35413 227 226 231
0.141703 -0.331355 2.25265 225 12 58
0.144983 -0.211502 2.3025 222 221 226
0.152852 0.00960618 2.41843 244 243 241
0.154923 0.0619763 2.43952 252 247 244
0.154379 -0.116036 2.36982 227 227 227
0.160035 -0.00218924 2.41879 116 0 0
0.161044 -0.00753436 2.41081 115 0 0
0.156465 -0.190341 2.31371 94 7 15
0.156465 -0.190341 2.31371 94 7 15
0.164359 -0.0668493 2.37704 255 250 246
0.172627 0.00956443 2.43119 119 1 0
0.170666 -0.109436 2.37692 222 228 224
0.17426 -0.124731 2.36952 232 228 227
0.177573 -0.0244606 2.41325 253 239 236
0.177573 -0.0244606 2.41325 253 239 236
0.174477 -0.121249 2.3702 235 233 236
0.183828 0.0373459 2.4552 123 1 0
0.170362 -0.321238 2.26026 212 16 66
0.170362 -0.321238 2.26026 212 16 66
0.178551 -0.132734 2.36136 79 1 1
0.178189 -0.170514 2.33617 118 18 28
0.183734 -0.123708 2.36999 101 1 3
0.183734 -0.123708 2.36999 101 1 3
0.182158 -0.171818 2.33623 231 228 223
0.191138 0.0202065 2.44813 186 115 155
0.201087 0.0396796 2.47001 253 253 253
0.19251 -0.140528 2.35924 251 231 233
0.19251 -0.140528 2.35924 251 231 233
0.195684 -0.1074 2.38353 233 231 234
0.195684 -0.1074 2.38353 233 231 234
0.198946 -0.121898 2.37525 240 240 242
0.198946 -0.121898 2.37525 240 240 242
0.205274 0.010992 2.4496 254 245 250
0.205274 0.010992 2.4496 254 245 250
0.198545 -0.132647 2.36531 75 1 0
0.201366 -0.113285 2.3817 80 2 2
0.195484 -0.337835 2.26553 223 41 102
0.20733 -0.115084 2.38172 217 192 196
0.20794 -0.1294 2.37179 109 0 0
0.20794 -0.1294 2.37179 109 0 0
0.212347 -0.124351 2.37525 86 2 2
0.222301 0.004773 2.45431 251 251 251
0.227236 0.0140201 2.46127 66 0 1
0.231403 0.0378747 2.47929 112 0 0
0.239969 0.02265 2.48027 253 253 253
0.221337 -0.317615 2.26082 185 12 68
0.229183 -0.342168 2.2732 238 227 209
0.228689 -0.324748 2.26646 255 255 255
0.250984 0.0256593 2.48109 142 0 1
0.231589 -0.336914 2.27378 255 254 255
0.237466 -0.317681 2.26873 141 25 36
0.265611 0.0150393 2.48195 254 253 251
0.277826 -0.335184 2.28412 123 0 3
-0.151627 -0.223515 2.3679 131 1 0
-0.172324 -0.228591 2.37677 131 1 0
-0.16216 -0.225091 2.37654 126 0 1
-0.0591166 -0.148907 2.38439 81 0 0
-0.0341551 -0.129394 2.38911 218 188 200
0.0686043 0.0694168 2.33941 114 0 0
0.0754618 0.0708935 2.34738 252 237 230
0.0741007 0.0571166 2.34384 255 242 239
-0.011879 -0.168889 2.37597 230 220 221
0.0905013 0.0503725 2.35956 132 0 4
0.00788045 -0.146976 2.38388 215 206 211
0.0268589 -0.149833 2.38351 211 188 206
0.0950129 -0.0340905 2.3353 106 0 0
0.150358 -0.0104697 2.40053 253 248 244
0.171729 -0.00771815 2.42623 255 244 242
0.209103 0.0718116 2.47031 248 247 243
0.217441 0.00529435 2.46822 253 237 238
-0.143243 -0.136617 2.44251 253 253 253
-0.129832 -0.158593 2.41768 252 253 255
-0.111935 -0.197137 2.37963 176 0 17
-0.108712 -0.17832 2.39585 253 255 254
-0.0992824 -0.165392 2.40493 251 255 254
-0.0838839 -0.161536 2.40487 165 1 8
-0.0692688 -0.145888 2.41383 159 1 2
-0.049609 -0.171676 2.38909 255 255 255
-0.032582 -0.169819 2.3856 254 255 255
-0.0287243 -0.100435 2.4432 112 0 0
0.00920251 -0.114205 2.42304 101 1 1
0.0301826 -0.138038 2.39866 245 254 253
0.0444456 -0.142063 2.39227 108 0 2
0.0686613 -0.141884 2.38774 95 0 0
0.0798617 -0.1328 2.39228 242 239 250
0.167945 -0.102207 2.38526 93 0 0
0.179998 -0.141284 2.35324 110 0 1
-0.0466973 -0.0977427 2.44835 84 0 0
0.0217671 0.0306493 2.42921 232 230 241
-0.17557 -0.226553 2.36573 167 0 28
-0.165778 -0.166752 2.40419 99 0 0
-0.14364 -0.185198 2.39288 240 228 230
-0.139159 -0.158642 2.40941 237 227 235
-0.121744 -0.187422 2.387 120 0 2
-0.0917685 -0.174423 2.39184 254 254 254
-0.0560223 -0.131135 2.41829 74 0 3
-0.0444751 -0.141841 2.40923 245 240 244
-0.0239362 -0.149336 2.40227 81 0 0
-0.0248754 -0.136259 2.41136 78 0 0
-0.0280152 -0.11251 2.42618 219 207 221
-0.0122384 -0.111497 2.42624 53 0 1
-0.00347036 -0.12729 2.41679 222 221 235
0.043894 -0.160682 2.39085 242 243 245
0.017817 -0.105601 2.42825 204 198 212
-0.01495 -0.0904985 2.46852 213 198 219
0.0412882 -0.128658 2.41064 60 0 0
-0.00191454 -0.0691868 2.47979 38 0 0
0.0668505 -0.152578 2.39428 239 223 234
0.0107396 -0.0798256 2.47039 179 137 157
0.0495998 -0.105357 2.42551 35 1 0
0.0850623 -0.143485 2.39906 201 184 203
0.101101 -0.135382 2.40369 177 152 174
0.1035 -0.114471 2.41667 191 142 172
0.113758 -0.131996 2.40527 47 1 3
0.122631 -0.116661 2.41861 18 0 0
-0.139949 -0.219534 2.37109 142 0 0
-0.11676 -0.20818 2.3763 255 254 250
-0.0866686 -0.200796 2.37952 81 1 2
-0.0661182 -0.142248 2.39238 88 0 0
0.0590679 -0.0868125 2.41051 45 0 0
-0.0401982 -0.185819 2.38916 242 233 238
0.0745475 -0.111985 2.40412 48 0 0
-0.19357 -0.239666 2.36476 253 255 254
-0.161121 -0.228239 2.36539 195 0 34
-0.176624 -0.216393 2.38782 250 223 230
-0.185072 -0.182197 2.42474 134 0 0
-0.18253 -0.175031 2.43219 140 0 0
-0.152191 -0.168146 2.42442 240 238 239
-0.120797 -0.183576 2.40042 255 255 255
-0.0833259 -0.152826 2.4171 123 0 3
-0.0905098 -0.133224 2.44594 83 0 1
-0.0241149 -0.133907 2.4228 95 0 1
-0.0113334 -0.141862 2.41141 90 0 0
-0.0416152 -0.121985 2.44133 237 221 232
-0.0438399 -0.113091 2.44712 234 218 229
0.054201 -0.158127 2.38882 255 254 255
0.0230084 -0.131589 2.41741 69 0 2
0.00725106 -0.113392 2.43802 226 193 220
0.0193715 -0.118969 2.42999 73 0 2
0.0322583 -0.105213 2.43983 58 0 0
0.0411258 -0.111974 2.43323 57 1 0
0.0904001 -0.100738 2.44253 36 1 0
0.255748 -0.159254 2.36032 109 7 2
-0.170405 -0.195723 2.37132 250 223 230
-0.173202 -0.142569 2.3971 134 0 0
-0.169009 -0.122548 2.40611 55 1 0
-0.139785 -0.142755 2.40436 110 0 1
-0.112254 -0.164064 2.39265 254 255 255
0.00701185 -0.177919 2.38657 250 249 247
-0.0684043 -0.0373545 2.44731 31 0 0
-0.0328464 -0.082482 2.43054 240 214 227
0.0286244 -0.172583 2.38954 249 238 246
0.0678596 -0.14647 2.37813 249 237 247
0.100476 0.11684 2.44404 235 236 238
0.103232 0.105546 2.44968 5 0 1
0.135279 0.0753828 2.42912 16 0 1
0.201291 0.0199609 2.45807 255 237 235
0.211883 -0.00495832 2.45162 155 23 47
-0.00390328 0.0634713 2.27447 93 0 0
0.0732987 0.0414928 2.33745 253 249 246
0.0794789 0.0481272 2.34359 253 243 241
0.100746 0.0772993 2.37073 255 220 227
0.0843439 0.0210601 2.34384 255 230 233
0.0974192 0.0285665 2.35665 103 0 3
0.112449 0.0697997 2.38 251 248 243
0.0766554 -0.0373237 2.33036 196 6 18
0.128124 0.097415 2.40696 239 228 224
0.0826075 -0.0272989 2.33631 250 246 243
0.103287 0.0113095 2.35925 255 241 241
0.0978992 -0.00555533 2.35283 246 242 241
0.124573 0.044473 2.38347 253 246 240
0.12205 0.0305504 2.3814 76 0 2
0.103047 -0.0234523 2.35534 114 0 2
0.117787 -0.00177813 2.36941 252 247 244
0.149161 0.0829523 2.41906 229 226 219
0.132622 0.0233502 2.38963 98 0 0
0.124115 -0.00678941 2.37747 253 246 240
0.149108 0.0229318 2.40463 117 1 1
0.174462 0.0497566 2.42979 115 0 13
0.157189 -0.023148 2.4045 252 241 235
0.179689 0.00200863 2.42781 92 1 0
0.173928 -0.0156796 2.41988 91 1 1
0.126829 -0.115403 2.38098 75 0 1
0.122645 -0.139363 2.37611 85 1 0
0.158755 -0.094515 2.40466 57 0 0
0.217128 0.0329091 2.46724 253 245 242
0.177437 -0.0681585 2.42051 4 0 0
0.159227 -0.150687 2.42153 120 0 1
0.179723 -0.12058 2.43476 111 0 0
0.206227 -0.0716992 2.4584 86 0 0
0.216088 -0.0644215 2.46585 223 160 171
0.20616 -0.0873627 2.45854 225 186 204
0.215646 -0.0826681 2.46358 84 1 0
0.205265 -0.103966 2.45688 116 1 0
0.0928757 -0.2913 2.37648 213 12 48
0.247172 -0.036592 2.49532 244 204 212
0.075448 -0.0515777 2.43068 24 0 0
0.0189221 -0.0115979 2.25148 117 1 2
0.0310284 -0.00965475 2.26708 253 252 248
0.0468315 0.011441 2.2916 79 0 0
-0.0300912 0.0223875 2.21645 252 251 246
0.0275354 -0.0183912 2.27153 246 251 247
0.0697447 0.109193 2.34489 166 1 0
0.0663236 0.0509362 2.32879 154 0 0
0.0450424 -0.0283412 2.28855 255 255 255
0.0652233 0.00349992 2.31663 254 255 253
0.0775662 0.000283271 2.32946 254 255 253
0.104838 0.0550168 2.37003 252 220 231
0.126558 0.0534297 2.39376 255 255 255
0.151311 0.0616502 2.42062 255 254 255
0.132433 -0.00811009 2.3868 161 0 6
0.159281 0.0594838 2.42969 69 4 0
0.170639 0.0586991 2.44083 33 15 3
0.193626 0.0293831 2.46151 255 252 253
0.167097 -0.0507807 2.42268 164 0 25
0.178631 -0.0490984 2.43697 185 0 16
0.190379 -0.051363 2.44951 60 0 0
0.174713 -0.157655 2.41328 251 228 234
0.199342 -0.0984614 2.4427 235 219 232
0.216288 -0.092825 2.46299 176 19 64
0.23981 -0.0262817 2.49443 245 220 224
0.216465 -0.104045 2.46141 106 0 2
0.225713 -0.0934612 2.47165 186 0 5
0.244512 -0.0559138 2.4949 171 0 0
0.249504 -0.0478545 2.50145 255 255 253
0.17264 -0.499227 2.58119 244 244 254
0.181166 -0.103672 2.36617 56 0 3
0.196047 -0.10362 2.34125 233 231 234
0.0781217 0.0893618 2.35599 253 227 226
0.125266 0.108624 2.29418 253 250 245
0.15381 -0.110264 2.38897 231 225 225
0.205435 -0.107873 2.35228 236 225 229
0.216261 -0.0955894 2.18524 145 0 0
0.170336 -0.0904505 2.38319 227 208 191
0.153392 0.0439562 2.37369 104 0 0
0.136997 -0.0780507 2.36603 234 206 185
0.17097 -0.0827941 2.34495 90 0 1
0.209981 -0.133736 2.30666 250 204 189
0.179504 -0.310664 2.54837 0 0 0
0.222993 -0.149873 2.28917 78 0 0
0.221157 -0.269023 2.4749 54 0 0
0.187185 -0.354831 2.55946 77 46 61
0.247713 -0.293002 2.47731 143 74 103
0.199216 -0.389879 2.57504 95 44 63
0.195499 -0.434192 2.5804 116 70 83
0.152646 -0.487046 2.60026 36 0 0
0.200475 -0.45104 2.58768 19 1 0
0.135935 -0.510987 2.60526 183 156 173
0.221016 -0.4488 2.59038 100 58 62
0.129531 -0.546134 2.61879 65 1 0
0.285209 -0.21926 2.23716 115 1 0
0.156191 -0.524005 2.60949 171 129 139
0.178103 -0.51713 2.60489 141 98 117
0.141884 -0.550111 2.61568 36 0 0
0.165183 -0.53569 2.60949 16 0 1
0.132755 -0.566839 2.6222 230 228 229
0.277428 -0.244958 2.22787 91 1 0
0.189143 -0.529285 2.60657 23 0 0
0.288029 -0.241109 2.22321 235 207 203
0.167564 -0.562235 2.62055 165 132 151
0.142236 -0.58425 2.62771 191 167 180
0.186416 -0.552316 2.61411 159 111 127
0.157801 -0.594903 2.62835 178 145 154
0.214482 -0.556255 2.6162 138 90 104
0.167534 -0.601307 2.63001 184 147 165
0.204721 -0.580809 2.62383 143 100 120
0.162508 -0.628366 2.63784 191 170 167
0.179329 -0.655666 2.64655 178 157 166
0.222562 -0.640603 2.64196 152 116 130
0.187204 -0.681286 2.65157 38 0 0
0.224198 -0.655598 2.64427 30 0 0
0.215127 -0.678759 2.65137 20 0 0
0.182735 -0.706958 2.65774 181 163 177
0.209291 -0.696218 2.65593 176 148 160
0.2004 -0.726163 2.66387 177 146 162
0.214416 -0.7229 2.66289 30 0 0
0.230083 -0.719304 2.66495 173 142 150
0.23127 -0.737983 2.6667 177 148 152
0.222771 -0.761943 2.67517 177 158 160
0.229852 -0.77967 2.67798 30 0 2
0.14579 -0.565701 2.65573 65 1 0
0.162297 -0.663764 2.68772 243 241 242
0.172527 -0.723236 2.70584 247 237 236
0.00805583 -0.0101311 2.46491 192 160 199
0.590903 -0.0879981 2.03046 230 197 204
0.0612359 -0.068741 2.51113 61 0 0
0.0712397 -0.0316413 2.46979 98 0 0
0.0974934 0.0352872 2.38557 109 0 2
0.102484 -0.0177111 2.41075 56 0 1
0.108874 0.0338094 2.36784 84 0 0
0.108996 0.0116323 2.38147 100 0 2
0.122703 -0.0498587 2.3928 113 0 2
0.124502 -0.11483 2.42916 10 0 1
0.12374 -0.158756 2.45818 217 187 189
0.136831 -0.0654203 2.37977 238 205 196
0.136101 -0.194374 2.4568 52 2 3
0.16087 -0.460935 2.56727 165 105 113
0.162869 -0.527573 2.60251 38 0 0
0.164531 -0.553791 2.61387 179 164 157
0.162925 -0.598935 2.64287 48 0 0
0.168863 -0.0728675 2.3293 109 0 0
0.163151 -0.628619 2.65996 57 2 0
0.170722 -0.576509 2.61722 41 1 0
0.166722 -0.659447 2.67151 47 2 0
0.181303 -0.605291 2.61458 184 137 153
0.183682 -0.074831 2.3064 250 223 214
0.185305 -0.713542 2.66912 201 170 178
0.19137 -0.714324 2.65927 201 174 181
0.192883 -0.12063 2.31909 107 1 3
0.210111 -0.130165 2.29558 238 211 204
0.219954 -0.140546 2.28528 235 227 214
0.219043 -0.175333 2.30821 244 223 220
0.232737 -0.163836 2.27869 111 2 0
0.244633 -0.186342 2.27248 110 0 0
0.246846 -0.156841 2.25096 110 2 0
0.262698 -0.217346 2.26097 249 223 222
0.28781 -0.183979 2.19927 106 1 0
0.300718 -0.164043 2.16517 99 1 2
0.308487 -0.155797 2.14871 93 0 0
-0.378707 -0.131339 2.65242 233 209 199
-0.369696 -0.173724 2.6579 250 254 253
-0.360142 -0.170756 2.65259 94 0 0
-0.353128 -0.209134 2.67042 250 250 250
-0.362346 -0.221043 2.68042 255 253 254
-0.353292 -0.220058 2.67499 201 4 31
0.115355 0.133592 2.38092 115 0 0
0.0531325 0.0741173 2.4191 248 246 247
0.0665331 0.0591553 2.41607 244 220 208
0.0654738 0.0464204 2.42018 104 0 1
0.155618 0.102281 2.37164 110 0 0
-0.325691 -0.305436 2.69296 205 4 22
0.209747 0.116974 2.35147 56 23 6
0.156133 0.0748966 2.37821 90 0 0
0.218912 0.100982 2.35144 34 0 0
0.105746 0.0116776 2.41202 110 1 0
0.0223738 -0.0897832 2.47353 87 1 2
-0.108878 -0.215133 2.55514 49 1 1
0.0666474 -0.0853572 2.4529 75 0 0
-0.26871 -0.385059 2.6931 254 255 255
-0.145006 -0.266203 2.58314 195 163 168
0.0683587 -0.10172 2.4599 227 195 198
-0.0633761 -0.21444 2.53908 65 0 4
0.0568868 -0.120518 2.46957 59 0 0
0.0805209 -0.1049 2.45514 75 1 2
-0.166198 -0.30439 2.60491 31 1 0
-0.0964168 -0.25308 2.5661 168 135 146
-0.149447 -0.298824 2.59685 226 229 236
0.2445 0.0110119 2.36326 240 222 212
0.0816187 -0.12216 2.46017 206 185 182
0.0604286 -0.143979 2.47472 107 0 1
0.160733 -0.0706141 2.40483 103 0 0
0.102539 -0.128819 2.4537 18 0 0
0.0949884 -0.137079 2.45729 198 154 167
-0.191079 -0.374236 2.63959 175 171 168
-0.0615851 -0.277417 2.56208 56 0 0
-0.0398244 -0.261906 2.54634 60 0 0
-0.124349 -0.334036 2.60246 63 0 0
0.0813427 -0.166027 2.47244 217 195 197
-0.0457567 -0.272557 2.55264 234 209 215
-0.0443658 -0.282826 2.55764 91 1 0
-0.176884 -0.43215 2.66121 178 151 166
0.0928117 -0.284955 2.54736 147 111 125
0.133262 -0.278443 2.53041 37 0 0
0.084356 -0.327214 2.56579 60 1 0
0.204457 -0.21202 2.46079 225 217 228
0.0835481 -0.354032 2.57771 247 243 232
0.095559 -0.369236 2.57689 190 174 187
0.229878 -0.236769 2.45757 145 95 133
0.219061 -0.254478 2.46899 222 199 207
0.0972556 -0.384595 2.58218 34 0 1
0.126263 -0.369555 2.56568 12 0 0
0.0949478 -0.399032 2.58909 224 212 224
0.181512 -0.348195 2.53835 77 46 61
0.102032 -0.435235 2.6001 253 255 252
0.265195 -0.266428 2.43248 55 1 1
0.112433 -0.446994 2.59995 185 165 177
0.107282 -0.453973 2.60513 115 1 1
0.310346 -0.209353 2.33547 97 2 0
0.204062 -0.400066 2.5501 8 0 0
0.124065 -0.48021 2.60935 182 158 171
0.196976 -0.417854 2.55838 0 1 0
0.289651 -0.317256 2.43457 253 243 244
0.120449 -0.529225 2.62958 250 249 245
0.154574 -0.505391 2.60703 145 126 130
0.130441 -0.537945 2.62837 185 165 176
0.302808 -0.33747 2.43338 246 228 228
0.207279 -0.471782 2.5732 11 0 0
0.125904 -0.54699 2.63405 65 1 0
0.23072 -0.457026 2.56388 87 51 63
0.152171 -0.529884 2.61716 42 0 2
0.312781 -0.345887 2.43038 45 0 0
0.130188 -0.569191 2.64181 230 228 229
0.15246 -0.552671 2.62617 24 0 0
0.395443 -0.232223 2.2917 90 0 0
0.306214 -0.402219 2.48211 11 0 3
0.141469 -0.586636 2.64286 191 167 180
0.306803 -0.412182 2.48581 125 91 116
0.150963 -0.585736 2.63947 42 0 0
0.219379 -0.531646 2.59423 132 86 89
0.135759 -0.61341 2.65764 245 249 248
0.215782 -0.55357 2.6021 138 90 104
0.3407 -0.428675 2.47767 2 0 3
0.144313 -0.646577 2.6669 243 241 242
0.198198 -0.605559 2.62939 152 119 136
0.272944 -0.546432 2.5854 9 1 0
0.145567 -0.660002 2.67202 252 252 254
0.387019 -0.382466 2.40563 170 119 128
0.277038 -0.55646 2.58774 108 55 49
0.149674 -0.673009 2.67537 255 241 240
0.203426 -0.623935 2.63438 29 0 2
0.277941 -0.567904 2.59179 22 0 2
0.183458 -0.659569 2.65665 178 157 166
0.306702 -0.532998 2.52973 253 253 253
0.226824 -0.640049 2.63224 152 116 130
0.356983 -0.497741 2.49594 150 93 134
0.15913 -0.717103 2.68982 106 0 0
0.389983 -0.445606 2.41884 191 134 141
0.177525 -0.718415 2.68114 31 1 3
0.242376 -0.676607 2.64139 31 1 1
0.426005 -0.437717 2.40262 203 155 167
0.40692 -0.457141 2.41631 31 1 1
0.43651 -0.444298 2.39953 40 0 1
0.427473 -0.456066 2.4067 58 0 0
0.220228 -0.736575 2.67275 26 0 1
0.249169 -0.713257 2.65336 28 0 1
0.271342 -0.70319 2.64368 31 0 0
0.337168 -0.651152 2.6048 26 1 0
0.24156 -0.74232 2.66635 177 148 152
0.433533 -0.536414 2.48053 139 90 109
0.425629 -0.57567 2.49874 62 1 0
0.461409 -0.558308 2.47685 57 1 2
0.243075 -0.805805 2.69186 39 0 1
0.324689 -0.89233 2.69423 247 231 216
0.253946 -0.969487 2.75529 137 105 82
0.576118 -0.650784 2.42835 100 5 13
0.634646 -0.591784 2.378 246 221 216
0.57211 -0.686342 2.44214 238 196 198
0.566584 -0.693726 2.44675 79 1 0
0.23598 -1.09188 2.7951 68 0 0
0.67447 -0.972863 2.4931 229 206 200
0.682881 -0.964628 2.4857 56 3 0
0.68594 -0.992377 2.49558 89 0 4
0.700643 -1.01714 2.4972 249 239 230
0.687739 -1.03547 2.51102 76 2 3
0.685156 -1.06379 2.51983 252 237 240
0.108564 -0.378781 2.56757 197 169 192
0.177439 -0.590182 2.62742 26 2 0
0.143088 -0.641283 2.65746 246 246 244
-0.698136 -3.32659 1.7198 204 150 164
0.168944 -0.12658 2.39306 93 0 0
0.204709 0.0432952 2.15195 254 254 254
0.242171 -0.0970781 2.17781 145 0 0
0.254357 -0.106332 2.17314 253 255 254
0.0512315 0.0660453 2.43529 213 143 141
0.0477449 0.0117827 2.45595 234 186 176
0.159506 -0.0894043 2.34351 241 209 196
0.15276 -0.166183 2.37902 91 0 0
0.209113 -0.140539 2.29492 238 210 198
0.216631 -0.182158 2.29872 100 0 2
0.227272 -0.121563 2.26476 95 1 1
0.274775 0.103527 2.14067 80 0 0
0.245517 -0.253032 2.28585 100 0 0
0.28402 -0.121209 2.19193 99 1 0
0.289096 -0.172088 2.20045 250 198 200
0.295582 -0.173877 2.19286 110 2 0
0.295703 -0.246578 2.21681 103 0 3
0.340773 -0.250379 2.15899 105 1 2
0.379091 -0.182611 2.08335 88 0 0
0.507666 0.143977 1.83167 191 157 145
0.239244 -0.159779 2.2636 108 0 0
-0.0899253 -0.116009 2.37277 158 0 3
0.0758713 -0.0700537 2.18898 69 0 0
